M48
METRIC,LZ,000.000
;FILE_FORMAT=3:3
;TYPE=PLATED
;Layer: PTH_Through
;EasyEDA v6.5.50, 2025-08-14 22:33:42
;e75713753cb845a6aa3ca86cf9a0bac9,7f6f5378126b4d5b8a4b95b5ffd06442,10
;Gerber Generator version 0.2
;Holesize 1 = 0.306 mm
T01C0.306
;Holesize 2 = 0.310 mm
T02C0.310
;Holesize 3 = 3.596 mm
T03C3.596
;Holesize 4 = 3.597 mm
T04C3.597
%
G05
G90
T01
X-019304Y-023114
X006985Y011811
X005080Y-006985
X019558Y-006858
X-019685Y015367
X-006985Y025527
X-021465Y019465
X006096Y021590
X-006096Y-019050
X000762Y026035
X011811Y-021336
X006604Y-020066
X-002294Y033838
X-014224Y-017526
X-005080Y028067
X-002540Y-005842
X006604Y008890
X005461Y019304
X008128Y-013081
X003481Y019676
X-008319Y-012372
X000811Y028883
X-008636Y-019812
X-012475Y017500
X-022733Y009017
X003937Y026797
X028829Y000508
X-016129Y-025146
X-016129Y-003810
X-003175Y006985
X-005461Y-028829
T02
X013462Y-011938
T03
X-029083Y005801
X-029083Y010201
X-039284Y000127
X-034884Y000127
X-029083Y-010201
X-029083Y-005801
X021993Y011817
X026013Y010027
X028988Y-009811
X025876Y-006699
X-023282Y000000
X-018882Y000000
T04
X041400Y000000
X020700Y035853
X035853Y020700
X-018795Y036888
X-036209Y020071
X032174Y-026054
X014160Y-038903
X-012104Y-039591
X-032174Y-026054
X-028759Y029781
M30
