M48
METRIC,LZ,000.000
;FILE_FORMAT=3:3
;TYPE=PLATED
;Layer: PTH_Through_Via
;EasyEDA v6.5.50, 2025-08-14 22:33:42
;e75713753cb845a6aa3ca86cf9a0bac9,7f6f5378126b4d5b8a4b95b5ffd06442,10
;Gerber Generator version 0.2
;Holesize 1 = 0.306 mm
T01C0.306
;Holesize 2 = 0.310 mm
T02C0.310
%
G05
G90
T01
X-019304Y-023114
X006985Y011811
X005080Y-006985
X019558Y-006858
X-019685Y015367
X-006985Y025527
X-021465Y019465
X006096Y021590
X-006096Y-019050
X000762Y026035
X011811Y-021336
X006604Y-020066
X-002294Y033838
X-014224Y-017526
X-005080Y028067
X-002540Y-005842
X006604Y008890
X005461Y019304
X008128Y-013081
X003481Y019676
X-008319Y-012372
X000811Y028883
X-008636Y-019812
X-012475Y017500
X-022733Y009017
X003937Y026797
X028829Y000508
X-016129Y-025146
X-016129Y-003810
X-003175Y006985
X-005461Y-028829
T02
X013462Y-011938
M30
