G04 Layer: TopSolderMaskLayer*
G04 EasyEDA v6.5.50, 2025-08-14 22:33:42*
G04 e75713753cb845a6aa3ca86cf9a0bac9,7f6f5378126b4d5b8a4b95b5ffd06442,10*
G04 Gerber Generator version 0.2*
G04 Scale: 100 percent, Rotated: No, Reflected: No *
G04 Dimensions in millimeters *
G04 leading zeros omitted , absolute positions ,4 integer and 5 decimal *
%FSLAX45Y45*%
%MOMM*%

%AMMACRO1*4,1,8,-0.7831,-1.5508,-0.8128,-1.521,-0.8128,1.5211,-0.7831,1.5508,0.783,1.5508,0.8128,1.5211,0.8128,-1.521,0.783,-1.5508,-0.7831,-1.5508,0*%
%AMMACRO2*4,1,8,0.2337,-1.4464,-1.4391,-0.2751,-1.4464,-0.2337,-0.2751,1.4391,-0.2337,1.4464,1.4391,0.2751,1.4464,0.2337,0.2751,-1.4391,0.2337,-1.4464,0*%
%AMMACRO3*4,1,8,-0.2337,-1.4464,-0.2751,-1.4391,-1.4464,0.2337,-1.4391,0.2751,0.2337,1.4464,0.2751,1.4391,1.4464,-0.2337,1.4391,-0.2751,-0.2337,-1.4464,0*%
%AMMACRO4*4,1,8,-0.6248,-0.9013,-0.6546,-0.8715,-0.6546,0.8716,-0.6248,0.9013,0.6248,0.9013,0.6546,0.8716,0.6546,-0.8715,0.6248,-0.9013,-0.6248,-0.9013,0*%
%AMMACRO5*4,1,8,-0.8716,-0.6546,-0.9013,-0.6248,-0.9013,0.6248,-0.8716,0.6546,0.8715,0.6546,0.9013,0.6248,0.9013,-0.6248,0.8715,-0.6546,-0.8716,-0.6546,0*%
%AMMACRO6*4,1,8,-1.6211,-0.8508,-1.6508,-0.821,-1.6508,0.8211,-1.6211,0.8508,1.621,0.8508,1.6508,0.8211,1.6508,-0.821,1.621,-0.8508,-1.6211,-0.8508,0*%
%AMMACRO7*4,1,8,-1.0211,-0.4608,-1.0508,-0.431,-1.0508,0.4311,-1.0211,0.4608,1.021,0.4608,1.0508,0.4311,1.0508,-0.431,1.021,-0.4608,-1.0211,-0.4608,0*%
%ADD10MACRO1*%
%ADD11MACRO2*%
%ADD12MACRO3*%
%ADD13MACRO4*%
%ADD14MACRO5*%
%ADD15MACRO6*%
%ADD16MACRO7*%
%ADD17C,0.0133*%

%LPD*%
G36*
X12700Y-2552700D02*
G01*
X-127000Y-2565400D01*
X-139700Y-2692400D01*
X-127000Y-2822549D01*
X12700Y-2832100D01*
X152400Y-2822549D01*
X165100Y-2692400D01*
X152400Y-2565400D01*
G37*
D10*
G01*
X-609597Y-2235200D03*
G01*
X-355600Y-2235200D03*
G01*
X-101600Y-2235200D03*
G01*
X152400Y-2235200D03*
G01*
X406400Y-2235200D03*
G01*
X660400Y-2235200D03*
G01*
X914400Y-2235200D03*
G01*
X-609600Y-1016000D03*
G01*
X-355600Y-1016000D03*
G01*
X-101600Y-1016000D03*
G01*
X152400Y-1016000D03*
G01*
X406400Y-1016000D03*
G01*
X660400Y-1016000D03*
G01*
X914400Y-1016000D03*
G01*
X-863600Y-1016000D03*
G01*
X-863600Y-2235200D03*
G36*
X-2919265Y355295D02*
G01*
X-2919770Y355320D01*
X-2941594Y357502D01*
X-2942094Y357578D01*
X-2963593Y361924D01*
X-2964083Y362049D01*
X-2985041Y368513D01*
X-2985518Y368686D01*
X-3005726Y377205D01*
X-3006183Y377426D01*
X-3025447Y387916D01*
X-3025879Y388180D01*
X-3043999Y400535D01*
X-3044403Y400839D01*
X-3061202Y414936D01*
X-3061573Y415279D01*
X-3076889Y430982D01*
X-3077225Y431363D01*
X-3090898Y448510D01*
X-3091192Y448922D01*
X-3103092Y467344D01*
X-3103346Y467784D01*
X-3113351Y487301D01*
X-3113559Y487761D01*
X-3121573Y508177D01*
X-3121733Y508657D01*
X-3127672Y529770D01*
X-3127786Y530265D01*
X-3131596Y551863D01*
X-3131657Y552366D01*
X-3133295Y574238D01*
X-3133310Y574614D01*
X-3133379Y820097D01*
X-3133354Y820597D01*
X-3133283Y821090D01*
X-3133161Y821573D01*
X-3132993Y822043D01*
X-3132780Y822492D01*
X-3132523Y822921D01*
X-3132226Y823323D01*
X-3131891Y823691D01*
X-3131522Y824026D01*
X-3131121Y824323D01*
X-3130694Y824580D01*
X-3130242Y824793D01*
X-3129775Y824961D01*
X-3129290Y825083D01*
X-3128797Y825154D01*
X-3128299Y825179D01*
X-2688300Y825179D01*
X-2687802Y825154D01*
X-2687309Y825083D01*
X-2686824Y824961D01*
X-2686357Y824793D01*
X-2685905Y824580D01*
X-2685478Y824323D01*
X-2685077Y824026D01*
X-2684708Y823691D01*
X-2684373Y823323D01*
X-2684076Y822921D01*
X-2683819Y822492D01*
X-2683606Y822043D01*
X-2683438Y821573D01*
X-2683316Y821090D01*
X-2683245Y820597D01*
X-2683220Y820097D01*
X-2683289Y574614D01*
X-2683304Y574238D01*
X-2684942Y552366D01*
X-2685003Y551863D01*
X-2688813Y530265D01*
X-2688927Y529770D01*
X-2694866Y508657D01*
X-2695026Y508177D01*
X-2703040Y487761D01*
X-2703248Y487301D01*
X-2713253Y467784D01*
X-2713507Y467344D01*
X-2725407Y448922D01*
X-2725701Y448510D01*
X-2739374Y431363D01*
X-2739710Y430982D01*
X-2755026Y415279D01*
X-2755397Y414936D01*
X-2772196Y400839D01*
X-2772600Y400535D01*
X-2790720Y388180D01*
X-2791152Y387916D01*
X-2810416Y377426D01*
X-2810873Y377205D01*
X-2831081Y368686D01*
X-2831558Y368513D01*
X-2852516Y362049D01*
X-2853006Y361924D01*
X-2874505Y357578D01*
X-2875005Y357502D01*
X-2896829Y355320D01*
X-2897334Y355295D01*
G37*
G36*
X-3128299Y775020D02*
G01*
X-3128797Y775045D01*
X-3129290Y775116D01*
X-3129775Y775238D01*
X-3130242Y775406D01*
X-3130694Y775619D01*
X-3131121Y775876D01*
X-3131522Y776173D01*
X-3131891Y776508D01*
X-3132226Y776876D01*
X-3132523Y777278D01*
X-3132780Y777707D01*
X-3132993Y778156D01*
X-3133161Y778626D01*
X-3133283Y779109D01*
X-3133354Y779602D01*
X-3133379Y780102D01*
X-3133310Y1025585D01*
X-3133295Y1025961D01*
X-3131657Y1047833D01*
X-3131596Y1048336D01*
X-3127786Y1069934D01*
X-3127672Y1070429D01*
X-3121733Y1091542D01*
X-3121573Y1092022D01*
X-3113559Y1112438D01*
X-3113351Y1112898D01*
X-3103346Y1132415D01*
X-3103092Y1132855D01*
X-3091192Y1151277D01*
X-3090898Y1151689D01*
X-3077225Y1168836D01*
X-3076889Y1169217D01*
X-3061573Y1184920D01*
X-3061202Y1185263D01*
X-3044403Y1199360D01*
X-3043999Y1199664D01*
X-3025879Y1212019D01*
X-3025447Y1212283D01*
X-3006183Y1222773D01*
X-3005726Y1222994D01*
X-2985518Y1231513D01*
X-2985041Y1231686D01*
X-2964083Y1238150D01*
X-2963593Y1238275D01*
X-2942094Y1242621D01*
X-2941594Y1242697D01*
X-2919770Y1244879D01*
X-2919265Y1244904D01*
X-2897334Y1244904D01*
X-2896829Y1244879D01*
X-2875005Y1242697D01*
X-2874505Y1242621D01*
X-2853006Y1238275D01*
X-2852516Y1238150D01*
X-2831558Y1231686D01*
X-2831081Y1231513D01*
X-2810873Y1222994D01*
X-2810416Y1222773D01*
X-2791152Y1212283D01*
X-2790720Y1212019D01*
X-2772600Y1199664D01*
X-2772196Y1199360D01*
X-2755397Y1185263D01*
X-2755026Y1184920D01*
X-2739710Y1169217D01*
X-2739374Y1168836D01*
X-2725701Y1151689D01*
X-2725407Y1151277D01*
X-2713507Y1132855D01*
X-2713253Y1132415D01*
X-2703248Y1112898D01*
X-2703040Y1112438D01*
X-2695026Y1092022D01*
X-2694866Y1091542D01*
X-2688927Y1070429D01*
X-2688813Y1069934D01*
X-2685003Y1048336D01*
X-2684942Y1047833D01*
X-2683304Y1025961D01*
X-2683289Y1025585D01*
X-2683220Y780102D01*
X-2683245Y779602D01*
X-2683316Y779109D01*
X-2683438Y778626D01*
X-2683606Y778156D01*
X-2683819Y777707D01*
X-2684076Y777278D01*
X-2684373Y776876D01*
X-2684708Y776508D01*
X-2685077Y776173D01*
X-2685478Y775876D01*
X-2685905Y775619D01*
X-2686357Y775406D01*
X-2686824Y775238D01*
X-2687309Y775116D01*
X-2687802Y775045D01*
X-2688300Y775020D01*
G37*
G36*
X-3688402Y-212379D02*
G01*
X-3933885Y-212310D01*
X-3934261Y-212295D01*
X-3956133Y-210657D01*
X-3956636Y-210596D01*
X-3978234Y-206786D01*
X-3978729Y-206672D01*
X-3999842Y-200733D01*
X-4000322Y-200573D01*
X-4020738Y-192559D01*
X-4021198Y-192351D01*
X-4040715Y-182346D01*
X-4041155Y-182092D01*
X-4059577Y-170192D01*
X-4059989Y-169898D01*
X-4077136Y-156225D01*
X-4077517Y-155889D01*
X-4093220Y-140573D01*
X-4093563Y-140202D01*
X-4107660Y-123403D01*
X-4107964Y-122999D01*
X-4120319Y-104879D01*
X-4120583Y-104447D01*
X-4131073Y-85183D01*
X-4131294Y-84726D01*
X-4139813Y-64518D01*
X-4139986Y-64041D01*
X-4146450Y-43083D01*
X-4146575Y-42593D01*
X-4150921Y-21094D01*
X-4150997Y-20594D01*
X-4153179Y1229D01*
X-4153204Y1734D01*
X-4153204Y23665D01*
X-4153179Y24170D01*
X-4150997Y45994D01*
X-4150921Y46494D01*
X-4146575Y67993D01*
X-4146450Y68483D01*
X-4139986Y89441D01*
X-4139813Y89918D01*
X-4131294Y110126D01*
X-4131073Y110583D01*
X-4120583Y129847D01*
X-4120319Y130279D01*
X-4107964Y148399D01*
X-4107660Y148803D01*
X-4093563Y165602D01*
X-4093220Y165973D01*
X-4077517Y181289D01*
X-4077136Y181625D01*
X-4059989Y195298D01*
X-4059577Y195592D01*
X-4041155Y207492D01*
X-4040715Y207746D01*
X-4021198Y217751D01*
X-4020738Y217959D01*
X-4000322Y225973D01*
X-3999842Y226133D01*
X-3978729Y232072D01*
X-3978234Y232186D01*
X-3956636Y235996D01*
X-3956133Y236057D01*
X-3934261Y237695D01*
X-3933885Y237710D01*
X-3688402Y237779D01*
X-3687902Y237754D01*
X-3687409Y237683D01*
X-3686926Y237561D01*
X-3686456Y237393D01*
X-3686007Y237180D01*
X-3685578Y236923D01*
X-3685176Y236626D01*
X-3684808Y236291D01*
X-3684473Y235922D01*
X-3684176Y235521D01*
X-3683919Y235094D01*
X-3683706Y234642D01*
X-3683538Y234175D01*
X-3683416Y233690D01*
X-3683345Y233197D01*
X-3683320Y232699D01*
X-3683320Y-207299D01*
X-3683345Y-207797D01*
X-3683416Y-208290D01*
X-3683538Y-208775D01*
X-3683706Y-209242D01*
X-3683919Y-209694D01*
X-3684176Y-210121D01*
X-3684473Y-210522D01*
X-3684808Y-210891D01*
X-3685176Y-211226D01*
X-3685578Y-211523D01*
X-3686007Y-211780D01*
X-3686456Y-211993D01*
X-3686926Y-212161D01*
X-3687409Y-212283D01*
X-3687902Y-212354D01*
G37*
G36*
X-3728397Y-212379D02*
G01*
X-3728897Y-212354D01*
X-3729390Y-212283D01*
X-3729873Y-212161D01*
X-3730343Y-211993D01*
X-3730792Y-211780D01*
X-3731221Y-211523D01*
X-3731623Y-211226D01*
X-3731991Y-210891D01*
X-3732326Y-210522D01*
X-3732623Y-210121D01*
X-3732880Y-209694D01*
X-3733093Y-209242D01*
X-3733261Y-208775D01*
X-3733383Y-208290D01*
X-3733454Y-207797D01*
X-3733479Y-207299D01*
X-3733479Y232699D01*
X-3733454Y233197D01*
X-3733383Y233690D01*
X-3733261Y234175D01*
X-3733093Y234642D01*
X-3732880Y235094D01*
X-3732623Y235521D01*
X-3732326Y235922D01*
X-3731991Y236291D01*
X-3731623Y236626D01*
X-3731221Y236923D01*
X-3730792Y237180D01*
X-3730343Y237393D01*
X-3729873Y237561D01*
X-3729390Y237683D01*
X-3728897Y237754D01*
X-3728397Y237779D01*
X-3482914Y237710D01*
X-3482538Y237695D01*
X-3460666Y236057D01*
X-3460163Y235996D01*
X-3438565Y232186D01*
X-3438070Y232072D01*
X-3416957Y226133D01*
X-3416477Y225973D01*
X-3396061Y217959D01*
X-3395601Y217751D01*
X-3376084Y207746D01*
X-3375644Y207492D01*
X-3357222Y195592D01*
X-3356810Y195298D01*
X-3339663Y181625D01*
X-3339282Y181289D01*
X-3323579Y165973D01*
X-3323236Y165602D01*
X-3309139Y148803D01*
X-3308835Y148399D01*
X-3296480Y130279D01*
X-3296216Y129847D01*
X-3285726Y110583D01*
X-3285505Y110126D01*
X-3276986Y89918D01*
X-3276813Y89441D01*
X-3270349Y68483D01*
X-3270224Y67993D01*
X-3265878Y46494D01*
X-3265802Y45994D01*
X-3263620Y24170D01*
X-3263595Y23665D01*
X-3263595Y1734D01*
X-3263620Y1229D01*
X-3265802Y-20594D01*
X-3265878Y-21094D01*
X-3270224Y-42593D01*
X-3270349Y-43083D01*
X-3276813Y-64041D01*
X-3276986Y-64518D01*
X-3285505Y-84726D01*
X-3285726Y-85183D01*
X-3296216Y-104447D01*
X-3296480Y-104879D01*
X-3308835Y-122999D01*
X-3309139Y-123403D01*
X-3323236Y-140202D01*
X-3323579Y-140573D01*
X-3339282Y-155889D01*
X-3339663Y-156225D01*
X-3356810Y-169898D01*
X-3357222Y-170192D01*
X-3375644Y-182092D01*
X-3376084Y-182346D01*
X-3395601Y-192351D01*
X-3396061Y-192559D01*
X-3416477Y-200573D01*
X-3416957Y-200733D01*
X-3438070Y-206672D01*
X-3438565Y-206786D01*
X-3460163Y-210596D01*
X-3460666Y-210657D01*
X-3482538Y-212295D01*
X-3482914Y-212310D01*
G37*
G36*
X-2919265Y-1244904D02*
G01*
X-2919770Y-1244879D01*
X-2941594Y-1242697D01*
X-2942094Y-1242621D01*
X-2963593Y-1238275D01*
X-2964083Y-1238150D01*
X-2985041Y-1231686D01*
X-2985518Y-1231513D01*
X-3005726Y-1222994D01*
X-3006183Y-1222773D01*
X-3025447Y-1212283D01*
X-3025879Y-1212019D01*
X-3043999Y-1199664D01*
X-3044403Y-1199360D01*
X-3061202Y-1185263D01*
X-3061573Y-1184920D01*
X-3076889Y-1169217D01*
X-3077225Y-1168836D01*
X-3090898Y-1151689D01*
X-3091192Y-1151277D01*
X-3103092Y-1132855D01*
X-3103346Y-1132415D01*
X-3113351Y-1112898D01*
X-3113559Y-1112438D01*
X-3121573Y-1092022D01*
X-3121733Y-1091542D01*
X-3127672Y-1070429D01*
X-3127786Y-1069934D01*
X-3131596Y-1048336D01*
X-3131657Y-1047833D01*
X-3133295Y-1025961D01*
X-3133310Y-1025585D01*
X-3133379Y-780102D01*
X-3133354Y-779602D01*
X-3133283Y-779109D01*
X-3133161Y-778626D01*
X-3132993Y-778156D01*
X-3132780Y-777707D01*
X-3132523Y-777278D01*
X-3132226Y-776876D01*
X-3131891Y-776508D01*
X-3131522Y-776173D01*
X-3131121Y-775876D01*
X-3130694Y-775619D01*
X-3130242Y-775406D01*
X-3129775Y-775238D01*
X-3129290Y-775116D01*
X-3128797Y-775045D01*
X-3128299Y-775020D01*
X-2688300Y-775020D01*
X-2687802Y-775045D01*
X-2687309Y-775116D01*
X-2686824Y-775238D01*
X-2686357Y-775406D01*
X-2685905Y-775619D01*
X-2685478Y-775876D01*
X-2685077Y-776173D01*
X-2684708Y-776508D01*
X-2684373Y-776876D01*
X-2684076Y-777278D01*
X-2683819Y-777707D01*
X-2683606Y-778156D01*
X-2683438Y-778626D01*
X-2683316Y-779109D01*
X-2683245Y-779602D01*
X-2683220Y-780102D01*
X-2683289Y-1025585D01*
X-2683304Y-1025961D01*
X-2684942Y-1047833D01*
X-2685003Y-1048336D01*
X-2688813Y-1069934D01*
X-2688927Y-1070429D01*
X-2694866Y-1091542D01*
X-2695026Y-1092022D01*
X-2703040Y-1112438D01*
X-2703248Y-1112898D01*
X-2713253Y-1132415D01*
X-2713507Y-1132855D01*
X-2725407Y-1151277D01*
X-2725701Y-1151689D01*
X-2739374Y-1168836D01*
X-2739710Y-1169217D01*
X-2755026Y-1184920D01*
X-2755397Y-1185263D01*
X-2772196Y-1199360D01*
X-2772600Y-1199664D01*
X-2790720Y-1212019D01*
X-2791152Y-1212283D01*
X-2810416Y-1222773D01*
X-2810873Y-1222994D01*
X-2831081Y-1231513D01*
X-2831558Y-1231686D01*
X-2852516Y-1238150D01*
X-2853006Y-1238275D01*
X-2874505Y-1242621D01*
X-2875005Y-1242697D01*
X-2896829Y-1244879D01*
X-2897334Y-1244904D01*
G37*
G36*
X-3128299Y-825179D02*
G01*
X-3128797Y-825154D01*
X-3129290Y-825083D01*
X-3129775Y-824961D01*
X-3130242Y-824793D01*
X-3130694Y-824580D01*
X-3131121Y-824323D01*
X-3131522Y-824026D01*
X-3131891Y-823691D01*
X-3132226Y-823323D01*
X-3132523Y-822921D01*
X-3132780Y-822492D01*
X-3132993Y-822043D01*
X-3133161Y-821573D01*
X-3133283Y-821090D01*
X-3133354Y-820597D01*
X-3133379Y-820097D01*
X-3133310Y-574614D01*
X-3133295Y-574238D01*
X-3131657Y-552366D01*
X-3131596Y-551863D01*
X-3127786Y-530265D01*
X-3127672Y-529770D01*
X-3121733Y-508657D01*
X-3121573Y-508177D01*
X-3113559Y-487761D01*
X-3113351Y-487301D01*
X-3103346Y-467784D01*
X-3103092Y-467344D01*
X-3091192Y-448922D01*
X-3090898Y-448510D01*
X-3077225Y-431363D01*
X-3076889Y-430982D01*
X-3061573Y-415279D01*
X-3061202Y-414936D01*
X-3044403Y-400839D01*
X-3043999Y-400535D01*
X-3025879Y-388180D01*
X-3025447Y-387916D01*
X-3006183Y-377426D01*
X-3005726Y-377205D01*
X-2985518Y-368686D01*
X-2985041Y-368513D01*
X-2964083Y-362049D01*
X-2963593Y-361924D01*
X-2942094Y-357578D01*
X-2941594Y-357502D01*
X-2919770Y-355320D01*
X-2919265Y-355295D01*
X-2897334Y-355295D01*
X-2896829Y-355320D01*
X-2875005Y-357502D01*
X-2874505Y-357578D01*
X-2853006Y-361924D01*
X-2852516Y-362049D01*
X-2831558Y-368513D01*
X-2831081Y-368686D01*
X-2810873Y-377205D01*
X-2810416Y-377426D01*
X-2791152Y-387916D01*
X-2790720Y-388180D01*
X-2772600Y-400535D01*
X-2772196Y-400839D01*
X-2755397Y-414936D01*
X-2755026Y-415279D01*
X-2739710Y-430982D01*
X-2739374Y-431363D01*
X-2725701Y-448510D01*
X-2725407Y-448922D01*
X-2713507Y-467344D01*
X-2713253Y-467784D01*
X-2703248Y-487301D01*
X-2703040Y-487761D01*
X-2695026Y-508177D01*
X-2694866Y-508657D01*
X-2688927Y-529770D01*
X-2688813Y-530265D01*
X-2685003Y-551863D01*
X-2684942Y-552366D01*
X-2683304Y-574238D01*
X-2683289Y-574614D01*
X-2683220Y-820097D01*
X-2683245Y-820597D01*
X-2683316Y-821090D01*
X-2683438Y-821573D01*
X-2683606Y-822043D01*
X-2683819Y-822492D01*
X-2684076Y-822921D01*
X-2684373Y-823323D01*
X-2684708Y-823691D01*
X-2685077Y-824026D01*
X-2685478Y-824323D01*
X-2685905Y-824580D01*
X-2686357Y-824793D01*
X-2686824Y-824961D01*
X-2687309Y-825083D01*
X-2687802Y-825154D01*
X-2688300Y-825179D01*
G37*
G36*
X2328953Y878009D02*
G01*
X2328456Y878044D01*
X2327965Y878131D01*
X2327485Y878265D01*
X2327020Y878446D01*
X2102789Y978354D01*
X2102449Y978522D01*
X2083135Y988915D01*
X2082700Y989177D01*
X2064519Y1001443D01*
X2064115Y1001745D01*
X2047242Y1015756D01*
X2046869Y1016099D01*
X2031476Y1031725D01*
X2031141Y1032103D01*
X2017382Y1049182D01*
X2017082Y1049594D01*
X2005093Y1067958D01*
X2004839Y1068395D01*
X1994735Y1087859D01*
X1994524Y1088318D01*
X1986409Y1108697D01*
X1986244Y1109177D01*
X1980199Y1130259D01*
X1980084Y1130752D01*
X1976168Y1152329D01*
X1976102Y1152832D01*
X1974354Y1174699D01*
X1974339Y1175204D01*
X1974776Y1197129D01*
X1974811Y1197635D01*
X1977430Y1219410D01*
X1977516Y1219908D01*
X1982289Y1241315D01*
X1982424Y1241805D01*
X1989307Y1262628D01*
X1989490Y1263098D01*
X1998411Y1283134D01*
X1998639Y1283586D01*
X2009508Y1302636D01*
X2009780Y1303063D01*
X2022495Y1320934D01*
X2022810Y1321333D01*
X2037240Y1337851D01*
X2037590Y1338214D01*
X2053592Y1353210D01*
X2053981Y1353538D01*
X2071400Y1366867D01*
X2071817Y1367154D01*
X2090473Y1378684D01*
X2090915Y1378930D01*
X2110625Y1388544D01*
X2111093Y1388742D01*
X2131667Y1396347D01*
X2132149Y1396499D01*
X2153376Y1402016D01*
X2153871Y1402118D01*
X2175543Y1405496D01*
X2176045Y1405549D01*
X2197943Y1406751D01*
X2198451Y1406753D01*
X2220363Y1405770D01*
X2220866Y1405722D01*
X2242568Y1402560D01*
X2243066Y1402463D01*
X2264346Y1397160D01*
X2264831Y1397012D01*
X2285479Y1389611D01*
X2285829Y1389468D01*
X2510116Y1289685D01*
X2510561Y1289461D01*
X2510983Y1289194D01*
X2511374Y1288887D01*
X2511734Y1288542D01*
X2512059Y1288163D01*
X2512347Y1287757D01*
X2512593Y1287322D01*
X2512794Y1286865D01*
X2512949Y1286393D01*
X2513058Y1285905D01*
X2513119Y1285410D01*
X2513129Y1284912D01*
X2513093Y1284414D01*
X2513007Y1283924D01*
X2512872Y1283444D01*
X2512692Y1282979D01*
X2333729Y881021D01*
X2333505Y880574D01*
X2333236Y880155D01*
X2332929Y879762D01*
X2332586Y879401D01*
X2332207Y879076D01*
X2331798Y878789D01*
X2331364Y878545D01*
X2330907Y878344D01*
X2330434Y878187D01*
X2329947Y878080D01*
X2329451Y878019D01*
G37*
G36*
X2602148Y777646D02*
G01*
X2580236Y778629D01*
X2579733Y778677D01*
X2558031Y781839D01*
X2557533Y781936D01*
X2536253Y787239D01*
X2535768Y787387D01*
X2515120Y794788D01*
X2514770Y794931D01*
X2290483Y894714D01*
X2290038Y894938D01*
X2289616Y895205D01*
X2289225Y895512D01*
X2288865Y895857D01*
X2288540Y896236D01*
X2288252Y896642D01*
X2288006Y897077D01*
X2287805Y897534D01*
X2287650Y898006D01*
X2287541Y898494D01*
X2287480Y898989D01*
X2287470Y899487D01*
X2287506Y899985D01*
X2287592Y900475D01*
X2287727Y900955D01*
X2287907Y901420D01*
X2466870Y1303378D01*
X2467094Y1303825D01*
X2467363Y1304244D01*
X2467670Y1304637D01*
X2468013Y1304998D01*
X2468392Y1305323D01*
X2468801Y1305610D01*
X2469235Y1305854D01*
X2469692Y1306055D01*
X2470165Y1306212D01*
X2470652Y1306319D01*
X2471148Y1306380D01*
X2471646Y1306390D01*
X2472143Y1306355D01*
X2472634Y1306268D01*
X2473114Y1306134D01*
X2473579Y1305953D01*
X2697810Y1206045D01*
X2698150Y1205877D01*
X2717464Y1195484D01*
X2717899Y1195222D01*
X2736080Y1182956D01*
X2736484Y1182654D01*
X2753357Y1168643D01*
X2753730Y1168300D01*
X2769123Y1152674D01*
X2769458Y1152296D01*
X2783217Y1135217D01*
X2783517Y1134805D01*
X2795506Y1116441D01*
X2795760Y1116004D01*
X2805864Y1096540D01*
X2806075Y1096081D01*
X2814190Y1075702D01*
X2814355Y1075222D01*
X2820400Y1054140D01*
X2820515Y1053647D01*
X2824431Y1032070D01*
X2824497Y1031567D01*
X2826245Y1009700D01*
X2826260Y1009195D01*
X2825823Y987270D01*
X2825788Y986764D01*
X2823169Y964989D01*
X2823083Y964491D01*
X2818310Y943084D01*
X2818175Y942594D01*
X2811292Y921771D01*
X2811109Y921301D01*
X2802188Y901265D01*
X2801960Y900813D01*
X2791091Y881763D01*
X2790819Y881336D01*
X2778104Y863465D01*
X2777789Y863066D01*
X2763359Y846548D01*
X2763009Y846185D01*
X2747007Y831189D01*
X2746618Y830861D01*
X2729199Y817532D01*
X2728782Y817245D01*
X2710126Y805715D01*
X2709684Y805469D01*
X2689974Y795855D01*
X2689506Y795657D01*
X2668932Y788052D01*
X2668450Y787900D01*
X2647223Y782383D01*
X2646728Y782281D01*
X2625056Y778903D01*
X2624554Y778850D01*
X2602656Y777648D01*
G37*
G36*
X2906928Y-1205989D02*
G01*
X2884992Y-1205715D01*
X2884487Y-1205682D01*
X2862694Y-1203225D01*
X2862193Y-1203144D01*
X2840753Y-1198532D01*
X2840266Y-1198402D01*
X2819389Y-1191676D01*
X2818914Y-1191496D01*
X2798813Y-1182725D01*
X2798361Y-1182499D01*
X2779232Y-1171770D01*
X2778803Y-1171501D01*
X2760837Y-1158923D01*
X2760436Y-1158613D01*
X2743812Y-1144305D01*
X2743535Y-1144049D01*
X2569903Y-970516D01*
X2569568Y-970145D01*
X2569270Y-969746D01*
X2569014Y-969317D01*
X2568801Y-968867D01*
X2568633Y-968397D01*
X2568511Y-967915D01*
X2568440Y-967419D01*
X2568414Y-966922D01*
X2568440Y-966424D01*
X2568511Y-965931D01*
X2568633Y-965448D01*
X2568801Y-964979D01*
X2569014Y-964526D01*
X2569270Y-964100D01*
X2569568Y-963698D01*
X2569903Y-963330D01*
X2881030Y-652203D01*
X2881398Y-651868D01*
X2881800Y-651570D01*
X2882226Y-651314D01*
X2882679Y-651101D01*
X2883148Y-650933D01*
X2883631Y-650811D01*
X2884124Y-650740D01*
X2884622Y-650714D01*
X2885119Y-650740D01*
X2885615Y-650811D01*
X2886097Y-650933D01*
X2886567Y-651101D01*
X2887017Y-651314D01*
X2887446Y-651570D01*
X2887845Y-651868D01*
X2888216Y-652203D01*
X3061749Y-825835D01*
X3062005Y-826112D01*
X3076313Y-842736D01*
X3076623Y-843137D01*
X3089201Y-861103D01*
X3089470Y-861532D01*
X3100199Y-880661D01*
X3100425Y-881113D01*
X3109196Y-901214D01*
X3109376Y-901689D01*
X3116102Y-922566D01*
X3116232Y-923053D01*
X3120844Y-944493D01*
X3120925Y-944994D01*
X3123382Y-966787D01*
X3123415Y-967292D01*
X3123689Y-989228D01*
X3123669Y-989733D01*
X3121756Y-1011580D01*
X3121687Y-1012083D01*
X3117611Y-1033632D01*
X3117491Y-1034125D01*
X3111289Y-1055164D01*
X3111124Y-1055641D01*
X3102858Y-1075954D01*
X3102643Y-1076413D01*
X3092394Y-1095804D01*
X3092135Y-1096238D01*
X3080006Y-1114513D01*
X3079706Y-1114920D01*
X3065818Y-1131895D01*
X3065477Y-1132271D01*
X3049971Y-1147777D01*
X3049595Y-1148118D01*
X3032620Y-1162006D01*
X3032213Y-1162306D01*
X3013938Y-1174435D01*
X3013504Y-1174694D01*
X2994113Y-1184943D01*
X2993654Y-1185158D01*
X2973341Y-1193424D01*
X2972864Y-1193589D01*
X2951825Y-1199791D01*
X2951332Y-1199911D01*
X2929783Y-1203987D01*
X2929280Y-1204056D01*
X2907433Y-1205969D01*
G37*
G36*
X2601777Y-1000285D02*
G01*
X2601280Y-1000259D01*
X2600784Y-1000188D01*
X2600302Y-1000066D01*
X2599832Y-999898D01*
X2599382Y-999685D01*
X2598953Y-999429D01*
X2598554Y-999131D01*
X2598183Y-998796D01*
X2424650Y-825164D01*
X2424394Y-824887D01*
X2410086Y-808263D01*
X2409776Y-807862D01*
X2397198Y-789896D01*
X2396929Y-789467D01*
X2386200Y-770338D01*
X2385974Y-769886D01*
X2377203Y-749785D01*
X2377023Y-749310D01*
X2370297Y-728433D01*
X2370167Y-727946D01*
X2365555Y-706506D01*
X2365474Y-706005D01*
X2363017Y-684212D01*
X2362984Y-683707D01*
X2362710Y-661771D01*
X2362730Y-661266D01*
X2364643Y-639419D01*
X2364712Y-638916D01*
X2368788Y-617367D01*
X2368908Y-616874D01*
X2375110Y-595835D01*
X2375275Y-595358D01*
X2383541Y-575045D01*
X2383756Y-574586D01*
X2394005Y-555195D01*
X2394264Y-554761D01*
X2406393Y-536486D01*
X2406693Y-536079D01*
X2420581Y-519104D01*
X2420922Y-518728D01*
X2436428Y-503222D01*
X2436804Y-502881D01*
X2453779Y-488993D01*
X2454186Y-488693D01*
X2472461Y-476564D01*
X2472895Y-476305D01*
X2492286Y-466056D01*
X2492745Y-465841D01*
X2513058Y-457575D01*
X2513535Y-457410D01*
X2534574Y-451208D01*
X2535067Y-451088D01*
X2556616Y-447012D01*
X2557119Y-446943D01*
X2578966Y-445030D01*
X2579471Y-445010D01*
X2601407Y-445284D01*
X2601912Y-445317D01*
X2623705Y-447774D01*
X2624206Y-447855D01*
X2645646Y-452467D01*
X2646133Y-452597D01*
X2667010Y-459323D01*
X2667485Y-459503D01*
X2687586Y-468274D01*
X2688038Y-468500D01*
X2707167Y-479229D01*
X2707596Y-479498D01*
X2725562Y-492076D01*
X2725963Y-492386D01*
X2742587Y-506694D01*
X2742864Y-506950D01*
X2916496Y-680483D01*
X2916831Y-680854D01*
X2917129Y-681253D01*
X2917385Y-681682D01*
X2917598Y-682132D01*
X2917766Y-682602D01*
X2917888Y-683084D01*
X2917959Y-683580D01*
X2917985Y-684077D01*
X2917959Y-684575D01*
X2917888Y-685068D01*
X2917766Y-685551D01*
X2917598Y-686020D01*
X2917385Y-686473D01*
X2917129Y-686899D01*
X2916831Y-687301D01*
X2916496Y-687669D01*
X2605369Y-998796D01*
X2605001Y-999131D01*
X2604599Y-999429D01*
X2604173Y-999685D01*
X2603720Y-999898D01*
X2603251Y-1000066D01*
X2602768Y-1000188D01*
X2602275Y-1000259D01*
G37*
G36*
X4539985Y-305099D02*
G01*
X4125033Y-304726D01*
X4124530Y-304700D01*
X4094772Y-301724D01*
X4094269Y-301647D01*
X4064952Y-295722D01*
X4064459Y-295597D01*
X4035882Y-286781D01*
X4035404Y-286605D01*
X4007845Y-274988D01*
X4007388Y-274767D01*
X3981122Y-260464D01*
X3980688Y-260200D01*
X3955978Y-243352D01*
X3955572Y-243044D01*
X3932661Y-223822D01*
X3932290Y-223476D01*
X3911406Y-202067D01*
X3911069Y-201686D01*
X3892422Y-178302D01*
X3892125Y-177888D01*
X3875900Y-152765D01*
X3875646Y-152326D01*
X3862001Y-125712D01*
X3861793Y-125249D01*
X3850866Y-97409D01*
X3850703Y-96926D01*
X3842603Y-68138D01*
X3842489Y-67642D01*
X3837297Y-38188D01*
X3837236Y-37683D01*
X3835001Y-7861D01*
X3834988Y-7353D01*
X3835732Y22545D01*
X3835770Y23053D01*
X3839489Y52730D01*
X3839575Y53230D01*
X3846230Y82387D01*
X3846370Y82877D01*
X3855897Y111226D01*
X3856083Y111699D01*
X3868381Y138960D01*
X3868613Y139412D01*
X3883568Y165313D01*
X3883845Y165740D01*
X3901302Y190022D01*
X3901617Y190421D01*
X3921406Y212846D01*
X3921762Y213210D01*
X3943685Y233553D01*
X3944076Y233880D01*
X3967916Y251937D01*
X3968335Y252221D01*
X3993855Y267817D01*
X3994302Y268061D01*
X4021249Y281038D01*
X4021716Y281236D01*
X4049819Y291464D01*
X4050306Y291614D01*
X4079290Y298993D01*
X4079788Y299095D01*
X4109361Y303552D01*
X4109867Y303603D01*
X4139737Y305094D01*
X4139991Y305099D01*
X4539990Y305099D01*
X4540491Y305074D01*
X4540986Y305000D01*
X4541471Y304881D01*
X4541941Y304711D01*
X4542396Y304497D01*
X4542825Y304241D01*
X4543226Y303941D01*
X4543597Y303606D01*
X4543933Y303235D01*
X4544232Y302834D01*
X4544489Y302404D01*
X4544702Y301950D01*
X4544872Y301480D01*
X4544992Y300995D01*
X4545065Y300499D01*
X4545091Y299999D01*
X4545091Y-299999D01*
X4545065Y-300499D01*
X4544992Y-300995D01*
X4544870Y-301480D01*
X4544702Y-301952D01*
X4544489Y-302404D01*
X4544230Y-302834D01*
X4543933Y-303235D01*
X4543595Y-303608D01*
X4543224Y-303944D01*
X4542823Y-304241D01*
X4542391Y-304497D01*
X4541939Y-304713D01*
X4541466Y-304881D01*
X4540981Y-305003D01*
X4540486Y-305074D01*
G37*
G36*
X2069741Y3280244D02*
G01*
X2039871Y3281733D01*
X2039365Y3281784D01*
X2009792Y3286241D01*
X2009294Y3286343D01*
X1980311Y3293722D01*
X1979823Y3293871D01*
X1951720Y3304105D01*
X1951253Y3304303D01*
X1924309Y3317278D01*
X1923862Y3317521D01*
X1898340Y3333114D01*
X1897921Y3333399D01*
X1874078Y3351458D01*
X1873686Y3351786D01*
X1851766Y3372126D01*
X1851411Y3372490D01*
X1831621Y3394918D01*
X1831306Y3395317D01*
X1813847Y3419596D01*
X1813570Y3420023D01*
X1798619Y3445926D01*
X1798388Y3446378D01*
X1786087Y3473637D01*
X1785901Y3474110D01*
X1776376Y3502459D01*
X1776237Y3502949D01*
X1769579Y3532108D01*
X1769493Y3532609D01*
X1765774Y3562283D01*
X1765736Y3562791D01*
X1764990Y3592687D01*
X1765002Y3593195D01*
X1767240Y3623020D01*
X1767301Y3623523D01*
X1772490Y3652977D01*
X1772605Y3653475D01*
X1780710Y3682265D01*
X1780872Y3682748D01*
X1791799Y3710589D01*
X1792008Y3711051D01*
X1805650Y3737663D01*
X1805772Y3737886D01*
X2005771Y4084297D01*
X2006043Y4084718D01*
X2006353Y4085109D01*
X2006701Y4085470D01*
X2007085Y4085793D01*
X2007496Y4086077D01*
X2007933Y4086321D01*
X2008393Y4086519D01*
X2008868Y4086674D01*
X2009358Y4086778D01*
X2009856Y4086837D01*
X2010356Y4086844D01*
X2010854Y4086804D01*
X2011347Y4086715D01*
X2011827Y4086575D01*
X2012294Y4086392D01*
X2012739Y4086164D01*
X2532352Y3786164D01*
X2532773Y3785892D01*
X2533164Y3785582D01*
X2533525Y3785232D01*
X2533848Y3784851D01*
X2534132Y3784439D01*
X2534376Y3784003D01*
X2534577Y3783543D01*
X2534729Y3783065D01*
X2534833Y3782575D01*
X2534892Y3782077D01*
X2534899Y3781577D01*
X2534859Y3781079D01*
X2534767Y3780586D01*
X2534630Y3780104D01*
X2534445Y3779639D01*
X2534216Y3779192D01*
X2326416Y3420018D01*
X2326142Y3419596D01*
X2308684Y3395314D01*
X2308369Y3394915D01*
X2288580Y3372490D01*
X2288225Y3372126D01*
X2266302Y3351786D01*
X2265911Y3351458D01*
X2242070Y3333402D01*
X2241651Y3333117D01*
X2216129Y3317519D01*
X2215682Y3317275D01*
X2188738Y3304303D01*
X2188270Y3304105D01*
X2160168Y3293874D01*
X2159683Y3293724D01*
X2130699Y3286340D01*
X2130198Y3286239D01*
X2100625Y3281784D01*
X2100120Y3281733D01*
X2070249Y3280244D01*
G37*
G36*
X3577983Y1764992D02*
G01*
X3577475Y1765005D01*
X3547653Y1767240D01*
X3547148Y1767301D01*
X3517696Y1772493D01*
X3517201Y1772607D01*
X3488410Y1780707D01*
X3487927Y1780870D01*
X3460087Y1791797D01*
X3459624Y1792005D01*
X3433010Y1805650D01*
X3432571Y1805904D01*
X3407448Y1822129D01*
X3407034Y1822427D01*
X3383653Y1841075D01*
X3383272Y1841413D01*
X3361862Y1862294D01*
X3361517Y1862665D01*
X3342292Y1885576D01*
X3341984Y1885983D01*
X3325136Y1910692D01*
X3324872Y1911126D01*
X3310569Y1937390D01*
X3310348Y1937847D01*
X3298731Y1965408D01*
X3298555Y1965886D01*
X3289739Y1994463D01*
X3289614Y1994956D01*
X3283691Y2024270D01*
X3283615Y2024773D01*
X3280636Y2054532D01*
X3280610Y2055040D01*
X3280610Y2084948D01*
X3280636Y2085456D01*
X3283615Y2115215D01*
X3283691Y2115718D01*
X3289617Y2145035D01*
X3289741Y2145527D01*
X3298555Y2174105D01*
X3298731Y2174582D01*
X3310346Y2202141D01*
X3310567Y2202599D01*
X3324872Y2228865D01*
X3325136Y2229299D01*
X3341984Y2254011D01*
X3342292Y2254417D01*
X3361514Y2277325D01*
X3361860Y2277696D01*
X3383272Y2298580D01*
X3383653Y2298918D01*
X3407036Y2317562D01*
X3407448Y2317859D01*
X3432571Y2334087D01*
X3432789Y2334219D01*
X3779197Y2534218D01*
X3779641Y2534447D01*
X3780109Y2534630D01*
X3780589Y2534770D01*
X3781082Y2534859D01*
X3781579Y2534899D01*
X3782080Y2534892D01*
X3782578Y2534833D01*
X3783068Y2534729D01*
X3783543Y2534574D01*
X3784003Y2534376D01*
X3784439Y2534132D01*
X3784851Y2533848D01*
X3785234Y2533525D01*
X3785582Y2533164D01*
X3785892Y2532773D01*
X3786164Y2532352D01*
X4086164Y2012736D01*
X4086392Y2012292D01*
X4086578Y2011824D01*
X4086715Y2011344D01*
X4086804Y2010851D01*
X4086844Y2010351D01*
X4086837Y2009851D01*
X4086778Y2009353D01*
X4086672Y2008863D01*
X4086519Y2008388D01*
X4086318Y2007928D01*
X4086077Y2007491D01*
X4085790Y2007080D01*
X4085468Y2006696D01*
X4085107Y2006348D01*
X4084713Y2006038D01*
X4084292Y2005766D01*
X3724744Y1798614D01*
X3724297Y1798386D01*
X3697038Y1786084D01*
X3696563Y1785899D01*
X3668212Y1776374D01*
X3667724Y1776234D01*
X3638567Y1769579D01*
X3638067Y1769493D01*
X3608392Y1765774D01*
X3607884Y1765736D01*
G37*
G36*
X-1880024Y3383666D02*
G01*
X-1880532Y3383668D01*
X-1910397Y3385235D01*
X-1910902Y3385286D01*
X-1940466Y3389817D01*
X-1940963Y3389919D01*
X-1969930Y3397369D01*
X-1970415Y3397521D01*
X-1998492Y3407818D01*
X-1998962Y3408017D01*
X-2025873Y3421062D01*
X-2026318Y3421306D01*
X-2051799Y3436965D01*
X-2052218Y3437252D01*
X-2076015Y3455370D01*
X-2076404Y3455697D01*
X-2098276Y3476091D01*
X-2098631Y3476457D01*
X-2118365Y3498933D01*
X-2118680Y3499332D01*
X-2136076Y3523658D01*
X-2136350Y3524084D01*
X-2151240Y3550020D01*
X-2151362Y3550244D01*
X-2332956Y3906646D01*
X-2333162Y3907104D01*
X-2333322Y3907579D01*
X-2333434Y3908066D01*
X-2333497Y3908562D01*
X-2333513Y3909062D01*
X-2333477Y3909562D01*
X-2333393Y3910055D01*
X-2333264Y3910540D01*
X-2333086Y3911008D01*
X-2332862Y3911455D01*
X-2332596Y3911879D01*
X-2332291Y3912275D01*
X-2331948Y3912638D01*
X-2331570Y3912969D01*
X-2331163Y3913258D01*
X-2330729Y3913507D01*
X-1796127Y4185902D01*
X-1795670Y4186107D01*
X-1795195Y4186267D01*
X-1794708Y4186379D01*
X-1794210Y4186443D01*
X-1793709Y4186458D01*
X-1793209Y4186422D01*
X-1792716Y4186339D01*
X-1792234Y4186207D01*
X-1791764Y4186029D01*
X-1791317Y4185805D01*
X-1790893Y4185541D01*
X-1790496Y4185234D01*
X-1790133Y4184891D01*
X-1789803Y4184512D01*
X-1789513Y4184103D01*
X-1789264Y4183669D01*
X-1601213Y3813776D01*
X-1601007Y3813317D01*
X-1590151Y3785448D01*
X-1589991Y3784965D01*
X-1581960Y3756154D01*
X-1581848Y3755659D01*
X-1576727Y3726195D01*
X-1576664Y3725689D01*
X-1574507Y3695860D01*
X-1574497Y3695352D01*
X-1575315Y3665453D01*
X-1575353Y3664945D01*
X-1579148Y3635281D01*
X-1579237Y3634780D01*
X-1585963Y3605641D01*
X-1586103Y3605154D01*
X-1595696Y3576825D01*
X-1595884Y3576353D01*
X-1608254Y3549121D01*
X-1608488Y3548669D01*
X-1623507Y3522809D01*
X-1623781Y3522383D01*
X-1641299Y3498141D01*
X-1641619Y3497745D01*
X-1661467Y3475370D01*
X-1661822Y3475007D01*
X-1683796Y3454717D01*
X-1684187Y3454389D01*
X-1708071Y3436393D01*
X-1708490Y3436109D01*
X-1734047Y3420579D01*
X-1734494Y3420338D01*
X-1761474Y3407427D01*
X-1761944Y3407229D01*
X-1790072Y3397069D01*
X-1790557Y3396922D01*
X-1819559Y3389614D01*
X-1820059Y3389515D01*
X-1849643Y3385134D01*
X-1850148Y3385083D01*
G37*
G36*
X-3622946Y1702020D02*
G01*
X-3623454Y1702023D01*
X-3653312Y1703735D01*
X-3653817Y1703791D01*
X-3683355Y1708472D01*
X-3683853Y1708576D01*
X-3712781Y1716171D01*
X-3713266Y1716323D01*
X-3741293Y1726765D01*
X-3741760Y1726966D01*
X-3768608Y1740143D01*
X-3768834Y1740263D01*
X-4118681Y1934187D01*
X-4119105Y1934451D01*
X-4119501Y1934753D01*
X-4119867Y1935096D01*
X-4120197Y1935472D01*
X-4120489Y1935878D01*
X-4120741Y1936313D01*
X-4120949Y1936767D01*
X-4121109Y1937242D01*
X-4121223Y1937727D01*
X-4121289Y1938225D01*
X-4121307Y1938726D01*
X-4121274Y1939223D01*
X-4121193Y1939719D01*
X-4121063Y1940201D01*
X-4120888Y1940671D01*
X-4120667Y1941118D01*
X-3829784Y2465887D01*
X-3829519Y2466314D01*
X-3829215Y2466713D01*
X-3828874Y2467079D01*
X-3828498Y2467409D01*
X-3828089Y2467701D01*
X-3827658Y2467950D01*
X-3827200Y2468158D01*
X-3826728Y2468318D01*
X-3826240Y2468432D01*
X-3825742Y2468498D01*
X-3825242Y2468516D01*
X-3824742Y2468483D01*
X-3824249Y2468402D01*
X-3823764Y2468272D01*
X-3823296Y2468097D01*
X-3822847Y2467874D01*
X-3460102Y2266373D01*
X-3459675Y2266109D01*
X-3435090Y2249078D01*
X-3434687Y2248768D01*
X-3411918Y2229373D01*
X-3411547Y2229022D01*
X-3390828Y2207458D01*
X-3390496Y2207074D01*
X-3372025Y2183551D01*
X-3371730Y2183137D01*
X-3355690Y2157895D01*
X-3355439Y2157453D01*
X-3341994Y2130737D01*
X-3341789Y2130272D01*
X-3331072Y2102352D01*
X-3330915Y2101870D01*
X-3323028Y2073020D01*
X-3322919Y2072523D01*
X-3317946Y2043031D01*
X-3317887Y2042525D01*
X-3315878Y2012685D01*
X-3315868Y2012177D01*
X-3316836Y1982287D01*
X-3316876Y1981781D01*
X-3320816Y1952132D01*
X-3320910Y1951631D01*
X-3327783Y1922526D01*
X-3327923Y1922035D01*
X-3337661Y1893757D01*
X-3337852Y1893285D01*
X-3350356Y1866120D01*
X-3350590Y1865670D01*
X-3365736Y1839879D01*
X-3366018Y1839455D01*
X-3383658Y1815304D01*
X-3383975Y1814908D01*
X-3403930Y1792632D01*
X-3404288Y1792272D01*
X-3426366Y1772097D01*
X-3426757Y1771774D01*
X-3450729Y1753890D01*
X-3451153Y1753605D01*
X-3476792Y1738205D01*
X-3477239Y1737964D01*
X-3504280Y1725190D01*
X-3504750Y1724997D01*
X-3532931Y1714977D01*
X-3533419Y1714830D01*
X-3562454Y1707667D01*
X-3562954Y1707570D01*
X-3592560Y1703334D01*
X-3593066Y1703288D01*
G37*
G36*
X3339470Y-3095353D02*
G01*
X3338969Y-3095330D01*
X3338474Y-3095261D01*
X3337986Y-3095142D01*
X3337514Y-3094977D01*
X3337062Y-3094763D01*
X3336630Y-3094509D01*
X3336226Y-3094212D01*
X3013984Y-2832783D01*
X3013608Y-2832447D01*
X2992353Y-2811406D01*
X2992010Y-2811030D01*
X2972958Y-2787977D01*
X2972655Y-2787571D01*
X2955993Y-2762735D01*
X2955729Y-2762298D01*
X2941624Y-2735925D01*
X2941408Y-2735465D01*
X2929996Y-2707820D01*
X2929826Y-2707340D01*
X2921226Y-2678696D01*
X2921104Y-2678203D01*
X2915396Y-2648846D01*
X2915325Y-2648343D01*
X2912569Y-2618562D01*
X2912546Y-2618054D01*
X2912770Y-2588148D01*
X2912800Y-2587640D01*
X2916003Y-2557904D01*
X2916082Y-2557401D01*
X2922226Y-2528133D01*
X2922356Y-2527642D01*
X2931383Y-2499128D01*
X2931561Y-2498651D01*
X2943385Y-2471181D01*
X2943608Y-2470724D01*
X2958109Y-2444567D01*
X2958376Y-2444135D01*
X2975406Y-2419553D01*
X2975716Y-2419151D01*
X2995109Y-2396383D01*
X2995460Y-2396012D01*
X3017027Y-2375288D01*
X3017410Y-2374955D01*
X3040931Y-2356485D01*
X3041345Y-2356190D01*
X3066590Y-2340155D01*
X3067032Y-2339903D01*
X3093745Y-2326457D01*
X3094212Y-2326251D01*
X3122137Y-2315535D01*
X3122620Y-2315377D01*
X3151466Y-2307493D01*
X3151962Y-2307384D01*
X3181454Y-2302410D01*
X3181959Y-2302352D01*
X3211799Y-2300338D01*
X3212307Y-2300328D01*
X3242198Y-2301298D01*
X3242706Y-2301339D01*
X3272353Y-2305278D01*
X3272850Y-2305372D01*
X3301959Y-2312245D01*
X3302449Y-2312385D01*
X3330727Y-2322121D01*
X3331199Y-2322311D01*
X3358367Y-2334818D01*
X3358817Y-2335055D01*
X3384605Y-2350201D01*
X3385030Y-2350480D01*
X3409180Y-2368120D01*
X3409383Y-2368273D01*
X3720241Y-2619999D01*
X3720614Y-2620335D01*
X3720952Y-2620703D01*
X3721252Y-2621104D01*
X3721514Y-2621531D01*
X3721729Y-2621981D01*
X3721902Y-2622453D01*
X3722027Y-2622936D01*
X3722103Y-2623431D01*
X3722131Y-2623931D01*
X3722110Y-2624432D01*
X3722039Y-2624927D01*
X3721920Y-2625412D01*
X3721755Y-2625885D01*
X3721544Y-2626339D01*
X3721290Y-2626771D01*
X3720995Y-2627175D01*
X3343404Y-3093463D01*
X3343069Y-3093836D01*
X3342700Y-3094174D01*
X3342299Y-3094474D01*
X3341872Y-3094736D01*
X3341420Y-3094951D01*
X3340950Y-3095124D01*
X3340465Y-3095249D01*
X3339970Y-3095325D01*
G37*
G36*
X1270637Y-4373897D02*
G01*
X1270139Y-4373852D01*
X1269646Y-4373755D01*
X1269166Y-4373613D01*
X1268704Y-4373422D01*
X1268260Y-4373189D01*
X1267843Y-4372914D01*
X1267454Y-4372597D01*
X1267099Y-4372246D01*
X1266779Y-4371860D01*
X1266499Y-4371444D01*
X1266261Y-4371004D01*
X1266065Y-4370542D01*
X1124493Y-3980487D01*
X1124346Y-3980004D01*
X1116967Y-3951020D01*
X1116865Y-3950522D01*
X1112405Y-3920949D01*
X1112354Y-3920444D01*
X1110866Y-3890573D01*
X1110866Y-3890065D01*
X1112357Y-3860195D01*
X1112408Y-3859690D01*
X1116865Y-3830116D01*
X1116967Y-3829616D01*
X1124348Y-3800635D01*
X1124498Y-3800149D01*
X1134724Y-3772044D01*
X1134922Y-3771577D01*
X1147899Y-3744630D01*
X1148143Y-3744183D01*
X1163739Y-3718664D01*
X1164023Y-3718245D01*
X1182080Y-3694407D01*
X1182408Y-3694015D01*
X1202750Y-3672090D01*
X1203114Y-3671735D01*
X1225539Y-3651943D01*
X1225938Y-3651628D01*
X1250221Y-3634171D01*
X1250647Y-3633894D01*
X1276548Y-3618941D01*
X1277000Y-3618710D01*
X1304259Y-3606411D01*
X1304731Y-3606225D01*
X1333080Y-3596698D01*
X1333571Y-3596558D01*
X1362730Y-3589903D01*
X1363230Y-3589817D01*
X1392905Y-3586098D01*
X1393413Y-3586060D01*
X1423311Y-3585316D01*
X1423819Y-3585329D01*
X1453644Y-3587562D01*
X1454150Y-3587625D01*
X1483603Y-3592822D01*
X1484099Y-3592934D01*
X1512887Y-3601031D01*
X1513370Y-3601194D01*
X1541211Y-3612121D01*
X1541673Y-3612329D01*
X1568287Y-3625971D01*
X1568729Y-3626225D01*
X1593852Y-3642453D01*
X1594264Y-3642751D01*
X1617647Y-3661397D01*
X1618028Y-3661735D01*
X1639437Y-3682619D01*
X1639783Y-3682989D01*
X1659006Y-3705898D01*
X1659313Y-3706304D01*
X1676161Y-3731016D01*
X1676425Y-3731450D01*
X1690728Y-3757716D01*
X1690949Y-3758173D01*
X1702567Y-3785732D01*
X1702661Y-3785969D01*
X1839468Y-4161845D01*
X1839615Y-4162323D01*
X1839716Y-4162816D01*
X1839767Y-4163313D01*
X1839770Y-4163814D01*
X1839724Y-4164312D01*
X1839628Y-4164802D01*
X1839485Y-4165282D01*
X1839297Y-4165747D01*
X1839064Y-4166189D01*
X1838787Y-4166605D01*
X1838472Y-4166994D01*
X1838121Y-4167350D01*
X1837735Y-4167670D01*
X1837321Y-4167952D01*
X1836879Y-4168190D01*
X1836420Y-4168383D01*
X1272606Y-4373595D01*
X1272125Y-4373742D01*
X1271635Y-4373844D01*
X1271137Y-4373895D01*
G37*
G36*
X-1040483Y-4434428D02*
G01*
X-1040983Y-4434403D01*
X-1041478Y-4434329D01*
X-1041963Y-4434204D01*
X-1615747Y-4258779D01*
X-1616219Y-4258609D01*
X-1616671Y-4258396D01*
X-1617101Y-4258137D01*
X-1617502Y-4257837D01*
X-1617870Y-4257499D01*
X-1618206Y-4257128D01*
X-1618503Y-4256725D01*
X-1618759Y-4256295D01*
X-1618973Y-4255841D01*
X-1619140Y-4255371D01*
X-1619262Y-4254883D01*
X-1619333Y-4254388D01*
X-1619356Y-4253887D01*
X-1619331Y-4253387D01*
X-1619255Y-4252892D01*
X-1619133Y-4252407D01*
X-1497454Y-3855694D01*
X-1497281Y-3855222D01*
X-1485734Y-3827635D01*
X-1485516Y-3827175D01*
X-1471277Y-3800873D01*
X-1471013Y-3800439D01*
X-1454226Y-3775687D01*
X-1453918Y-3775280D01*
X-1434752Y-3752321D01*
X-1434409Y-3751948D01*
X-1413052Y-3731013D01*
X-1412671Y-3730675D01*
X-1389336Y-3711971D01*
X-1388925Y-3711674D01*
X-1363842Y-3695382D01*
X-1363403Y-3695125D01*
X-1336822Y-3681415D01*
X-1336357Y-3681206D01*
X-1308547Y-3670211D01*
X-1308064Y-3670045D01*
X-1279291Y-3661877D01*
X-1278798Y-3661763D01*
X-1249359Y-3656495D01*
X-1248854Y-3656431D01*
X-1219037Y-3654122D01*
X-1218529Y-3654110D01*
X-1188631Y-3654778D01*
X-1188123Y-3654813D01*
X-1158438Y-3658463D01*
X-1157937Y-3658549D01*
X-1128763Y-3665128D01*
X-1128273Y-3665265D01*
X-1099898Y-3674722D01*
X-1099426Y-3674907D01*
X-1072131Y-3687137D01*
X-1071676Y-3687368D01*
X-1045743Y-3702258D01*
X-1045316Y-3702532D01*
X-1020991Y-3719934D01*
X-1020592Y-3720249D01*
X-998115Y-3739977D01*
X-997750Y-3740332D01*
X-977353Y-3762209D01*
X-977026Y-3762595D01*
X-958908Y-3786388D01*
X-958621Y-3786809D01*
X-942962Y-3812291D01*
X-942718Y-3812735D01*
X-929673Y-3839649D01*
X-929474Y-3840119D01*
X-919177Y-3868196D01*
X-919025Y-3868681D01*
X-911572Y-3897645D01*
X-911471Y-3898143D01*
X-906940Y-3927708D01*
X-906889Y-3928214D01*
X-905324Y-3958079D01*
X-905322Y-3958587D01*
X-906739Y-3988460D01*
X-906790Y-3988965D01*
X-911174Y-4018549D01*
X-911273Y-4019049D01*
X-918580Y-4048051D01*
X-918649Y-4048295D01*
X-1035596Y-4430819D01*
X-1035766Y-4431289D01*
X-1035979Y-4431741D01*
X-1036238Y-4432170D01*
X-1036538Y-4432571D01*
X-1036873Y-4432942D01*
X-1037247Y-4433277D01*
X-1037648Y-4433575D01*
X-1038077Y-4433831D01*
X-1038532Y-4434044D01*
X-1039002Y-4434212D01*
X-1039489Y-4434331D01*
X-1039985Y-4434405D01*
G37*
G36*
X-3339472Y-3095350D02*
G01*
X-3339972Y-3095322D01*
X-3340468Y-3095246D01*
X-3340950Y-3095122D01*
X-3341423Y-3094949D01*
X-3341872Y-3094733D01*
X-3342299Y-3094471D01*
X-3342700Y-3094172D01*
X-3343069Y-3093834D01*
X-3343404Y-3093460D01*
X-3720995Y-2627177D01*
X-3721290Y-2626774D01*
X-3721544Y-2626342D01*
X-3721755Y-2625887D01*
X-3721920Y-2625415D01*
X-3722039Y-2624927D01*
X-3722110Y-2624432D01*
X-3722131Y-2623931D01*
X-3722103Y-2623431D01*
X-3722027Y-2622936D01*
X-3721900Y-2622450D01*
X-3721729Y-2621981D01*
X-3721511Y-2621531D01*
X-3721249Y-2621102D01*
X-3720950Y-2620703D01*
X-3720609Y-2620335D01*
X-3720236Y-2619999D01*
X-3397524Y-2359152D01*
X-3397117Y-2358854D01*
X-3372116Y-2342438D01*
X-3371677Y-2342182D01*
X-3345164Y-2328339D01*
X-3344705Y-2328125D01*
X-3316947Y-2316990D01*
X-3316465Y-2316825D01*
X-3287737Y-2308512D01*
X-3287242Y-2308395D01*
X-3257826Y-2302982D01*
X-3257323Y-2302916D01*
X-3227519Y-2300457D01*
X-3227011Y-2300439D01*
X-3197110Y-2300960D01*
X-3196602Y-2300996D01*
X-3166897Y-2304493D01*
X-3166397Y-2304577D01*
X-3137189Y-2311013D01*
X-3136699Y-2311148D01*
X-3108281Y-2320462D01*
X-3107806Y-2320645D01*
X-3080451Y-2332741D01*
X-3079996Y-2332969D01*
X-3053984Y-2347729D01*
X-3053554Y-2348001D01*
X-3029143Y-2365275D01*
X-3028744Y-2365590D01*
X-3006173Y-2385212D01*
X-3005805Y-2385562D01*
X-2985302Y-2407333D01*
X-2984972Y-2407721D01*
X-2966735Y-2431427D01*
X-2966445Y-2431844D01*
X-2950659Y-2457246D01*
X-2950415Y-2457691D01*
X-2937235Y-2484536D01*
X-2937032Y-2485003D01*
X-2926598Y-2513030D01*
X-2926445Y-2513515D01*
X-2918846Y-2542446D01*
X-2918741Y-2542943D01*
X-2914065Y-2572481D01*
X-2914009Y-2572986D01*
X-2912295Y-2602844D01*
X-2912292Y-2603352D01*
X-2913560Y-2633235D01*
X-2913606Y-2633741D01*
X-2917840Y-2663344D01*
X-2917936Y-2663845D01*
X-2925099Y-2692882D01*
X-2925246Y-2693370D01*
X-2935264Y-2721551D01*
X-2935457Y-2722021D01*
X-2948233Y-2749062D01*
X-2948475Y-2749509D01*
X-2963877Y-2775143D01*
X-2964159Y-2775564D01*
X-2982041Y-2799542D01*
X-2982366Y-2799935D01*
X-3002541Y-2822008D01*
X-3002902Y-2822366D01*
X-3025178Y-2842323D01*
X-3025371Y-2842488D01*
X-3336229Y-3094215D01*
X-3336632Y-3094509D01*
X-3337064Y-3094763D01*
X-3337519Y-3094974D01*
X-3337991Y-3095139D01*
X-3338476Y-3095259D01*
X-3338972Y-3095330D01*
G37*
D11*
G01*
X-2402709Y-3149793D03*
G01*
X-2042283Y-3402164D03*
D12*
G01*
X2402711Y-3150412D03*
G01*
X2042285Y-3402784D03*
D13*
G01*
X-1820623Y2362200D03*
G01*
X-2116376Y2362200D03*
D14*
G01*
X2019299Y160576D03*
G01*
X2019299Y-135176D03*
D13*
G01*
X-1820623Y1773768D03*
G01*
X-2116376Y1773768D03*
D14*
G01*
X2362200Y-135176D03*
G01*
X2362200Y160576D03*
D13*
G01*
X-1820623Y1337731D03*
G01*
X-2116376Y1337731D03*
G01*
X-2116376Y901700D03*
G01*
X-1820623Y901700D03*
D14*
G01*
X-1612900Y-2684223D03*
G01*
X-1612900Y-2979976D03*
D15*
G01*
X-1008735Y4191000D03*
G01*
X1008735Y4191000D03*
G01*
X-1008735Y3937000D03*
G01*
X1008735Y3937000D03*
G01*
X-1008735Y3683000D03*
G01*
X1008735Y3683000D03*
G01*
X-1008735Y3429000D03*
G01*
X1008735Y3429000D03*
G01*
X-1008735Y3175000D03*
G01*
X1008735Y3175000D03*
G01*
X-1008735Y2921000D03*
G01*
X1008735Y2921000D03*
G01*
X-1008735Y2667000D03*
G01*
X1008735Y2667000D03*
G01*
X-1008735Y2413000D03*
G01*
X1008735Y2413000D03*
G01*
X-1008735Y2159000D03*
G01*
X1008735Y2159000D03*
G01*
X-1008735Y1905000D03*
G01*
X1008735Y1905000D03*
G01*
X-1008735Y1651000D03*
G01*
X1008735Y1651000D03*
G01*
X-1008735Y1397000D03*
G01*
X1008735Y1397000D03*
G01*
X-1008735Y1143000D03*
G01*
X1008735Y1143000D03*
G01*
X-1008735Y889000D03*
G01*
X1008735Y889000D03*
G01*
X-1008735Y635000D03*
G01*
X1008735Y635000D03*
G01*
X-1008735Y381000D03*
G01*
X1008735Y381000D03*
G01*
X-1008735Y127000D03*
G01*
X1008735Y127000D03*
G01*
X-1008735Y-127000D03*
G01*
X1008735Y-127000D03*
G01*
X-1008735Y-381000D03*
G01*
X1008735Y-381000D03*
G01*
X-1008735Y-635000D03*
G01*
X1008735Y-635000D03*
D14*
G01*
X-1231900Y-2684223D03*
G01*
X-1231900Y-2979976D03*
D16*
G01*
X-247299Y-2617400D03*
G01*
X-247299Y-2767399D03*
G01*
X272699Y-2767399D03*
G36*
X172702Y-2663479D02*
G01*
X172204Y-2663454D01*
X171711Y-2663383D01*
X171226Y-2663261D01*
X170759Y-2663093D01*
X170306Y-2662880D01*
X169880Y-2662623D01*
X169478Y-2662326D01*
X169110Y-2661991D01*
X168775Y-2661622D01*
X168478Y-2661221D01*
X168221Y-2660794D01*
X168008Y-2660342D01*
X167840Y-2659875D01*
X167718Y-2659390D01*
X167647Y-2658897D01*
X167622Y-2658399D01*
X167622Y-2576400D01*
X167647Y-2575902D01*
X167718Y-2575410D01*
X167840Y-2574925D01*
X168008Y-2574457D01*
X168221Y-2574005D01*
X168478Y-2573578D01*
X168775Y-2573177D01*
X169110Y-2572809D01*
X169478Y-2572473D01*
X169880Y-2572176D01*
X170306Y-2571920D01*
X170759Y-2571706D01*
X171226Y-2571539D01*
X171711Y-2571417D01*
X172204Y-2571346D01*
X172702Y-2571320D01*
X352699Y-2571320D01*
X353268Y-2571353D01*
X353829Y-2571447D01*
X354378Y-2571605D01*
X354904Y-2571823D01*
X355401Y-2572100D01*
X355866Y-2572428D01*
X356290Y-2572809D01*
X376293Y-2592809D01*
X376674Y-2593233D01*
X377002Y-2593698D01*
X377278Y-2594195D01*
X377497Y-2594721D01*
X377654Y-2595270D01*
X377748Y-2595831D01*
X377781Y-2596400D01*
X377781Y-2658399D01*
X377756Y-2658897D01*
X377685Y-2659390D01*
X377563Y-2659875D01*
X377395Y-2660342D01*
X377182Y-2660794D01*
X376925Y-2661221D01*
X376628Y-2661622D01*
X376293Y-2661991D01*
X375925Y-2662326D01*
X375523Y-2662623D01*
X375097Y-2662880D01*
X374644Y-2663093D01*
X374177Y-2663261D01*
X373692Y-2663383D01*
X373199Y-2663454D01*
X372701Y-2663479D01*
G37*
G36*
X-2877146Y2672969D02*
G01*
X-2877654Y2672971D01*
X-2907517Y2674609D01*
X-2908023Y2674663D01*
X-2937573Y2679270D01*
X-2938071Y2679374D01*
X-2967017Y2686898D01*
X-2967502Y2687050D01*
X-2995556Y2697419D01*
X-2996023Y2697617D01*
X-3022902Y2710728D01*
X-3023349Y2710975D01*
X-3048792Y2726697D01*
X-3049209Y2726984D01*
X-3072958Y2745160D01*
X-3073346Y2745491D01*
X-3095167Y2765943D01*
X-3095348Y2766120D01*
X-3373211Y3053854D01*
X-3373541Y3054230D01*
X-3373833Y3054639D01*
X-3374082Y3055071D01*
X-3374288Y3055528D01*
X-3374448Y3056003D01*
X-3374562Y3056491D01*
X-3374626Y3056986D01*
X-3374644Y3057486D01*
X-3374610Y3057987D01*
X-3374527Y3058480D01*
X-3374397Y3058962D01*
X-3374219Y3059432D01*
X-3373998Y3059879D01*
X-3373734Y3060306D01*
X-3373429Y3060702D01*
X-3373086Y3061065D01*
X-2941485Y3477861D01*
X-2941106Y3478192D01*
X-2940700Y3478484D01*
X-2940265Y3478733D01*
X-2939811Y3478938D01*
X-2939336Y3479101D01*
X-2938848Y3479213D01*
X-2938350Y3479279D01*
X-2937850Y3479294D01*
X-2937349Y3479258D01*
X-2936857Y3479177D01*
X-2936372Y3479048D01*
X-2935904Y3478870D01*
X-2935455Y3478646D01*
X-2935030Y3478382D01*
X-2934634Y3478077D01*
X-2934268Y3477734D01*
X-2646286Y3178982D01*
X-2645956Y3178601D01*
X-2627426Y3155127D01*
X-2627132Y3154713D01*
X-2611028Y3129508D01*
X-2610777Y3129066D01*
X-2597266Y3102383D01*
X-2597058Y3101919D01*
X-2586273Y3074024D01*
X-2586113Y3073542D01*
X-2578155Y3044713D01*
X-2578046Y3044217D01*
X-2572999Y3014741D01*
X-2572938Y3014235D01*
X-2570853Y2984400D01*
X-2570843Y2983892D01*
X-2571734Y2953997D01*
X-2571775Y2953489D01*
X-2575643Y2923834D01*
X-2575735Y2923334D01*
X-2582537Y2894210D01*
X-2582677Y2893722D01*
X-2592341Y2865419D01*
X-2592529Y2864947D01*
X-2604968Y2837746D01*
X-2605201Y2837294D01*
X-2620281Y2811470D01*
X-2620561Y2811045D01*
X-2638143Y2786849D01*
X-2638460Y2786453D01*
X-2658358Y2764129D01*
X-2658717Y2763766D01*
X-2680741Y2743532D01*
X-2681132Y2743207D01*
X-2705064Y2725267D01*
X-2705483Y2724983D01*
X-2731079Y2709514D01*
X-2731528Y2709273D01*
X-2758539Y2696436D01*
X-2759008Y2696243D01*
X-2787164Y2686151D01*
X-2787650Y2686004D01*
X-2816669Y2678770D01*
X-2817169Y2678671D01*
X-2846763Y2674360D01*
X-2847268Y2674312D01*
G37*
G36*
X-2088202Y-225079D02*
G01*
X-2333685Y-225010D01*
X-2334061Y-224995D01*
X-2355933Y-223357D01*
X-2356436Y-223296D01*
X-2378034Y-219486D01*
X-2378529Y-219372D01*
X-2399642Y-213433D01*
X-2400122Y-213273D01*
X-2420538Y-205259D01*
X-2420998Y-205051D01*
X-2440515Y-195046D01*
X-2440955Y-194792D01*
X-2459377Y-182892D01*
X-2459789Y-182598D01*
X-2476936Y-168925D01*
X-2477317Y-168589D01*
X-2493020Y-153273D01*
X-2493363Y-152902D01*
X-2507460Y-136103D01*
X-2507764Y-135699D01*
X-2520119Y-117579D01*
X-2520383Y-117147D01*
X-2530873Y-97883D01*
X-2531094Y-97426D01*
X-2539613Y-77218D01*
X-2539786Y-76741D01*
X-2546250Y-55783D01*
X-2546375Y-55293D01*
X-2550721Y-33794D01*
X-2550797Y-33294D01*
X-2552979Y-11470D01*
X-2553004Y-10965D01*
X-2553004Y10965D01*
X-2552979Y11470D01*
X-2550797Y33294D01*
X-2550721Y33794D01*
X-2546375Y55293D01*
X-2546250Y55783D01*
X-2539786Y76741D01*
X-2539613Y77218D01*
X-2531094Y97426D01*
X-2530873Y97883D01*
X-2520383Y117147D01*
X-2520119Y117579D01*
X-2507764Y135699D01*
X-2507460Y136103D01*
X-2493363Y152902D01*
X-2493020Y153273D01*
X-2477317Y168589D01*
X-2476936Y168925D01*
X-2459789Y182598D01*
X-2459377Y182892D01*
X-2440955Y194792D01*
X-2440515Y195046D01*
X-2420998Y205051D01*
X-2420538Y205259D01*
X-2400122Y213273D01*
X-2399642Y213433D01*
X-2378529Y219372D01*
X-2378034Y219486D01*
X-2356436Y223296D01*
X-2355933Y223357D01*
X-2334061Y224995D01*
X-2333685Y225010D01*
X-2088202Y225079D01*
X-2087702Y225054D01*
X-2087209Y224983D01*
X-2086726Y224861D01*
X-2086256Y224693D01*
X-2085807Y224480D01*
X-2085378Y224223D01*
X-2084976Y223926D01*
X-2084608Y223591D01*
X-2084273Y223222D01*
X-2083976Y222821D01*
X-2083719Y222394D01*
X-2083506Y221942D01*
X-2083338Y221475D01*
X-2083216Y220990D01*
X-2083145Y220497D01*
X-2083120Y219999D01*
X-2083120Y-219999D01*
X-2083145Y-220497D01*
X-2083216Y-220990D01*
X-2083338Y-221475D01*
X-2083506Y-221942D01*
X-2083719Y-222394D01*
X-2083976Y-222821D01*
X-2084273Y-223222D01*
X-2084608Y-223591D01*
X-2084976Y-223926D01*
X-2085378Y-224223D01*
X-2085807Y-224480D01*
X-2086256Y-224693D01*
X-2086726Y-224861D01*
X-2087209Y-224983D01*
X-2087702Y-225054D01*
G37*
G36*
X-2128197Y-225079D02*
G01*
X-2128697Y-225054D01*
X-2129190Y-224983D01*
X-2129673Y-224861D01*
X-2130143Y-224693D01*
X-2130592Y-224480D01*
X-2131021Y-224223D01*
X-2131423Y-223926D01*
X-2131791Y-223591D01*
X-2132126Y-223222D01*
X-2132423Y-222821D01*
X-2132680Y-222394D01*
X-2132893Y-221942D01*
X-2133061Y-221475D01*
X-2133183Y-220990D01*
X-2133254Y-220497D01*
X-2133279Y-219999D01*
X-2133279Y219999D01*
X-2133254Y220497D01*
X-2133183Y220990D01*
X-2133061Y221475D01*
X-2132893Y221942D01*
X-2132680Y222394D01*
X-2132423Y222821D01*
X-2132126Y223222D01*
X-2131791Y223591D01*
X-2131423Y223926D01*
X-2131021Y224223D01*
X-2130592Y224480D01*
X-2130143Y224693D01*
X-2129673Y224861D01*
X-2129190Y224983D01*
X-2128697Y225054D01*
X-2128197Y225079D01*
X-1882714Y225010D01*
X-1882338Y224995D01*
X-1860466Y223357D01*
X-1859963Y223296D01*
X-1838365Y219486D01*
X-1837870Y219372D01*
X-1816757Y213433D01*
X-1816277Y213273D01*
X-1795861Y205259D01*
X-1795401Y205051D01*
X-1775884Y195046D01*
X-1775444Y194792D01*
X-1757022Y182892D01*
X-1756610Y182598D01*
X-1739463Y168925D01*
X-1739082Y168589D01*
X-1723379Y153273D01*
X-1723036Y152902D01*
X-1708939Y136103D01*
X-1708635Y135699D01*
X-1696280Y117579D01*
X-1696016Y117147D01*
X-1685526Y97883D01*
X-1685305Y97426D01*
X-1676786Y77218D01*
X-1676613Y76741D01*
X-1670149Y55783D01*
X-1670024Y55293D01*
X-1665678Y33794D01*
X-1665602Y33294D01*
X-1663420Y11470D01*
X-1663395Y10965D01*
X-1663395Y-10965D01*
X-1663420Y-11470D01*
X-1665602Y-33294D01*
X-1665678Y-33794D01*
X-1670024Y-55293D01*
X-1670149Y-55783D01*
X-1676613Y-76741D01*
X-1676786Y-77218D01*
X-1685305Y-97426D01*
X-1685526Y-97883D01*
X-1696016Y-117147D01*
X-1696280Y-117579D01*
X-1708635Y-135699D01*
X-1708939Y-136103D01*
X-1723036Y-152902D01*
X-1723379Y-153273D01*
X-1739082Y-168589D01*
X-1739463Y-168925D01*
X-1756610Y-182598D01*
X-1757022Y-182892D01*
X-1775444Y-194792D01*
X-1775884Y-195046D01*
X-1795401Y-205051D01*
X-1795861Y-205259D01*
X-1816277Y-213273D01*
X-1816757Y-213433D01*
X-1837870Y-219372D01*
X-1838365Y-219486D01*
X-1859963Y-223296D01*
X-1860466Y-223357D01*
X-1882338Y-224995D01*
X-1882714Y-225010D01*
G37*
M02*
