G04 Layer: BottomSilkscreenLayer*
G04 EasyEDA v6.5.50, 2025-08-14 22:33:42*
G04 e75713753cb845a6aa3ca86cf9a0bac9,7f6f5378126b4d5b8a4b95b5ffd06442,10*
G04 Gerber Generator version 0.2*
G04 Scale: 100 percent, Rotated: No, Reflected: No *
G04 Dimensions in millimeters *
G04 leading zeros omitted , absolute positions ,4 integer and 5 decimal *
%FSLAX45Y45*%
%MOMM*%

%ADD10C,0.0001*%

%LPD*%
G36*
X4499406Y4764278D02*
G01*
X4499406Y4489348D01*
X4816602Y4489348D01*
X4816602Y4764278D01*
G37*
G36*
X15189Y4387799D02*
G01*
X-7670Y4381754D01*
X-11430Y4377944D01*
X-4216Y4351934D01*
X-1219Y4351934D01*
X13258Y4357928D01*
X39573Y4360926D01*
X58521Y4353661D01*
X64871Y4344619D01*
X64871Y4328109D01*
X50698Y4314901D01*
X6908Y4296156D01*
X-15036Y4274718D01*
X-20472Y4249928D01*
X-15747Y4227271D01*
X-5029Y4211523D01*
X12801Y4199534D01*
X36017Y4192778D01*
X80721Y4194860D01*
X101854Y4203039D01*
X101346Y4215536D01*
X96418Y4233519D01*
X84074Y4227118D01*
X55372Y4220413D01*
X35509Y4222699D01*
X22656Y4229354D01*
X16256Y4241749D01*
X16256Y4252722D01*
X22453Y4264812D01*
X36322Y4273296D01*
X65938Y4284878D01*
X89154Y4300474D01*
X100838Y4322775D01*
X100838Y4342841D01*
X95961Y4357217D01*
X87833Y4368850D01*
X72999Y4380179D01*
X51104Y4387697D01*
G37*
G36*
X-94792Y4387342D02*
G01*
X-130759Y4385513D01*
X-153060Y4378807D01*
X-171704Y4362399D01*
X-176682Y4347210D01*
X-175426Y4329684D01*
X-142341Y4329684D01*
X-142290Y4340301D01*
X-137007Y4350715D01*
X-122732Y4360367D01*
X-87376Y4360367D01*
X-87376Y4306976D01*
X-120142Y4308906D01*
X-134112Y4316171D01*
X-142341Y4329684D01*
X-175426Y4329684D01*
X-174955Y4323080D01*
X-164998Y4309110D01*
X-146354Y4297273D01*
X-156108Y4294225D01*
X-173685Y4282186D01*
X-183337Y4262272D01*
X-183309Y4259935D01*
X-146812Y4259935D01*
X-138328Y4273448D01*
X-124409Y4280763D01*
X-87376Y4282643D01*
X-87376Y4221327D01*
X-103479Y4218787D01*
X-127355Y4222648D01*
X-134975Y4226763D01*
X-145186Y4237685D01*
X-146812Y4259935D01*
X-183309Y4259935D01*
X-183083Y4236415D01*
X-175717Y4221835D01*
X-162458Y4207764D01*
X-149758Y4201109D01*
X-128625Y4195521D01*
X-92303Y4192778D01*
X-51460Y4195826D01*
X-51460Y4383278D01*
G37*
G36*
X132537Y4385767D02*
G01*
X132638Y4283202D01*
X136398Y4244340D01*
X147929Y4218686D01*
X165658Y4202328D01*
X189788Y4193286D01*
X226923Y4193286D01*
X247802Y4199534D01*
X263956Y4212894D01*
X273862Y4228592D01*
X281228Y4251452D01*
X283108Y4385767D01*
X246938Y4385767D01*
X245668Y4251452D01*
X235813Y4231386D01*
X222707Y4222089D01*
X198475Y4220311D01*
X182168Y4229506D01*
X172974Y4243019D01*
X168605Y4262018D01*
X168503Y4385767D01*
G37*
G36*
X1488338Y4011422D02*
G01*
X1506626Y3957523D01*
X1554073Y3820972D01*
X1594358Y3822192D01*
X1655114Y4009898D01*
X1655114Y4011422D01*
X1617065Y4011422D01*
X1617065Y4009948D01*
X1581556Y3891940D01*
X1573733Y3859225D01*
X1571548Y3859174D01*
X1562049Y3896207D01*
X1525422Y4011422D01*
G37*
G36*
X1678381Y4005122D02*
G01*
X1678381Y3975506D01*
X1749755Y3975506D01*
X1752650Y3949039D01*
X1754835Y3940149D01*
X1717293Y3938015D01*
X1698243Y3929583D01*
X1682394Y3915664D01*
X1676095Y3903472D01*
X1671828Y3880256D01*
X1678381Y3854551D01*
X1690014Y3838295D01*
X1712417Y3823512D01*
X1735074Y3818432D01*
X1776730Y3820566D01*
X1794713Y3827932D01*
X1794662Y3832758D01*
X1790242Y3849674D01*
X1788566Y3854704D01*
X1764538Y3846271D01*
X1736293Y3846017D01*
X1718970Y3854856D01*
X1710232Y3865981D01*
X1707489Y3880510D01*
X1714652Y3899306D01*
X1726590Y3907790D01*
X1753463Y3914698D01*
X1785518Y3912260D01*
X1773529Y4005122D01*
G37*
G36*
X-197612Y2977337D02*
G01*
X-243484Y2966974D01*
X-258267Y2960827D01*
X-280365Y2945942D01*
X-293573Y2965551D01*
X-314604Y2976321D01*
X-526186Y2975813D01*
X-756666Y2976321D01*
X-774192Y2970987D01*
X-791565Y2953613D01*
X-796848Y2936138D01*
X-796848Y2851556D01*
X-786942Y2831338D01*
X-772414Y2820263D01*
X-744067Y2812389D01*
X-677367Y2812389D01*
X-677367Y2797606D01*
X-716483Y2797657D01*
X-747928Y2790291D01*
X-767384Y2770886D01*
X-774700Y2739440D01*
X-774649Y2686507D01*
X-766826Y2658160D01*
X-755751Y2643682D01*
X-735533Y2633827D01*
X-677367Y2632202D01*
X-677367Y2596692D01*
X-746455Y2596692D01*
X-771499Y2591714D01*
X-792784Y2570276D01*
X-797915Y2547772D01*
X-797915Y2482494D01*
X-749401Y2482494D01*
X-748233Y2547010D01*
X-628751Y2548128D01*
X-628751Y2681325D01*
X-723900Y2681325D01*
X-723900Y2746857D01*
X-628751Y2746857D01*
X-628751Y2863138D01*
X-749300Y2863138D01*
X-749300Y2928721D01*
X-556869Y2928721D01*
X-556869Y2812389D01*
X-446887Y2812389D01*
X-446887Y2798064D01*
X-496570Y2795981D01*
X-506120Y2792882D01*
X-506120Y2812389D01*
X-556869Y2812389D01*
X-556869Y2634792D01*
X-506120Y2634792D01*
X-498703Y2633878D01*
X-446887Y2632557D01*
X-446887Y2596692D01*
X-506120Y2596692D01*
X-506120Y2634792D01*
X-556869Y2634792D01*
X-556869Y2482494D01*
X-518871Y2482494D01*
X-517702Y2547010D01*
X-398272Y2548128D01*
X-398272Y2681325D01*
X-493420Y2681325D01*
X-493420Y2746857D01*
X-398272Y2746857D01*
X-398272Y2863138D01*
X-518769Y2863138D01*
X-518769Y2928721D01*
X-326339Y2928721D01*
X-326339Y2640076D01*
X-286156Y2640076D01*
X-281736Y2667558D01*
X-269900Y2692908D01*
X-258013Y2707030D01*
X-234899Y2720086D01*
X-249732Y2727655D01*
X-267004Y2747314D01*
X-275285Y2769412D01*
X-279806Y2802128D01*
X-279806Y2831134D01*
X-275285Y2863850D01*
X-266801Y2886557D01*
X-253238Y2904388D01*
X-232867Y2918104D01*
X-204774Y2927400D01*
X-68376Y2929077D01*
X-68376Y2482494D01*
X-202793Y2482494D01*
X-226821Y2488793D01*
X-246125Y2497836D01*
X-267004Y2516632D01*
X-279857Y2542794D01*
X-286105Y2572410D01*
X-286156Y2640076D01*
X-326339Y2640076D01*
X-326339Y2482494D01*
X-797915Y2482494D01*
X-797915Y2480716D01*
X-792835Y2458567D01*
X-772972Y2438704D01*
X-745236Y2431745D01*
X-560019Y2431796D01*
X-537819Y2437739D01*
X-515620Y2431796D01*
X-330149Y2431745D01*
X-304800Y2438349D01*
X-290830Y2447493D01*
X-281127Y2463139D01*
X-263956Y2451404D01*
X-250901Y2444699D01*
X-206857Y2432964D01*
X-73355Y2431440D01*
X-46837Y2438349D01*
X-33121Y2447290D01*
X-24180Y2461006D01*
X-17576Y2486304D01*
X-17576Y2922828D01*
X-24282Y2948787D01*
X-32715Y2962452D01*
X-45872Y2971850D01*
X-65176Y2977083D01*
G37*
G36*
X86614Y2932938D02*
G01*
X64363Y2928721D01*
X39624Y2917647D01*
X18796Y2895600D01*
X7467Y2873248D01*
X1524Y2845206D01*
X1422Y2803956D01*
X64871Y2803956D01*
X64871Y2826156D01*
X69037Y2851505D01*
X76962Y2862122D01*
X90627Y2870098D01*
X113080Y2870098D01*
X127863Y2861005D01*
X135178Y2845511D01*
X137312Y2819196D01*
X128473Y2790139D01*
X114554Y2769057D01*
X82651Y2737358D01*
X34036Y2690622D01*
X13563Y2659837D01*
X3810Y2631592D01*
X-660Y2604109D01*
X-660Y2574493D01*
X3657Y2547924D01*
X12090Y2525420D01*
X25400Y2505303D01*
X45821Y2489149D01*
X69799Y2480208D01*
X103327Y2475484D01*
X142036Y2480564D01*
X168605Y2492908D01*
X188569Y2513431D01*
X199847Y2536444D01*
X206552Y2569057D01*
X206552Y2613609D01*
X141020Y2613609D01*
X141020Y2566314D01*
X132537Y2548839D01*
X116128Y2539593D01*
X93980Y2539593D01*
X78232Y2548483D01*
X70154Y2561793D01*
X70154Y2610662D01*
X86664Y2644089D01*
X178003Y2735224D01*
X192278Y2759557D01*
X202285Y2787142D01*
X206349Y2822651D01*
X202387Y2860852D01*
X194259Y2882188D01*
X183591Y2900426D01*
X163982Y2918510D01*
X141173Y2928569D01*
X120904Y2932480D01*
G37*
G36*
X570280Y2926943D02*
G01*
X436016Y2925318D01*
X407619Y2915920D01*
X389585Y2902153D01*
X375767Y2884017D01*
X366217Y2853639D01*
X366217Y2769057D01*
X367445Y2765094D01*
X434949Y2765094D01*
X434949Y2836875D01*
X444449Y2855671D01*
X458673Y2863850D01*
X499465Y2865729D01*
X502615Y2862478D01*
X502615Y2735783D01*
X459232Y2737408D01*
X443687Y2747010D01*
X434949Y2765094D01*
X367445Y2765094D01*
X373430Y2745790D01*
X386080Y2725877D01*
X402742Y2714091D01*
X410311Y2709621D01*
X386130Y2695956D01*
X373481Y2675991D01*
X366623Y2654858D01*
X363626Y2502611D01*
X357124Y2482494D01*
X426567Y2482494D01*
X431546Y2494127D01*
X433882Y2642158D01*
X444449Y2663342D01*
X461365Y2672791D01*
X502615Y2672842D01*
X502615Y2482494D01*
X570280Y2482494D01*
G37*
G36*
X606247Y2926588D02*
G01*
X606247Y2865323D01*
X721512Y2864205D01*
X721512Y2739440D01*
X631596Y2738323D01*
X631596Y2677058D01*
X722528Y2677058D01*
X722528Y2482494D01*
X790194Y2482494D01*
X790194Y2926588D01*
G37*
G36*
X246735Y2926588D02*
G01*
X246735Y2482494D01*
X314401Y2482494D01*
X314401Y2926588D01*
G37*
G36*
X-140258Y2863646D02*
G01*
X-186537Y2862072D01*
X-198424Y2853385D01*
X-206349Y2837434D01*
X-208381Y2792323D01*
X-203657Y2766923D01*
X-195834Y2756357D01*
X-181610Y2748026D01*
X-140258Y2746349D01*
G37*
G36*
X-2192578Y2789123D02*
G01*
X-2216353Y2785211D01*
X-2233625Y2780588D01*
X-2231999Y2775407D01*
X-2225294Y2751328D01*
X-2209495Y2758338D01*
X-2160828Y2758490D01*
X-2141321Y2749448D01*
X-2124354Y2734157D01*
X-2114753Y2711958D01*
X-2112670Y2683256D01*
X-2119833Y2656992D01*
X-2134158Y2637282D01*
X-2161997Y2623566D01*
X-2196947Y2623566D01*
X-2206447Y2628646D01*
X-2205278Y2673908D01*
X-2172462Y2675128D01*
X-2172462Y2702458D01*
X-2238095Y2702458D01*
X-2236978Y2604109D01*
X-2207361Y2596540D01*
X-2165096Y2594152D01*
X-2133498Y2600909D01*
X-2111044Y2612288D01*
X-2092502Y2632049D01*
X-2084120Y2648508D01*
X-2077313Y2671470D01*
X-2077313Y2705811D01*
X-2083816Y2730703D01*
X-2095093Y2751480D01*
X-2117496Y2771952D01*
X-2141270Y2783179D01*
X-2169312Y2788767D01*
G37*
G36*
X-2509774Y2788767D02*
G01*
X-2547823Y2786735D01*
X-2574340Y2780741D01*
X-2591612Y2771952D01*
X-2610510Y2754477D01*
X-2621178Y2736342D01*
X-2627071Y2714091D01*
X-2627122Y2689961D01*
X-2591765Y2689961D01*
X-2589276Y2716936D01*
X-2582926Y2732074D01*
X-2571699Y2746806D01*
X-2545740Y2759608D01*
X-2511907Y2761284D01*
X-2500274Y2759252D01*
X-2500274Y2621534D01*
X-2541473Y2623515D01*
X-2562656Y2632862D01*
X-2578862Y2648508D01*
X-2586583Y2663444D01*
X-2591765Y2689961D01*
X-2627122Y2689961D01*
X-2627122Y2677972D01*
X-2620822Y2653741D01*
X-2609951Y2632303D01*
X-2592019Y2614371D01*
X-2569006Y2603195D01*
X-2543606Y2596591D01*
X-2505456Y2594000D01*
X-2464308Y2597099D01*
X-2464308Y2782570D01*
X-2468930Y2785414D01*
G37*
G36*
X-2271877Y2787192D02*
G01*
X-2313025Y2785973D01*
X-2366924Y2697175D01*
X-2393442Y2644292D01*
X-2392121Y2787040D01*
X-2424125Y2787040D01*
X-2424125Y2596692D01*
X-2387142Y2596794D01*
X-2327910Y2696972D01*
X-2303729Y2743657D01*
X-2306370Y2596692D01*
X-2271877Y2596692D01*
G37*
G36*
X3515004Y2691384D02*
G01*
X3479037Y2689555D01*
X3456736Y2682798D01*
X3438093Y2666390D01*
X3433114Y2651252D01*
X3434368Y2633726D01*
X3467455Y2633726D01*
X3467506Y2644292D01*
X3472789Y2654757D01*
X3487064Y2664358D01*
X3522421Y2664358D01*
X3522421Y2610967D01*
X3489604Y2612898D01*
X3475685Y2620162D01*
X3467455Y2633726D01*
X3434368Y2633726D01*
X3434842Y2627122D01*
X3444798Y2613101D01*
X3463442Y2601315D01*
X3453688Y2598267D01*
X3436112Y2586228D01*
X3426460Y2566263D01*
X3426478Y2563926D01*
X3462985Y2563926D01*
X3471468Y2577490D01*
X3485387Y2584805D01*
X3522421Y2586634D01*
X3522421Y2525369D01*
X3506317Y2522778D01*
X3482441Y2526690D01*
X3474821Y2530754D01*
X3464610Y2541676D01*
X3462985Y2563926D01*
X3426478Y2563926D01*
X3426714Y2540457D01*
X3434079Y2525877D01*
X3447338Y2511755D01*
X3460038Y2505100D01*
X3481171Y2499512D01*
X3517493Y2496769D01*
X3558336Y2499817D01*
X3558336Y2687320D01*
G37*
G36*
X3305352Y2689758D02*
G01*
X3269768Y2579776D01*
X3304133Y2579776D01*
X3307029Y2587193D01*
X3329279Y2661208D01*
X3336798Y2630474D01*
X3352800Y2579776D01*
X3269768Y2579776D01*
X3243732Y2499410D01*
X3281121Y2499410D01*
X3297986Y2551226D01*
X3358896Y2552395D01*
X3364128Y2534310D01*
X3374898Y2499410D01*
X3410762Y2499410D01*
X3350056Y2689707D01*
G37*
G36*
X3114294Y2689758D02*
G01*
X3114294Y2660142D01*
X3169259Y2660142D01*
X3169259Y2499410D01*
X3203092Y2499410D01*
X3203092Y2660142D01*
X3258058Y2660142D01*
X3258058Y2689758D01*
G37*
G36*
X-140258Y2681325D02*
G01*
X-181508Y2681274D01*
X-197002Y2676956D01*
X-209600Y2662580D01*
X-214274Y2640888D01*
X-214274Y2579573D01*
X-209651Y2561183D01*
X-197104Y2549144D01*
X-140258Y2547721D01*
G37*
G36*
X3017012Y2649575D02*
G01*
X3017012Y2586126D01*
X2955645Y2586126D01*
X2955645Y2562860D01*
X3017012Y2562860D01*
X3017012Y2499410D01*
X3040278Y2499410D01*
X3040278Y2562758D01*
X3100527Y2563926D01*
X3101797Y2586126D01*
X3040278Y2586126D01*
X3040278Y2649575D01*
G37*
G36*
X101447Y2370632D02*
G01*
X150520Y2228748D01*
X180136Y2228748D01*
X224028Y2365146D01*
X226110Y2370632D01*
X197459Y2369362D01*
X168452Y2272080D01*
X165862Y2256231D01*
X163017Y2256231D01*
X157480Y2280564D01*
X129285Y2369362D01*
G37*
G36*
X-128625Y2368245D02*
G01*
X-145592Y2360523D01*
X-158800Y2345436D01*
X-166674Y2322880D01*
X-166656Y2288540D01*
X-142951Y2288540D01*
X-140563Y2325420D01*
X-134416Y2340102D01*
X-122783Y2349296D01*
X-115214Y2349296D01*
X-102209Y2338374D01*
X-95402Y2314956D01*
X-97078Y2267864D01*
X-106172Y2250490D01*
X-118770Y2245309D01*
X-127355Y2248001D01*
X-137617Y2260142D01*
X-142951Y2288540D01*
X-166656Y2288540D01*
X-166624Y2272080D01*
X-158800Y2249474D01*
X-141325Y2231288D01*
X-122275Y2226157D01*
X-101549Y2228646D01*
X-85242Y2239924D01*
X-71526Y2267813D01*
X-71526Y2327097D01*
X-80365Y2346096D01*
X-92506Y2360472D01*
X-109575Y2368245D01*
G37*
G36*
X59588Y2368143D02*
G01*
X31953Y2366822D01*
X16154Y2359355D01*
X7112Y2346655D01*
X5384Y2327097D01*
X13462Y2312263D01*
X28905Y2303830D01*
X28752Y2301697D01*
X10972Y2293264D01*
X1066Y2278430D01*
X2641Y2252522D01*
X14020Y2237638D01*
X34188Y2227732D01*
X72288Y2227681D01*
X92506Y2235504D01*
X89662Y2244598D01*
X86106Y2254148D01*
X84683Y2254148D01*
X64617Y2247290D01*
X39573Y2249119D01*
X29006Y2259025D01*
X26314Y2273198D01*
X33223Y2283663D01*
X44602Y2291130D01*
X70154Y2293264D01*
X71475Y2311247D01*
X52069Y2311247D01*
X37693Y2317242D01*
X30683Y2327960D01*
X33477Y2340813D01*
X42570Y2347163D01*
X65024Y2347163D01*
X80416Y2340762D01*
X83312Y2344013D01*
X87934Y2357729D01*
X75590Y2364130D01*
G37*
G36*
X-35560Y2260295D02*
G01*
X-46126Y2258161D01*
X-53543Y2249424D01*
X-53543Y2236419D01*
X-44348Y2226665D01*
X-32207Y2226665D01*
X-21844Y2237028D01*
X-21844Y2245461D01*
X-26517Y2255824D01*
G37*
G36*
X1448968Y1974697D02*
G01*
X1419352Y1972614D01*
X1394307Y1966214D01*
X1368602Y1953260D01*
X1345082Y1934819D01*
X1332636Y1918004D01*
X1296314Y1917903D01*
X1263700Y1909572D01*
X1233220Y1893773D01*
X1201369Y1861870D01*
X1188161Y1836470D01*
X956665Y1322628D01*
X948893Y1298194D01*
X948110Y1288796D01*
X980338Y1288796D01*
X987196Y1311452D01*
X1219758Y1828038D01*
X1230884Y1847037D01*
X1250492Y1866188D01*
X1276502Y1880006D01*
X1305153Y1886102D01*
X1314602Y1886153D01*
X1088694Y1383944D01*
X1081125Y1358544D01*
X1081360Y1322628D01*
X1113891Y1322628D01*
X1113891Y1350111D01*
X1118260Y1369110D01*
X1344777Y1872437D01*
X1357426Y1897532D01*
X1380388Y1921611D01*
X1404874Y1934667D01*
X1429766Y1941169D01*
X1455267Y1940864D01*
X1477010Y1935022D01*
X3709568Y929944D01*
X3727704Y919480D01*
X3743096Y906018D01*
X3759301Y880922D01*
X3767734Y853744D01*
X3767582Y819302D01*
X3757980Y791819D01*
X3530244Y286410D01*
X3518712Y269494D01*
X3496919Y249123D01*
X3470605Y236829D01*
X3439922Y231597D01*
X3409289Y236880D01*
X1167688Y1246022D01*
X1143863Y1262583D01*
X1130096Y1279702D01*
X1118209Y1303578D01*
X1113891Y1322628D01*
X1081360Y1322628D01*
X1081430Y1312011D01*
X1092555Y1277874D01*
X1109624Y1251458D01*
X1130249Y1230833D01*
X1152906Y1216456D01*
X3387090Y210616D01*
X3387090Y205841D01*
X3371189Y190601D01*
X3350056Y177342D01*
X3323183Y169062D01*
X3290163Y169062D01*
X3265474Y176784D01*
X1026261Y1185062D01*
X1002030Y1207465D01*
X988568Y1228496D01*
X980389Y1254709D01*
X980338Y1288796D01*
X948110Y1288796D01*
X946150Y1265224D01*
X953262Y1229563D01*
X970889Y1193596D01*
X1002741Y1161897D01*
X1023874Y1150620D01*
X3261156Y143357D01*
X3283305Y137566D01*
X3312007Y134924D01*
X3347923Y141376D01*
X3383127Y158800D01*
X3412388Y186385D01*
X3420922Y200253D01*
X3470605Y202285D01*
X3499104Y212902D01*
X3522878Y227177D01*
X3545941Y249783D01*
X3559860Y271576D01*
X3789476Y781253D01*
X3799789Y810463D01*
X3801973Y848918D01*
X3795268Y880618D01*
X3777640Y916432D01*
X3745484Y948283D01*
X3724351Y959510D01*
X1491234Y1965045D01*
X1472184Y1970989D01*
G37*
G36*
X2677566Y1729841D02*
G01*
X2641650Y1728368D01*
X2622600Y1719732D01*
X2610358Y1707489D01*
X2601823Y1688439D01*
X2601823Y1658670D01*
X2612847Y1634489D01*
X2631897Y1609750D01*
X2670708Y1573174D01*
X2598267Y1573174D01*
X2598267Y1543608D01*
X2720949Y1543608D01*
X2720949Y1564640D01*
X2647492Y1637690D01*
X2635808Y1662074D01*
X2637790Y1685950D01*
X2652877Y1699768D01*
X2672334Y1702663D01*
X2694432Y1695450D01*
X2705709Y1687372D01*
X2708402Y1687372D01*
X2716682Y1706778D01*
X2716682Y1712671D01*
X2705354Y1720088D01*
G37*
G36*
X2784398Y1727555D02*
G01*
X2784398Y1543608D01*
X2818231Y1543608D01*
X2818231Y1693722D01*
X2820416Y1693722D01*
X2850388Y1678635D01*
X2852064Y1680362D01*
X2856890Y1704390D01*
X2855214Y1705914D01*
X2812948Y1727352D01*
G37*
G36*
X-34696Y1664106D02*
G01*
X-107492Y1659737D01*
X-170891Y1653438D01*
X-234340Y1644853D01*
X-312877Y1630476D01*
X-388721Y1612900D01*
X-466953Y1590446D01*
X-532536Y1568399D01*
X-595985Y1544066D01*
X-655472Y1518564D01*
X-729183Y1483055D01*
X-800150Y1444091D01*
X-860298Y1407566D01*
X-930097Y1360728D01*
X-1004112Y1305001D01*
X-1058113Y1259941D01*
X-1107744Y1215136D01*
X-1183843Y1138478D01*
X-1226566Y1089964D01*
X-1263650Y1045565D01*
X-1320139Y970584D01*
X-1366113Y901801D01*
X-1388414Y865835D01*
X-1422044Y807313D01*
X-1459534Y734720D01*
X-1483461Y682244D01*
X-1484884Y675487D01*
X-1520850Y586232D01*
X-1544421Y517550D01*
X-1563217Y453440D01*
X-1582166Y377342D01*
X-1592783Y324459D01*
X-1599895Y285140D01*
X-1598320Y283616D01*
X-1560626Y253492D01*
X-1557680Y256794D01*
X-1550365Y303326D01*
X-1535684Y375208D01*
X-1520901Y434441D01*
X-1504391Y491540D01*
X-1476756Y573278D01*
X-1449425Y642112D01*
X-1434439Y674979D01*
X-1434439Y680618D01*
X-1403502Y745286D01*
X-1364081Y817168D01*
X-1338732Y859485D01*
X-1290675Y932637D01*
X-1249883Y988466D01*
X-1202385Y1047699D01*
X-1153566Y1103122D01*
X-1093825Y1164742D01*
X-1031087Y1222298D01*
X-972362Y1271320D01*
X-897128Y1327810D01*
X-824331Y1375867D01*
X-782066Y1401318D01*
X-728726Y1431188D01*
X-653084Y1469034D01*
X-585419Y1498650D01*
X-513486Y1526133D01*
X-433781Y1552346D01*
X-358902Y1572818D01*
X-280873Y1589938D01*
X-204774Y1602638D01*
X-153974Y1609090D01*
X-86766Y1615490D01*
X26263Y1620266D01*
X138480Y1615440D01*
X207619Y1608937D01*
X283718Y1598269D01*
X350977Y1585722D01*
X423164Y1568907D01*
X504647Y1545590D01*
X579780Y1519936D01*
X649579Y1492199D01*
X718667Y1461008D01*
X761644Y1439468D01*
X812444Y1411833D01*
X875080Y1374495D01*
X894130Y1415592D01*
X883462Y1424127D01*
X802284Y1470355D01*
X729945Y1506829D01*
X674979Y1531467D01*
X598830Y1562252D01*
X516382Y1590344D01*
X457606Y1607312D01*
X383133Y1625752D01*
X317601Y1638706D01*
X252018Y1649272D01*
X180136Y1657553D01*
X95554Y1663395D01*
G37*
G36*
X-3201263Y1473962D02*
G01*
X-3237230Y1472488D01*
X-3256279Y1463852D01*
X-3268522Y1451610D01*
X-3277057Y1432560D01*
X-3277057Y1402791D01*
X-3265982Y1378610D01*
X-3246983Y1353870D01*
X-3208121Y1317294D01*
X-3280562Y1317294D01*
X-3280562Y1287729D01*
X-3157931Y1287729D01*
X-3157931Y1308760D01*
X-3231388Y1381810D01*
X-3243021Y1406194D01*
X-3241040Y1430070D01*
X-3226003Y1443888D01*
X-3206546Y1446784D01*
X-3184448Y1439570D01*
X-3173120Y1431493D01*
X-3170478Y1431493D01*
X-3162147Y1450898D01*
X-3162147Y1456791D01*
X-3173526Y1464208D01*
G37*
G36*
X-3418027Y1473809D02*
G01*
X-3418027Y1446936D01*
X-3391611Y1444193D01*
X-3370630Y1436776D01*
X-3348126Y1415643D01*
X-3339947Y1393850D01*
X-3363417Y1407972D01*
X-3385515Y1410766D01*
X-3404311Y1405788D01*
X-3421227Y1395984D01*
X-3430828Y1382928D01*
X-3435299Y1371244D01*
X-3437715Y1356461D01*
X-3403498Y1356461D01*
X-3393694Y1375206D01*
X-3383127Y1382776D01*
X-3366211Y1385112D01*
X-3348329Y1376781D01*
X-3339541Y1362760D01*
X-3341319Y1334566D01*
X-3349548Y1320495D01*
X-3363671Y1310995D01*
X-3381044Y1310995D01*
X-3394049Y1318920D01*
X-3401872Y1335278D01*
X-3403498Y1356461D01*
X-3437715Y1356461D01*
X-3438753Y1350111D01*
X-3435197Y1327759D01*
X-3425494Y1308303D01*
X-3407105Y1292148D01*
X-3386074Y1285189D01*
X-3351428Y1286713D01*
X-3330956Y1297127D01*
X-3318001Y1311859D01*
X-3308045Y1333652D01*
X-3303371Y1358544D01*
X-3306114Y1388973D01*
X-3312769Y1411427D01*
X-3322472Y1430477D01*
X-3338068Y1448511D01*
X-3356254Y1461008D01*
X-3378250Y1469644D01*
X-3400044Y1473301D01*
G37*
G36*
X-2898292Y1437843D02*
G01*
X-2924251Y1431137D01*
X-2946349Y1420317D01*
X-2967380Y1400860D01*
X-3387394Y867308D01*
X-3437196Y803808D01*
X-3371951Y803808D01*
X-3370376Y832002D01*
X-3361944Y848918D01*
X-2943910Y1379677D01*
X-2927096Y1395374D01*
X-2903982Y1404010D01*
X-2879852Y1403807D01*
X-2858262Y1395526D01*
X-2843022Y1381810D01*
X-2424023Y849579D01*
X-2414727Y832002D01*
X-2414625Y796036D01*
X-2424277Y776478D01*
X-2439720Y760577D01*
X-2463241Y749503D01*
X-2677820Y748284D01*
X-2677916Y716737D01*
X-2491232Y716737D01*
X-2493822Y694791D01*
X-2504744Y672490D01*
X-2523744Y655726D01*
X-2543606Y648411D01*
X-2644038Y646531D01*
X-2644038Y716737D01*
X-2677916Y716737D01*
X-2678938Y381558D01*
X-2689910Y358292D01*
X-2708554Y339648D01*
X-2731820Y328676D01*
X-3055366Y328676D01*
X-3082137Y343204D01*
X-3096107Y360426D01*
X-3106115Y379425D01*
X-3107283Y747826D01*
X-3322269Y750214D01*
X-3344113Y759612D01*
X-3364788Y782269D01*
X-3371951Y803808D01*
X-3437196Y803808D01*
X-3465626Y767588D01*
X-3477056Y747369D01*
X-3484118Y719937D01*
X-3481748Y694537D01*
X-3450793Y694537D01*
X-3450793Y732586D01*
X-3441039Y750925D01*
X-3407105Y793953D01*
X-3401110Y795274D01*
X-3401110Y787095D01*
X-3386429Y757732D01*
X-3366312Y737311D01*
X-3349751Y726897D01*
X-3326028Y717956D01*
X-3141014Y716483D01*
X-3140913Y396392D01*
X-3134715Y366776D01*
X-3121558Y340004D01*
X-3097682Y315671D01*
X-3078276Y304393D01*
X-3053232Y294944D01*
X-2755696Y293624D01*
X-2758389Y277926D01*
X-2772003Y250647D01*
X-2794152Y232664D01*
X-2816098Y226110D01*
X-3130296Y226110D01*
X-3154629Y235254D01*
X-3176066Y256794D01*
X-3186480Y277926D01*
X-3187598Y646938D01*
X-3385261Y646988D01*
X-3409492Y650951D01*
X-3425291Y658469D01*
X-3441750Y674878D01*
X-3450793Y694537D01*
X-3481748Y694537D01*
X-3474618Y673455D01*
X-3461004Y652272D01*
X-3442360Y634085D01*
X-3410864Y618388D01*
X-3219246Y617169D01*
X-3219145Y288493D01*
X-3214827Y269748D01*
X-3202025Y240538D01*
X-3204108Y238455D01*
X-3232962Y255879D01*
X-3259886Y264210D01*
X-3591458Y264210D01*
X-3591458Y440943D01*
X-3597757Y465175D01*
X-3608730Y486816D01*
X-3627831Y507238D01*
X-3648557Y520496D01*
X-3674313Y528523D01*
X-3703065Y528523D01*
X-3729939Y520192D01*
X-3751122Y505612D01*
X-4283811Y85496D01*
X-4297781Y67208D01*
X-4397146Y-11074D01*
X-4413961Y-34544D01*
X-4422851Y-58267D01*
X-4424229Y-74625D01*
X-4393438Y-74625D01*
X-4388307Y-53289D01*
X-4376318Y-34290D01*
X-4314698Y14681D01*
X-4313021Y14681D01*
X-4310971Y3048D01*
X-4278731Y3048D01*
X-4278680Y28397D01*
X-4274566Y43332D01*
X-4262526Y62230D01*
X-3725722Y485190D01*
X-3704742Y495655D01*
X-3677107Y496925D01*
X-3652113Y486460D01*
X-3635654Y470357D01*
X-3624224Y447141D01*
X-3622954Y232613D01*
X-3256279Y231394D01*
X-3231845Y219049D01*
X-3212592Y198526D01*
X-3203397Y178562D01*
X-3202228Y-135686D01*
X-3206445Y-151333D01*
X-3220313Y-174447D01*
X-3240430Y-189636D01*
X-3262629Y-197866D01*
X-3624224Y-197866D01*
X-3624542Y-230632D01*
X-3316528Y-230632D01*
X-3316528Y-240538D01*
X-3329381Y-266242D01*
X-3346704Y-281889D01*
X-3370478Y-293014D01*
X-3591458Y-294182D01*
X-3591458Y-230632D01*
X-3624542Y-230632D01*
X-3626358Y-417779D01*
X-3635654Y-435203D01*
X-3657041Y-454406D01*
X-3676802Y-461162D01*
X-3704590Y-461060D01*
X-3722674Y-452831D01*
X-4252264Y-35458D01*
X-4266539Y-22352D01*
X-4278731Y3048D01*
X-4310971Y3048D01*
X-4308398Y-11785D01*
X-4293768Y-41351D01*
X-4273448Y-60909D01*
X-3753205Y-470814D01*
X-3736848Y-483158D01*
X-3738829Y-510895D01*
X-3747515Y-530504D01*
X-3764127Y-547116D01*
X-3784955Y-557377D01*
X-3818788Y-557276D01*
X-3837787Y-548284D01*
X-4355896Y-139496D01*
X-4380788Y-117805D01*
X-4390948Y-95605D01*
X-4393438Y-74625D01*
X-4424229Y-74625D01*
X-4425137Y-85801D01*
X-4418380Y-112217D01*
X-4409338Y-130200D01*
X-4394809Y-148082D01*
X-3866997Y-564286D01*
X-3845153Y-579983D01*
X-3823157Y-588365D01*
X-3795318Y-590702D01*
X-3773017Y-585876D01*
X-3748989Y-574598D01*
X-3721201Y-546811D01*
X-3709365Y-522427D01*
X-3704691Y-492861D01*
X-3685540Y-495350D01*
X-3656380Y-488543D01*
X-3631590Y-475335D01*
X-3611473Y-455523D01*
X-3597605Y-429514D01*
X-3591509Y-400862D01*
X-3591458Y-325780D01*
X-3376625Y-325780D01*
X-3351784Y-319328D01*
X-3326079Y-305714D01*
X-3302762Y-282397D01*
X-3289046Y-256489D01*
X-3283458Y-231902D01*
X-3245662Y-226466D01*
X-3216097Y-211734D01*
X-3196285Y-194614D01*
X-3179114Y-168910D01*
X-3170377Y-140766D01*
X-3167938Y153162D01*
X-3172917Y184658D01*
X-3183636Y210261D01*
X-3185922Y217678D01*
X-3179267Y217678D01*
X-3159963Y204622D01*
X-3135731Y195478D01*
X-2816809Y194310D01*
X-2793136Y201117D01*
X-2767838Y214528D01*
X-2744012Y238252D01*
X-2729077Y268122D01*
X-2723642Y298500D01*
X-2711297Y302818D01*
X-2692146Y313029D01*
X-2673908Y327964D01*
X-2654858Y356209D01*
X-2645206Y383692D01*
X-2643733Y614832D01*
X-2539390Y616661D01*
X-2515057Y625602D01*
X-2491333Y641350D01*
X-2474569Y662533D01*
X-2466390Y678535D01*
X-2460142Y705104D01*
X-2460091Y718108D01*
X-2437790Y725119D01*
X-2417622Y737920D01*
X-2399588Y756462D01*
X-2386431Y781253D01*
X-2381402Y800150D01*
X-2381605Y829868D01*
X-2390444Y855268D01*
X-2401620Y872185D01*
X-2809646Y1390294D01*
X-2828696Y1412900D01*
X-2851404Y1427988D01*
X-2884068Y1437640D01*
G37*
G36*
X-3383178Y1192530D02*
G01*
X-3409777Y1110081D01*
X-3384651Y1110081D01*
X-3381959Y1117092D01*
X-3365652Y1172464D01*
X-3363214Y1166114D01*
X-3356864Y1140764D01*
X-3348228Y1115771D01*
X-3348228Y1110081D01*
X-3409777Y1110081D01*
X-3429050Y1050848D01*
X-3401263Y1050848D01*
X-3389071Y1089964D01*
X-3342843Y1091184D01*
X-3330752Y1050848D01*
X-3304133Y1050848D01*
X-3312160Y1075182D01*
X-3348685Y1189380D01*
X-3350615Y1192530D01*
G37*
G36*
X-3499459Y1190345D02*
G01*
X-3516426Y1182624D01*
X-3529634Y1167587D01*
X-3537508Y1144981D01*
X-3537490Y1110640D01*
X-3513785Y1110640D01*
X-3511397Y1147521D01*
X-3505250Y1162253D01*
X-3493617Y1171397D01*
X-3486048Y1171397D01*
X-3473043Y1160475D01*
X-3466236Y1137107D01*
X-3467912Y1089964D01*
X-3477006Y1072642D01*
X-3489604Y1067409D01*
X-3498189Y1070102D01*
X-3508451Y1082294D01*
X-3513785Y1110640D01*
X-3537490Y1110640D01*
X-3537458Y1094232D01*
X-3529634Y1071575D01*
X-3512159Y1053388D01*
X-3493109Y1048308D01*
X-3472383Y1050747D01*
X-3456076Y1062024D01*
X-3442360Y1089914D01*
X-3442360Y1149197D01*
X-3451199Y1168247D01*
X-3463340Y1182573D01*
X-3480409Y1190345D01*
G37*
G36*
X-40436Y998016D02*
G01*
X-43078Y954633D01*
X-66395Y373126D01*
X-69037Y278993D01*
X-72136Y278993D01*
X-185877Y417525D01*
X-456387Y748893D01*
X-463397Y757732D01*
X-479653Y745337D01*
X-495503Y731062D01*
X-495503Y727659D01*
X-156768Y310896D01*
X-200507Y256692D01*
X-325272Y105257D01*
X-325272Y98399D01*
X-296113Y73863D01*
X-293573Y74168D01*
X-182676Y208178D01*
X-129489Y270560D01*
X-125730Y270560D01*
X-75742Y215138D01*
X-74472Y203555D01*
X-91389Y43230D01*
X-94284Y6756D01*
X-69392Y3911D01*
X-52069Y1574D01*
X-28194Y229311D01*
X-762Y918718D01*
X2082Y995730D01*
X-35560Y997153D01*
G37*
G36*
X1370685Y889812D02*
G01*
X1369415Y888542D01*
X1399286Y841248D01*
X1432560Y783336D01*
X1466697Y717804D01*
X1500682Y642772D01*
X1528267Y573278D01*
X1555902Y491540D01*
X1572463Y434340D01*
X1589532Y365201D01*
X1604111Y290626D01*
X1614881Y220827D01*
X1623212Y138379D01*
X1628190Y41097D01*
X1625447Y-68884D01*
X1619300Y-144018D01*
X1610614Y-214782D01*
X1602130Y-265531D01*
X1591310Y-320497D01*
X1575054Y-388467D01*
X1559712Y-443179D01*
X1534007Y-521411D01*
X1509826Y-584860D01*
X1485442Y-641959D01*
X1449882Y-715772D01*
X1417523Y-775157D01*
X1386078Y-828040D01*
X1334312Y-906271D01*
X1288592Y-967587D01*
X1245158Y-1020876D01*
X1191666Y-1080820D01*
X1127506Y-1145336D01*
X1076756Y-1191514D01*
X1015085Y-1242872D01*
X949858Y-1291488D01*
X903376Y-1323441D01*
X850493Y-1356512D01*
X789178Y-1391869D01*
X702462Y-1435506D01*
X634796Y-1465072D01*
X562864Y-1492605D01*
X478282Y-1520240D01*
X406400Y-1539494D01*
X330250Y-1556308D01*
X239318Y-1571294D01*
X163220Y-1579626D01*
X99771Y-1583893D01*
X13055Y-1586585D01*
X-88442Y-1581912D01*
X-158242Y-1575409D01*
X-247040Y-1562760D01*
X-323189Y-1547723D01*
X-407060Y-1526743D01*
X-481787Y-1503883D01*
X-534619Y-1485087D01*
X-593852Y-1461922D01*
X-648817Y-1437690D01*
X-731367Y-1396542D01*
X-796645Y-1359408D01*
X-853948Y-1323492D01*
X-906373Y-1287373D01*
X-963930Y-1244295D01*
X-1010462Y-1206144D01*
X-1052728Y-1169111D01*
X-1111656Y-1113536D01*
X-1177036Y-1043736D01*
X-1232001Y-978204D01*
X-1289151Y-902055D01*
X-1336700Y-830173D01*
X-1368196Y-777290D01*
X-1403096Y-712927D01*
X-1404366Y-703275D01*
X-1433880Y-641959D01*
X-1458315Y-584860D01*
X-1482547Y-521411D01*
X-1508760Y-441706D01*
X-1529130Y-367030D01*
X-1544269Y-299364D01*
X-1554734Y-242265D01*
X-1557680Y-219964D01*
X-1581404Y-242468D01*
X-1597304Y-254406D01*
X-1597304Y-262686D01*
X-1578406Y-356463D01*
X-1559458Y-430479D01*
X-1535633Y-508711D01*
X-1504238Y-594004D01*
X-1478483Y-654507D01*
X-1453388Y-709625D01*
X-1419656Y-777290D01*
X-1378915Y-847090D01*
X-1340967Y-906271D01*
X-1286611Y-982421D01*
X-1238199Y-1042873D01*
X-1183843Y-1104950D01*
X-1118412Y-1172108D01*
X-1057960Y-1227277D01*
X-999896Y-1275791D01*
X-927963Y-1329893D01*
X-855014Y-1378762D01*
X-788416Y-1418386D01*
X-733399Y-1448155D01*
X-690422Y-1469745D01*
X-621334Y-1500936D01*
X-551586Y-1528673D01*
X-475843Y-1554530D01*
X-411988Y-1573326D01*
X-325272Y-1594459D01*
X-246125Y-1609394D01*
X-170891Y-1619961D01*
X-109575Y-1626158D01*
X-27889Y-1631137D01*
X135737Y-1628749D01*
X203403Y-1622044D01*
X256235Y-1615592D01*
X309118Y-1607261D01*
X384149Y-1592326D01*
X452831Y-1575409D01*
X512114Y-1558290D01*
X581914Y-1534972D01*
X649579Y-1508455D01*
X691896Y-1490472D01*
X759561Y-1458925D01*
X831443Y-1420622D01*
X905459Y-1376273D01*
X973124Y-1331366D01*
X1049324Y-1274216D01*
X1100023Y-1232052D01*
X1156868Y-1181201D01*
X1226210Y-1111758D01*
X1277670Y-1053998D01*
X1322425Y-999337D01*
X1360474Y-948588D01*
X1394663Y-899921D01*
X1432407Y-840740D01*
X1462735Y-788619D01*
X1498803Y-721156D01*
X1530197Y-653897D01*
X1555750Y-594004D01*
X1587144Y-508711D01*
X1610969Y-430479D01*
X1629867Y-356463D01*
X1648561Y-263398D01*
X1659280Y-191109D01*
X1667662Y-109067D01*
X1672589Y-16002D01*
X1670151Y119329D01*
X1663395Y195478D01*
X1655064Y261010D01*
X1644396Y324459D01*
X1633677Y377342D01*
X1614728Y453440D01*
X1596085Y516890D01*
X1574698Y579678D01*
X1543558Y658571D01*
X1515211Y722020D01*
X1473149Y804519D01*
X1442618Y857300D01*
G37*
G36*
X-671068Y676198D02*
G01*
X-807466Y641197D01*
X-958646Y601929D01*
X-958646Y598881D01*
X-932710Y575767D01*
X-865581Y575767D01*
X-865581Y578815D01*
X-858215Y581710D01*
X-721563Y617372D01*
X-719683Y617372D01*
X-719632Y605739D01*
X-732942Y464058D01*
X-735533Y461162D01*
X-784199Y503783D01*
X-865581Y575767D01*
X-932710Y575767D01*
X-798982Y456692D01*
X-826516Y430225D01*
X-963930Y301701D01*
X-978662Y287477D01*
X-949248Y257860D01*
X-945845Y257860D01*
X-845515Y350316D01*
X-767283Y423265D01*
X-738428Y442214D01*
X-735888Y439674D01*
X-754888Y232664D01*
X-749350Y230530D01*
X-711860Y227685D01*
X-709371Y256794D01*
X-681634Y542290D01*
X-669391Y673404D01*
G37*
G36*
X-1742135Y665784D02*
G01*
X-1777085Y664362D01*
X-1800606Y652830D01*
X-1815642Y637844D01*
X-1824532Y618388D01*
X-1824615Y590905D01*
X-1795983Y590905D01*
X-1795983Y607822D01*
X-1788160Y624738D01*
X-1778050Y634085D01*
X-1762353Y640638D01*
X-1746351Y640283D01*
X-1732584Y635304D01*
X-1719325Y622757D01*
X-1713585Y609041D01*
X-1713585Y589737D01*
X-1719325Y575970D01*
X-1732584Y563473D01*
X-1746351Y558444D01*
X-1762353Y558139D01*
X-1778050Y564692D01*
X-1788160Y573989D01*
X-1795983Y590905D01*
X-1824615Y590905D01*
X-1824634Y584555D01*
X-1812086Y561949D01*
X-1797100Y549554D01*
X-1787601Y547116D01*
X-1787601Y544017D01*
X-1804212Y539038D01*
X-1823821Y519938D01*
X-1833067Y499973D01*
X-1833067Y468274D01*
X-1803349Y468274D01*
X-1803349Y497890D01*
X-1795576Y512673D01*
X-1786534Y522579D01*
X-1769770Y531215D01*
X-1744268Y532993D01*
X-1723085Y522732D01*
X-1711706Y510540D01*
X-1705152Y494842D01*
X-1705203Y470357D01*
X-1712925Y453440D01*
X-1727962Y440232D01*
X-1747469Y432765D01*
X-1770125Y435101D01*
X-1786534Y443534D01*
X-1795576Y453440D01*
X-1803349Y468274D01*
X-1833067Y468274D01*
X-1833067Y461924D01*
X-1821992Y438302D01*
X-1806498Y422808D01*
X-1786382Y412597D01*
X-1759864Y407416D01*
X-1731416Y409803D01*
X-1712518Y417169D01*
X-1694332Y429514D01*
X-1681734Y446836D01*
X-1675028Y470001D01*
X-1676958Y502107D01*
X-1686102Y519938D01*
X-1699056Y534720D01*
X-1722374Y546100D01*
X-1710436Y551180D01*
X-1696567Y562813D01*
X-1685493Y581710D01*
X-1683512Y609955D01*
X-1688287Y627532D01*
X-1701952Y648004D01*
X-1724863Y661670D01*
G37*
G36*
X765048Y634288D02*
G01*
X537514Y609041D01*
X514248Y605688D01*
X512775Y595325D01*
X515670Y564489D01*
X531672Y564489D01*
X725220Y585622D01*
X738936Y585622D01*
X737260Y567639D01*
X720344Y354076D01*
X701751Y125780D01*
X703783Y122529D01*
X743813Y122529D01*
X745642Y127812D01*
X781913Y569772D01*
X783894Y579069D01*
X799744Y572465D01*
X979830Y480110D01*
X985113Y478840D01*
X1003808Y512673D01*
X1002741Y518363D01*
X778560Y633882D01*
G37*
G36*
X-547878Y632155D02*
G01*
X-568858Y601472D01*
X-571652Y596646D01*
X-428904Y498093D01*
X-425704Y493623D01*
X-428243Y432308D01*
X-431444Y371957D01*
X-434289Y369163D01*
X-579069Y416407D01*
X-590397Y418947D01*
X-601675Y382828D01*
X-599897Y377342D01*
X-435254Y321767D01*
X-436422Y280060D01*
X-442874Y163728D01*
X-444550Y158750D01*
X-543102Y184048D01*
X-636930Y209194D01*
X-640588Y209194D01*
X-649884Y173736D01*
X-649884Y167589D01*
X-634034Y162864D01*
X-403809Y101396D01*
X-402437Y102819D01*
X-391922Y290626D01*
X-381304Y499821D01*
X-381457Y519023D01*
X-466699Y578205D01*
X-546201Y632155D01*
G37*
G36*
X308457Y602538D02*
G01*
X295808Y571906D01*
X242874Y432308D01*
X111099Y83413D01*
X107137Y79349D01*
X109982Y532739D01*
X67310Y532739D01*
X64973Y506323D01*
X63449Y-48361D01*
X97637Y-53238D01*
X104902Y-54660D01*
X130810Y11480D01*
X208178Y214528D01*
X302209Y464058D01*
X305968Y468071D01*
X305968Y29464D01*
X350367Y29464D01*
X350367Y595833D01*
X319684Y600710D01*
X315468Y602234D01*
G37*
G36*
X-3983736Y598474D02*
G01*
X-4019651Y597001D01*
X-4038701Y588365D01*
X-4050944Y576122D01*
X-4059478Y557072D01*
X-4059478Y527304D01*
X-4048455Y503123D01*
X-4029405Y478383D01*
X-3990594Y441807D01*
X-4063034Y441807D01*
X-4063034Y412242D01*
X-3940352Y412242D01*
X-3940352Y433273D01*
X-4013809Y506323D01*
X-4025493Y530707D01*
X-4023512Y554634D01*
X-4008475Y568401D01*
X-3988968Y571296D01*
X-3966870Y564083D01*
X-3955592Y556006D01*
X-3952900Y556006D01*
X-3944620Y575411D01*
X-3944620Y581304D01*
X-3955948Y588772D01*
G37*
G36*
X-4215282Y596188D02*
G01*
X-4215282Y571246D01*
X-4138523Y412242D01*
X-4103217Y412242D01*
X-4103217Y414375D01*
X-4179315Y566623D01*
X-4092600Y566623D01*
X-4092600Y596188D01*
G37*
G36*
X2199640Y551434D02*
G01*
X2158187Y550062D01*
X2135479Y538937D01*
X2126691Y520852D01*
X2126691Y502767D01*
X2127488Y501091D01*
X2152091Y501091D01*
X2152091Y517398D01*
X2160727Y528370D01*
X2176424Y532739D01*
X2189073Y532282D01*
X2196490Y530352D01*
X2196490Y485800D01*
X2164334Y487426D01*
X2152091Y501091D01*
X2127488Y501091D01*
X2133549Y488289D01*
X2145588Y478180D01*
X2151024Y476046D01*
X2139797Y466140D01*
X2134717Y456082D01*
X2122576Y411175D01*
X2122474Y407974D01*
X2147671Y407974D01*
X2156307Y435914D01*
X2156409Y442874D01*
X2164638Y461009D01*
X2179421Y467207D01*
X2196490Y467207D01*
X2196490Y407974D01*
X2221941Y407974D01*
X2220823Y548640D01*
G37*
G36*
X2107590Y549859D02*
G01*
X2077415Y548640D01*
X2051659Y499008D01*
X2049525Y499160D01*
X2024634Y549706D01*
X1995424Y549706D01*
X2000097Y540969D01*
X2035759Y481787D01*
X2035759Y480364D01*
X1997964Y416661D01*
X1993341Y407974D01*
X2022856Y407974D01*
X2052320Y463651D01*
X2080209Y407974D01*
X2109520Y407974D01*
X2067255Y480161D01*
G37*
G36*
X-2080514Y528574D02*
G01*
X-2119833Y526999D01*
X-2155139Y509524D01*
X-2177389Y485190D01*
X-2189226Y460095D01*
X-2191867Y440791D01*
X-2193899Y433374D01*
X-2214168Y433374D01*
X-2236978Y429107D01*
X-2263292Y416255D01*
X-2286101Y395427D01*
X-2300986Y366776D01*
X-2305710Y344322D01*
X-2305710Y266293D01*
X-2274366Y266293D01*
X-2272842Y354076D01*
X-2261666Y375208D01*
X-2245410Y390855D01*
X-2225751Y399542D01*
X-2201011Y401421D01*
X-2193645Y399237D01*
X-2193645Y266293D01*
X-2305710Y266293D01*
X-2305710Y264210D01*
X-2524861Y264210D01*
X-2547823Y257403D01*
X-2568854Y246735D01*
X-2595575Y221081D01*
X-2612085Y188112D01*
X-2614930Y169062D01*
X-2631135Y169062D01*
X-2653588Y164388D01*
X-2681071Y151434D01*
X-2711043Y121462D01*
X-2723946Y93980D01*
X-2728620Y71577D01*
X-2728620Y-229768D01*
X-2725835Y-240131D01*
X-2695854Y-240131D01*
X-2695854Y83413D01*
X-2684678Y107289D01*
X-2666898Y125069D01*
X-2643378Y135839D01*
X-2615234Y137820D01*
X-2615488Y-140766D01*
X-2614710Y-142900D01*
X-2581656Y-142900D01*
X-2581656Y178562D01*
X-2572461Y198526D01*
X-2552598Y219710D01*
X-2528824Y231394D01*
X-2159914Y232562D01*
X-2158746Y451358D01*
X-2148281Y471779D01*
X-2131771Y486714D01*
X-2112264Y495350D01*
X-2084730Y496874D01*
X-2063445Y488391D01*
X-1534922Y71729D01*
X-1517243Y55321D01*
X-1507794Y36880D01*
X-1505813Y6756D01*
X-1513281Y-15595D01*
X-1534922Y-37490D01*
X-2062683Y-452983D01*
X-2080514Y-461060D01*
X-2112213Y-461060D01*
X-2130602Y-452678D01*
X-2146960Y-439775D01*
X-2160828Y-411530D01*
X-2162098Y-199491D01*
X-2526690Y-196494D01*
X-2552700Y-184556D01*
X-2570480Y-166776D01*
X-2581656Y-142900D01*
X-2614710Y-142900D01*
X-2604516Y-170789D01*
X-2588615Y-194767D01*
X-2571089Y-209854D01*
X-2553868Y-220065D01*
X-2528824Y-229514D01*
X-2193645Y-230784D01*
X-2193544Y-405130D01*
X-2187295Y-431647D01*
X-2179116Y-447700D01*
X-2162251Y-469036D01*
X-2136140Y-486105D01*
X-2108911Y-493877D01*
X-2110079Y-499262D01*
X-2171446Y-547827D01*
X-2190445Y-557276D01*
X-2222195Y-558800D01*
X-2246172Y-549757D01*
X-2263241Y-533196D01*
X-2272944Y-515061D01*
X-2275027Y-295148D01*
X-2643022Y-293014D01*
X-2666898Y-281838D01*
X-2684678Y-264058D01*
X-2695854Y-240131D01*
X-2725835Y-240131D01*
X-2719984Y-261315D01*
X-3042666Y-259943D01*
X-3065932Y-264922D01*
X-3093415Y-277825D01*
X-3121406Y-305714D01*
X-3132074Y-326847D01*
X-3138881Y-349808D01*
X-3138881Y-363982D01*
X-3146298Y-366420D01*
X-3173222Y-379171D01*
X-3199282Y-405130D01*
X-3213100Y-431444D01*
X-3219196Y-460095D01*
X-3219246Y-681075D01*
X-3187750Y-681075D01*
X-3186480Y-449529D01*
X-3175508Y-426262D01*
X-3163366Y-411886D01*
X-3146704Y-399796D01*
X-3141014Y-399796D01*
X-3141014Y-681075D01*
X-3307029Y-681126D01*
X-3334512Y-685495D01*
X-3359861Y-697382D01*
X-3380740Y-715924D01*
X-3396234Y-739902D01*
X-3402888Y-764590D01*
X-3405581Y-784402D01*
X-3426206Y-791311D01*
X-3434111Y-796391D01*
X-3370478Y-796391D01*
X-3370376Y-760374D01*
X-3360928Y-742492D01*
X-3347212Y-726948D01*
X-3321812Y-714908D01*
X-3107283Y-714908D01*
X-3106115Y-345897D01*
X-3096209Y-325932D01*
X-3079445Y-306933D01*
X-3051251Y-293014D01*
X-2740253Y-292150D01*
X-2713075Y-300837D01*
X-2687015Y-326847D01*
X-2677871Y-351332D01*
X-2677871Y-714756D01*
X-2459024Y-715975D01*
X-2441143Y-725525D01*
X-2427071Y-737870D01*
X-2414625Y-760374D01*
X-2414625Y-798423D01*
X-2423871Y-815340D01*
X-2840990Y-1344015D01*
X-2854401Y-1357934D01*
X-2877108Y-1369060D01*
X-2907944Y-1369060D01*
X-2931210Y-1357680D01*
X-2947517Y-1339799D01*
X-3359861Y-816559D01*
X-3370478Y-796391D01*
X-3434111Y-796391D01*
X-3451504Y-807618D01*
X-3469436Y-830173D01*
X-3479241Y-852169D01*
X-3484321Y-879906D01*
X-3483653Y-883513D01*
X-3452317Y-883513D01*
X-3449472Y-861872D01*
X-3441750Y-844448D01*
X-3425444Y-826312D01*
X-3404311Y-816457D01*
X-3397859Y-816406D01*
X-3389477Y-832154D01*
X-2971444Y-1363065D01*
X-2950159Y-1384909D01*
X-2930296Y-1395679D01*
X-2905404Y-1402181D01*
X-2889351Y-1402181D01*
X-2889351Y-1406144D01*
X-2925521Y-1451864D01*
X-2940659Y-1463344D01*
X-2961640Y-1470304D01*
X-2989783Y-1468678D01*
X-3009595Y-1459077D01*
X-3026460Y-1441297D01*
X-3436061Y-921105D01*
X-3445154Y-908303D01*
X-3452317Y-883513D01*
X-3483653Y-883513D01*
X-3479546Y-905713D01*
X-3467303Y-931671D01*
X-3047746Y-1464564D01*
X-3024987Y-1486306D01*
X-3002229Y-1497482D01*
X-2969920Y-1504035D01*
X-2935020Y-1495196D01*
X-2912668Y-1481683D01*
X-2894126Y-1462430D01*
X-2396490Y-831240D01*
X-2385822Y-810056D01*
X-2379624Y-780389D01*
X-2383637Y-756158D01*
X-2390394Y-737311D01*
X-2403195Y-717346D01*
X-2421229Y-700735D01*
X-2439974Y-689914D01*
X-2462936Y-683209D01*
X-2643886Y-683209D01*
X-2645257Y-348030D01*
X-2653131Y-323596D01*
X-2650947Y-321411D01*
X-2632405Y-325678D01*
X-2305710Y-325780D01*
X-2305710Y-507288D01*
X-2297734Y-532892D01*
X-2286863Y-551434D01*
X-2261463Y-574954D01*
X-2239111Y-585419D01*
X-2216658Y-590143D01*
X-2198928Y-590092D01*
X-2176932Y-584250D01*
X-2154478Y-572058D01*
X-1616252Y-147828D01*
X-1602587Y-130708D01*
X-1507134Y-55422D01*
X-1489049Y-35814D01*
X-1476908Y-9652D01*
X-1472742Y16764D01*
X-1476908Y43230D01*
X-1490929Y72796D01*
X-1507388Y90576D01*
X-2038502Y508965D01*
X-2055875Y520446D01*
G37*
G36*
X470916Y446074D02*
G01*
X470916Y403758D01*
X578764Y403758D01*
X578764Y446074D01*
G37*
G36*
X2547620Y372059D02*
G01*
X2531668Y372008D01*
X2515971Y367639D01*
X2514041Y364540D01*
X2518867Y346354D01*
X2529535Y349097D01*
X2559151Y351282D01*
X2570784Y342138D01*
X2570784Y329488D01*
X2566263Y321005D01*
X2525369Y302006D01*
X2515260Y292760D01*
X2507437Y275844D01*
X2507386Y265277D01*
X2512060Y248361D01*
X2528570Y232562D01*
X2552598Y225602D01*
X2582418Y227838D01*
X2599994Y234899D01*
X2595930Y250444D01*
X2594305Y255371D01*
X2568295Y247294D01*
X2550261Y247294D01*
X2535885Y256946D01*
X2534615Y272491D01*
X2539390Y281482D01*
X2582570Y301650D01*
X2593695Y314858D01*
X2598724Y330047D01*
X2595880Y345592D01*
X2585872Y360934D01*
X2563622Y372059D01*
G37*
G36*
X2430170Y371957D02*
G01*
X2401112Y365810D01*
X2382875Y355142D01*
X2369921Y339394D01*
X2362758Y318109D01*
X2362886Y303885D01*
X2388158Y303885D01*
X2393543Y327914D01*
X2406853Y343103D01*
X2423820Y350824D01*
X2458720Y350926D01*
X2458720Y246735D01*
X2423668Y248564D01*
X2404973Y258927D01*
X2392934Y276098D01*
X2388158Y303885D01*
X2362886Y303885D01*
X2363063Y284276D01*
X2371902Y261010D01*
X2385009Y245160D01*
X2403754Y234188D01*
X2425954Y228549D01*
X2455519Y227431D01*
X2484170Y228244D01*
X2483053Y368858D01*
X2461869Y371398D01*
G37*
G36*
X2273655Y369925D02*
G01*
X2247056Y287477D01*
X2272182Y287477D01*
X2274874Y294487D01*
X2291181Y349859D01*
X2293569Y343509D01*
X2299970Y318109D01*
X2308555Y293166D01*
X2308555Y287477D01*
X2247056Y287477D01*
X2227783Y228244D01*
X2255570Y228244D01*
X2267712Y267360D01*
X2313940Y268579D01*
X2326081Y228244D01*
X2352700Y228244D01*
X2344674Y252577D01*
X2308148Y366776D01*
X2306218Y369925D01*
G37*
G36*
X-4243882Y367842D02*
G01*
X-4270430Y285343D01*
X-4245356Y285343D01*
X-4242612Y292354D01*
X-4226356Y347726D01*
X-4223918Y341376D01*
X-4217517Y316026D01*
X-4208932Y291033D01*
X-4208932Y285343D01*
X-4270430Y285343D01*
X-4289755Y226110D01*
X-4261916Y226110D01*
X-4249775Y265277D01*
X-4203547Y266446D01*
X-4191406Y226110D01*
X-4164787Y226110D01*
X-4172813Y250444D01*
X-4209389Y364642D01*
X-4211320Y367842D01*
G37*
G36*
X-4367530Y363575D02*
G01*
X-4367530Y226110D01*
X-4344263Y226110D01*
X-4344263Y338226D01*
X-4339894Y338226D01*
X-4318457Y327355D01*
X-4317187Y328676D01*
X-4314342Y347726D01*
X-4345330Y363321D01*
G37*
G36*
X506730Y344576D02*
G01*
X505002Y339293D01*
X493369Y62077D01*
X496112Y54864D01*
X536448Y54864D01*
X546862Y290626D01*
X549656Y342290D01*
X510032Y343662D01*
G37*
G36*
X-425754Y-4368D02*
G01*
X-425754Y-26568D01*
X-417017Y-271272D01*
X-418896Y-273151D01*
X-523900Y-151333D01*
X-616458Y-44551D01*
X-618642Y-44551D01*
X-649884Y-70866D01*
X-649884Y-73558D01*
X-566572Y-170383D01*
X-518566Y-226771D01*
X-519836Y-232206D01*
X-608634Y-328828D01*
X-822858Y-560070D01*
X-796848Y-585114D01*
X-789889Y-590296D01*
X-579120Y-362813D01*
X-486664Y-264464D01*
X-485393Y-264464D01*
X-420370Y-339801D01*
X-410667Y-521411D01*
X-408279Y-539750D01*
X-366877Y-538327D01*
X-364337Y-535787D01*
X-375970Y-160832D01*
X-379120Y-64617D01*
X-381863Y-4368D01*
G37*
G36*
X279095Y-10718D02*
G01*
X276352Y-43078D01*
X276352Y-54660D01*
X349300Y-57353D01*
X519785Y-61010D01*
X521309Y-62534D01*
X441401Y-500278D01*
X431241Y-559460D01*
X432765Y-561187D01*
X461365Y-566724D01*
X472643Y-566877D01*
X477062Y-546303D01*
X551434Y-144983D01*
X563270Y-84683D01*
X565658Y-82296D01*
X672846Y-159410D01*
X996950Y-395579D01*
X1001572Y-395579D01*
X1018844Y-373735D01*
X1024737Y-362356D01*
X884326Y-258876D01*
X554228Y-17576D01*
X313334Y-12547D01*
X285851Y-11531D01*
G37*
G36*
X-292506Y-23418D02*
G01*
X-292506Y-328980D01*
X-289763Y-439166D01*
X-258064Y-448309D01*
X-253796Y-445719D01*
X-158242Y-300583D01*
X-65481Y-158597D01*
X-59182Y-153466D01*
X-61620Y-166166D01*
X-86055Y-416661D01*
X-83464Y-419252D01*
X-49530Y-421538D01*
X-47244Y-411429D01*
X-28295Y-216916D01*
X-15494Y-77673D01*
X-16764Y-76403D01*
X-45161Y-65684D01*
X-50850Y-65684D01*
X-251256Y-372719D01*
X-254152Y-354330D01*
X-254457Y-216916D01*
X-257251Y-23418D01*
G37*
G36*
X118059Y-124917D02*
G01*
X113639Y-138633D01*
X73741Y-271678D01*
X120040Y-271678D01*
X145643Y-189382D01*
X150164Y-175666D01*
X156870Y-176022D01*
X203403Y-186080D01*
X269798Y-201726D01*
X271830Y-207060D01*
X274878Y-311251D01*
X121920Y-273608D01*
X120040Y-271678D01*
X73741Y-271678D01*
X-72237Y-758240D01*
X-91186Y-822756D01*
X-88138Y-824636D01*
X-56794Y-833323D01*
X-49682Y-833323D01*
X-38912Y-800557D01*
X105562Y-320497D01*
X109016Y-316738D01*
X150520Y-326186D01*
X271068Y-355549D01*
X276910Y-359206D01*
X305816Y-1157935D01*
X305968Y-1175918D01*
X348234Y-1175918D01*
X348234Y-1121562D01*
X331317Y-650392D01*
X316484Y-252831D01*
X312775Y-166979D01*
X310591Y-164795D01*
X161086Y-131622D01*
X131470Y-125323D01*
G37*
G36*
X2339238Y-275234D02*
G01*
X2307488Y-277012D01*
X2282494Y-285648D01*
X2262124Y-298704D01*
X2240686Y-322173D01*
X2230272Y-342646D01*
X2223973Y-366877D01*
X2223999Y-392684D01*
X2257552Y-392684D01*
X2257653Y-367030D01*
X2261870Y-352958D01*
X2272385Y-334975D01*
X2290064Y-318973D01*
X2309622Y-310286D01*
X2341372Y-308762D01*
X2362504Y-316636D01*
X3487521Y-838301D01*
X3504590Y-849833D01*
X3516223Y-871219D01*
X3518662Y-891844D01*
X3511956Y-914755D01*
X3498748Y-930706D01*
X3481578Y-939495D01*
X3105150Y-1029969D01*
X3103524Y-1031544D01*
X3121549Y-1050950D01*
X3166618Y-1050950D01*
X3168954Y-1048613D01*
X3396284Y-994054D01*
X3417722Y-1004062D01*
X3429101Y-1016253D01*
X3433572Y-1028141D01*
X3433572Y-1043889D01*
X3424072Y-1062532D01*
X3412744Y-1070762D01*
X3229660Y-1114704D01*
X3224733Y-1113536D01*
X3166618Y-1050950D01*
X3121549Y-1050950D01*
X3476244Y-1432864D01*
X3487216Y-1449781D01*
X3494938Y-1474470D01*
X3494938Y-1498701D01*
X3488131Y-1521663D01*
X3477412Y-1540002D01*
X3408121Y-1604518D01*
X3385312Y-1616100D01*
X3357778Y-1620824D01*
X3332175Y-1616049D01*
X3309874Y-1604873D01*
X3297682Y-1593545D01*
X2931972Y-1201013D01*
X2930296Y-1202690D01*
X2873633Y-1370177D01*
X2908757Y-1370177D01*
X2944012Y-1264716D01*
X2946146Y-1264716D01*
X3261918Y-1604162D01*
X3282442Y-1625549D01*
X3305657Y-1641246D01*
X3338626Y-1651711D01*
X3378454Y-1651711D01*
X3410305Y-1641602D01*
X3410305Y-1649577D01*
X3402380Y-1670507D01*
X3394100Y-1681022D01*
X3330600Y-1739798D01*
X3309874Y-1749958D01*
X3273907Y-1750060D01*
X3249879Y-1738223D01*
X2912313Y-1376121D01*
X2908757Y-1370177D01*
X2873633Y-1370177D01*
X2805887Y-1570278D01*
X2801467Y-1581708D01*
X2785414Y-1599488D01*
X2768498Y-1607210D01*
X2739847Y-1607312D01*
X2725928Y-1601470D01*
X2710129Y-1587601D01*
X2702153Y-1572056D01*
X2257552Y-392684D01*
X2223999Y-392684D01*
X2230272Y-416712D01*
X2241143Y-442569D01*
X2239822Y-443534D01*
X2211171Y-456742D01*
X2190394Y-478078D01*
X2176424Y-506526D01*
X2176424Y-512978D01*
X2208225Y-512978D01*
X2217470Y-495452D01*
X2231288Y-481634D01*
X2248306Y-473913D01*
X2252827Y-473811D01*
X2670810Y-1582978D01*
X2682392Y-1606245D01*
X2706116Y-1628698D01*
X2724505Y-1636826D01*
X2746298Y-1641500D01*
X2746298Y-1644904D01*
X2719374Y-1721713D01*
X2709316Y-1732483D01*
X2696921Y-1738934D01*
X2677261Y-1739239D01*
X2660904Y-1730756D01*
X2653131Y-1720291D01*
X2208530Y-542544D01*
X2208225Y-512978D01*
X2176424Y-512978D01*
X2176475Y-548894D01*
X2621432Y-1727758D01*
X2629611Y-1743710D01*
X2645867Y-1760169D01*
X2669133Y-1771192D01*
X2705049Y-1771091D01*
X2727096Y-1761236D01*
X2747670Y-1739442D01*
X2754782Y-1720443D01*
X2783535Y-1636928D01*
X2805633Y-1625904D01*
X2824581Y-1606956D01*
X2834589Y-1589328D01*
X2895396Y-1408582D01*
X2898444Y-1408531D01*
X3211931Y-1745843D01*
X3233775Y-1766620D01*
X3263341Y-1780641D01*
X3291890Y-1784604D01*
X3320440Y-1780590D01*
X3345840Y-1768652D01*
X3364839Y-1752803D01*
X3424326Y-1696567D01*
X3437737Y-1671370D01*
X3444595Y-1642211D01*
X3442462Y-1618132D01*
X3501999Y-1561846D01*
X3517544Y-1537868D01*
X3527602Y-1506880D01*
X3527602Y-1466697D01*
X3517544Y-1435709D01*
X3501745Y-1411681D01*
X3253232Y-1144117D01*
X3255060Y-1142238D01*
X3417722Y-1103426D01*
X3436772Y-1094638D01*
X3456533Y-1074470D01*
X3465728Y-1050086D01*
X3465779Y-1020064D01*
X3456635Y-999337D01*
X3443732Y-983183D01*
X3445205Y-981913D01*
X3492601Y-970940D01*
X3513785Y-960221D01*
X3528974Y-946861D01*
X3541674Y-928420D01*
X3549904Y-904544D01*
X3549802Y-868222D01*
X3539642Y-843534D01*
X3527755Y-826363D01*
X3506520Y-810615D01*
X2381504Y-289102D01*
X2356967Y-279044D01*
G37*
G36*
X2994406Y-298297D02*
G01*
X2974492Y-304292D01*
X2959862Y-315468D01*
X2950972Y-332841D01*
X2952648Y-359156D01*
X2964688Y-374904D01*
X2983382Y-386740D01*
X2970733Y-389534D01*
X2954121Y-401574D01*
X2944622Y-421132D01*
X2946247Y-449986D01*
X2957880Y-467512D01*
X2975406Y-480212D01*
X2996590Y-486511D01*
X3034944Y-486460D01*
X3056229Y-480822D01*
X3067304Y-474878D01*
X3059176Y-448665D01*
X3039211Y-457454D01*
X3009138Y-459536D01*
X2993948Y-454558D01*
X2981045Y-439826D01*
X2981045Y-421995D01*
X2989021Y-408990D01*
X3005378Y-401015D01*
X3038144Y-399389D01*
X3038144Y-374446D01*
X3015945Y-374243D01*
X2995117Y-367030D01*
X2986532Y-355396D01*
X2986989Y-340309D01*
X2994761Y-331724D01*
X3006191Y-325780D01*
X3026511Y-325882D01*
X3051759Y-336296D01*
X3054502Y-333197D01*
X3061411Y-312420D01*
X3060344Y-311556D01*
X3046679Y-304596D01*
X3024378Y-298602D01*
G37*
G36*
X3129076Y-300431D02*
G01*
X3129076Y-484428D01*
X3162909Y-484428D01*
X3162909Y-334264D01*
X3165144Y-334264D01*
X3195066Y-349351D01*
X3196742Y-347675D01*
X3201568Y-323596D01*
X3199892Y-322072D01*
X3157626Y-300634D01*
G37*
G36*
X4045051Y-368096D02*
G01*
X4063288Y-421995D01*
X4110736Y-558546D01*
X4151020Y-557377D01*
X4211777Y-369620D01*
X4211777Y-368096D01*
X4173728Y-368096D01*
X4173728Y-369620D01*
X4138218Y-487578D01*
X4130395Y-520344D01*
X4128211Y-520344D01*
X4118711Y-483362D01*
X4082084Y-368096D01*
G37*
G36*
X4280154Y-372313D02*
G01*
X4260240Y-378307D01*
X4245610Y-389483D01*
X4236720Y-406857D01*
X4238396Y-433120D01*
X4250436Y-448919D01*
X4269130Y-460756D01*
X4256430Y-463550D01*
X4239869Y-475589D01*
X4230370Y-495147D01*
X4231995Y-524001D01*
X4243578Y-541528D01*
X4261154Y-554228D01*
X4282338Y-560527D01*
X4320692Y-560476D01*
X4341977Y-554837D01*
X4353052Y-548894D01*
X4344924Y-522681D01*
X4324959Y-531469D01*
X4294835Y-533552D01*
X4279696Y-528574D01*
X4266793Y-513842D01*
X4266793Y-496011D01*
X4274718Y-483006D01*
X4291076Y-475030D01*
X4323892Y-473405D01*
X4323892Y-448462D01*
X4301693Y-448259D01*
X4280865Y-441045D01*
X4272280Y-429412D01*
X4272737Y-414375D01*
X4280509Y-405739D01*
X4291939Y-399796D01*
X4312259Y-399897D01*
X4337507Y-410311D01*
X4340250Y-407212D01*
X4347108Y-386435D01*
X4346092Y-385572D01*
X4332427Y-378612D01*
X4310126Y-372618D01*
G37*
G36*
X3960825Y-372313D02*
G01*
X3940911Y-378307D01*
X3926281Y-389483D01*
X3917391Y-406857D01*
X3919067Y-433120D01*
X3931107Y-448919D01*
X3949801Y-460756D01*
X3937152Y-463550D01*
X3920540Y-475589D01*
X3911041Y-495147D01*
X3912666Y-524001D01*
X3924300Y-541528D01*
X3941826Y-554228D01*
X3963009Y-560527D01*
X4001363Y-560476D01*
X4022648Y-554837D01*
X4033723Y-548894D01*
X4025595Y-522681D01*
X4005630Y-531469D01*
X3975506Y-533552D01*
X3960368Y-528574D01*
X3947464Y-513842D01*
X3947464Y-496011D01*
X3955440Y-483006D01*
X3971798Y-475030D01*
X4004564Y-473405D01*
X4004564Y-448462D01*
X3982364Y-448259D01*
X3961536Y-441045D01*
X3952951Y-429412D01*
X3953408Y-414375D01*
X3961180Y-405739D01*
X3972610Y-399796D01*
X3992930Y-399897D01*
X4018178Y-410311D01*
X4020921Y-407212D01*
X4027830Y-386435D01*
X4026763Y-385572D01*
X4013098Y-378612D01*
X3990797Y-372618D01*
G37*
G36*
X-2262327Y-1129233D02*
G01*
X-2298293Y-1130706D01*
X-2317343Y-1139342D01*
X-2329586Y-1151585D01*
X-2338120Y-1170635D01*
X-2338120Y-1200404D01*
X-2327046Y-1224584D01*
X-2308047Y-1249324D01*
X-2269185Y-1285849D01*
X-2341676Y-1285849D01*
X-2341676Y-1315466D01*
X-2218994Y-1315466D01*
X-2218994Y-1294434D01*
X-2292451Y-1221384D01*
X-2304135Y-1197000D01*
X-2302103Y-1173073D01*
X-2287066Y-1159306D01*
X-2267610Y-1156411D01*
X-2245512Y-1163624D01*
X-2234184Y-1171702D01*
X-2231542Y-1171702D01*
X-2223211Y-1152296D01*
X-2223211Y-1146403D01*
X-2234590Y-1138986D01*
G37*
G36*
X-2446629Y-1129385D02*
G01*
X-2468930Y-1135989D01*
X-2486964Y-1154074D01*
X-2492197Y-1175715D01*
X-2490301Y-1184605D01*
X-2457958Y-1184605D01*
X-2457958Y-1169517D01*
X-2444191Y-1154480D01*
X-2427325Y-1152601D01*
X-2413660Y-1158748D01*
X-2404872Y-1172718D01*
X-2407005Y-1186942D01*
X-2413609Y-1197000D01*
X-2430322Y-1205534D01*
X-2440482Y-1205534D01*
X-2451709Y-1196695D01*
X-2457958Y-1184605D01*
X-2490301Y-1184605D01*
X-2489200Y-1189634D01*
X-2480462Y-1205433D01*
X-2463800Y-1217015D01*
X-2471166Y-1221384D01*
X-2484221Y-1229918D01*
X-2496108Y-1246784D01*
X-2498699Y-1268882D01*
X-2497194Y-1274267D01*
X-2462174Y-1274267D01*
X-2462174Y-1257808D01*
X-2453843Y-1244295D01*
X-2433066Y-1233017D01*
X-2424734Y-1233017D01*
X-2410764Y-1242517D01*
X-2402179Y-1254150D01*
X-2402179Y-1274572D01*
X-2412085Y-1288491D01*
X-2426106Y-1294333D01*
X-2439060Y-1294333D01*
X-2453640Y-1288237D01*
X-2462174Y-1274267D01*
X-2497194Y-1274267D01*
X-2493416Y-1287830D01*
X-2478633Y-1305052D01*
X-2456891Y-1316228D01*
X-2419299Y-1318158D01*
X-2397048Y-1313180D01*
X-2378659Y-1300835D01*
X-2368092Y-1285138D01*
X-2368092Y-1250696D01*
X-2379980Y-1232662D01*
X-2398623Y-1221384D01*
X-2398572Y-1219250D01*
X-2382012Y-1207770D01*
X-2372918Y-1190040D01*
X-2374544Y-1162151D01*
X-2385669Y-1145895D01*
X-2401620Y-1135075D01*
X-2418842Y-1129690D01*
G37*
G36*
X2249271Y-1194765D02*
G01*
X2219096Y-1195984D01*
X2193340Y-1245616D01*
X2191207Y-1245463D01*
X2166315Y-1194968D01*
X2137156Y-1194968D01*
X2141778Y-1203655D01*
X2177440Y-1262837D01*
X2177440Y-1264259D01*
X2139645Y-1327962D01*
X2135022Y-1336649D01*
X2164588Y-1336649D01*
X2194001Y-1280972D01*
X2221890Y-1336649D01*
X2251202Y-1336649D01*
X2208936Y-1264462D01*
G37*
G36*
X2262022Y-1194968D02*
G01*
X2262022Y-1216101D01*
X2304338Y-1216101D01*
X2304338Y-1336649D01*
X2329738Y-1336649D01*
X2329738Y-1216101D01*
X2369870Y-1216101D01*
X2369870Y-1194968D01*
G37*
G36*
X-2600756Y-1361998D02*
G01*
X-2627308Y-1444498D01*
X-2602230Y-1444498D01*
X-2599537Y-1437436D01*
X-2583230Y-1382115D01*
X-2580792Y-1388414D01*
X-2574442Y-1413814D01*
X-2565806Y-1438808D01*
X-2565806Y-1444498D01*
X-2627308Y-1444498D01*
X-2644698Y-1498396D01*
X-2646629Y-1503680D01*
X-2618790Y-1503680D01*
X-2606649Y-1464564D01*
X-2560421Y-1463395D01*
X-2548331Y-1503680D01*
X-2521661Y-1503680D01*
X-2529687Y-1479346D01*
X-2566263Y-1365199D01*
X-2568194Y-1361998D01*
G37*
G36*
X-2712770Y-1364132D02*
G01*
X-2729585Y-1368806D01*
X-2745181Y-1384350D01*
X-2750210Y-1403045D01*
X-2747568Y-1420164D01*
X-2736291Y-1443380D01*
X-2696819Y-1482547D01*
X-2751886Y-1482547D01*
X-2751886Y-1503680D01*
X-2658872Y-1503680D01*
X-2658872Y-1489557D01*
X-2712059Y-1437081D01*
X-2723083Y-1418488D01*
X-2723337Y-1397609D01*
X-2709570Y-1385265D01*
X-2689098Y-1385265D01*
X-2669438Y-1395730D01*
X-2663088Y-1380540D01*
X-2663088Y-1377289D01*
X-2673045Y-1370787D01*
X-2693771Y-1364437D01*
G37*
G36*
X2417724Y-1440230D02*
G01*
X2385771Y-1440281D01*
X2370074Y-1444650D01*
X2368092Y-1447749D01*
X2372969Y-1465935D01*
X2383637Y-1463192D01*
X2413254Y-1461008D01*
X2424887Y-1470152D01*
X2424887Y-1482801D01*
X2420366Y-1491284D01*
X2379421Y-1510284D01*
X2369312Y-1519529D01*
X2361539Y-1536446D01*
X2361438Y-1547063D01*
X2366111Y-1563979D01*
X2382672Y-1579727D01*
X2406700Y-1586687D01*
X2436520Y-1584452D01*
X2454046Y-1577390D01*
X2450033Y-1561846D01*
X2448407Y-1556918D01*
X2422398Y-1564995D01*
X2404364Y-1564995D01*
X2389987Y-1555343D01*
X2388666Y-1539798D01*
X2393492Y-1530807D01*
X2436672Y-1510639D01*
X2447798Y-1497431D01*
X2452776Y-1482242D01*
X2449982Y-1466697D01*
X2439974Y-1451356D01*
G37*
G36*
X2253335Y-1440230D02*
G01*
X2234590Y-1444955D01*
X2237282Y-1456131D01*
X2240940Y-1466037D01*
X2248306Y-1462836D01*
X2278634Y-1460957D01*
X2294128Y-1466088D01*
X2309266Y-1479346D01*
X2317699Y-1498396D01*
X2317648Y-1528013D01*
X2310485Y-1544878D01*
X2301189Y-1554835D01*
X2284272Y-1563725D01*
X2256739Y-1563979D01*
X2239365Y-1560525D01*
X2236520Y-1578406D01*
X2240483Y-1582369D01*
X2272690Y-1586992D01*
X2303170Y-1581810D01*
X2320544Y-1571599D01*
X2335530Y-1554988D01*
X2344521Y-1531010D01*
X2344521Y-1500225D01*
X2338222Y-1478991D01*
X2326436Y-1461516D01*
X2307844Y-1447800D01*
X2286355Y-1440383D01*
G37*
G36*
X2188057Y-1442364D02*
G01*
X2188057Y-1562912D01*
X2128824Y-1562912D01*
X2128824Y-1584045D01*
X2213406Y-1584045D01*
X2213406Y-1442364D01*
G37*
G36*
X-3620566Y-2053539D02*
G01*
X-3640124Y-2064461D01*
X-3632657Y-2074418D01*
X-3612286Y-2100021D01*
X-3617874Y-2100021D01*
X-3654907Y-2093671D01*
X-3654907Y-2117547D01*
X-3634790Y-2114753D01*
X-3611626Y-2112010D01*
X-3640277Y-2146350D01*
X-3619144Y-2159203D01*
X-3617163Y-2155952D01*
X-3603802Y-2122220D01*
X-3600653Y-2118969D01*
X-3584701Y-2159304D01*
X-3567937Y-2149856D01*
X-3564280Y-2145436D01*
X-3587343Y-2118004D01*
X-3591255Y-2111248D01*
X-3556558Y-2116886D01*
X-3549142Y-2116937D01*
X-3549142Y-2093671D01*
X-3550208Y-2093722D01*
X-3586175Y-2100021D01*
X-3591712Y-2100021D01*
X-3566820Y-2069388D01*
X-3563772Y-2064257D01*
X-3584041Y-2053945D01*
X-3586530Y-2055469D01*
X-3600500Y-2091588D01*
X-3603548Y-2091588D01*
X-3617468Y-2055469D01*
G37*
G36*
X3478479Y-2064105D02*
G01*
X3458921Y-2075078D01*
X3466388Y-2084984D01*
X3486759Y-2110587D01*
X3481171Y-2110587D01*
X3445205Y-2104288D01*
X3444138Y-2104288D01*
X3444138Y-2128113D01*
X3464255Y-2125319D01*
X3487420Y-2122627D01*
X3458768Y-2156917D01*
X3479901Y-2169769D01*
X3481882Y-2166518D01*
X3495243Y-2132838D01*
X3498392Y-2129536D01*
X3514344Y-2169871D01*
X3531108Y-2160422D01*
X3534765Y-2156002D01*
X3511702Y-2128570D01*
X3507790Y-2121814D01*
X3542487Y-2127453D01*
X3549904Y-2127504D01*
X3549904Y-2104288D01*
X3548837Y-2104288D01*
X3512870Y-2110587D01*
X3507333Y-2110587D01*
X3532225Y-2079955D01*
X3535222Y-2074824D01*
X3515004Y-2064512D01*
X3512515Y-2066036D01*
X3498545Y-2102154D01*
X3495497Y-2102154D01*
X3481578Y-2066036D01*
G37*
G36*
X-3491992Y-2076754D02*
G01*
X-3493065Y-2183434D01*
X-3460445Y-2183434D01*
X-3459276Y-2108047D01*
X-3449370Y-2128570D01*
X-3411677Y-2185974D01*
X-3411677Y-2188870D01*
X-3458362Y-2188870D01*
X-3460445Y-2183434D01*
X-3493065Y-2183434D01*
X-3493109Y-2187803D01*
X-3517442Y-2189073D01*
X-3517442Y-2214219D01*
X-3492042Y-2214219D01*
X-3492042Y-2260752D01*
X-3460343Y-2260752D01*
X-3460343Y-2214219D01*
X-3377844Y-2214219D01*
X-3377844Y-2190292D01*
X-3412490Y-2137054D01*
X-3452266Y-2076754D01*
G37*
G36*
X3654551Y-2117090D02*
G01*
X3624783Y-2118055D01*
X3603853Y-2128824D01*
X3590442Y-2146401D01*
X3581654Y-2169922D01*
X3578893Y-2187549D01*
X3612896Y-2187549D01*
X3619855Y-2160371D01*
X3626104Y-2150872D01*
X3635552Y-2144877D01*
X3643985Y-2142540D01*
X3657041Y-2148179D01*
X3666236Y-2159812D01*
X3672840Y-2181453D01*
X3675227Y-2224024D01*
X3670249Y-2252776D01*
X3661308Y-2271826D01*
X3648252Y-2279751D01*
X3636772Y-2279802D01*
X3622141Y-2266950D01*
X3614877Y-2246985D01*
X3612896Y-2187549D01*
X3578893Y-2187549D01*
X3576828Y-2200503D01*
X3579266Y-2242769D01*
X3587496Y-2269185D01*
X3600754Y-2289860D01*
X3616502Y-2300681D01*
X3628390Y-2305151D01*
X3659886Y-2305151D01*
X3678783Y-2296312D01*
X3694176Y-2279243D01*
X3701999Y-2261565D01*
X3708501Y-2236622D01*
X3708450Y-2187803D01*
X3702151Y-2161235D01*
X3693515Y-2144268D01*
X3678174Y-2127250D01*
X3665169Y-2120544D01*
G37*
G36*
X-945286Y-2453182D02*
G01*
X-971397Y-2466238D01*
X-985875Y-2485186D01*
X-993444Y-2507132D01*
X-993379Y-2515260D01*
X-967079Y-2515260D01*
X-960526Y-2493111D01*
X-945540Y-2476550D01*
X-930097Y-2472232D01*
X-921461Y-2472232D01*
X-902614Y-2481732D01*
X-893064Y-2496108D01*
X-888237Y-2513482D01*
X-888237Y-2538831D01*
X-893267Y-2556865D01*
X-906424Y-2571851D01*
X-918260Y-2577947D01*
X-938530Y-2577947D01*
X-952144Y-2569667D01*
X-962660Y-2553614D01*
X-966978Y-2534615D01*
X-967079Y-2515260D01*
X-993379Y-2515260D01*
X-993140Y-2545181D01*
X-983996Y-2568752D01*
X-969111Y-2586177D01*
X-944880Y-2598064D01*
X-908659Y-2598064D01*
X-883666Y-2585262D01*
X-868070Y-2564638D01*
X-861364Y-2540660D01*
X-861364Y-2510942D01*
X-867308Y-2491181D01*
X-880516Y-2470607D01*
X-897077Y-2459126D01*
X-913180Y-2453386D01*
G37*
G36*
X-1242263Y-2453182D02*
G01*
X-1261008Y-2457907D01*
X-1258316Y-2469032D01*
X-1254658Y-2478989D01*
X-1247292Y-2475788D01*
X-1216964Y-2473909D01*
X-1201470Y-2479040D01*
X-1186332Y-2492298D01*
X-1177899Y-2511348D01*
X-1177950Y-2540965D01*
X-1185113Y-2557830D01*
X-1194409Y-2567787D01*
X-1211326Y-2576677D01*
X-1238859Y-2576880D01*
X-1256233Y-2573477D01*
X-1259078Y-2591308D01*
X-1255115Y-2595321D01*
X-1222908Y-2599944D01*
X-1192428Y-2594711D01*
X-1175054Y-2584551D01*
X-1160068Y-2567940D01*
X-1151077Y-2543962D01*
X-1151077Y-2513177D01*
X-1157376Y-2491943D01*
X-1169162Y-2474417D01*
X-1187754Y-2460752D01*
X-1209243Y-2453335D01*
G37*
G36*
X-857148Y-2455316D02*
G01*
X-857148Y-2476449D01*
X-814832Y-2476449D01*
X-814832Y-2596997D01*
X-789482Y-2596997D01*
X-789482Y-2476449D01*
X-749300Y-2476449D01*
X-749300Y-2455316D01*
G37*
G36*
X-1127810Y-2455316D02*
G01*
X-1127760Y-2528265D01*
X-1123746Y-2563317D01*
X-1112418Y-2584094D01*
X-1096772Y-2594508D01*
X-1080211Y-2599080D01*
X-1060907Y-2599080D01*
X-1039774Y-2592832D01*
X-1024432Y-2577490D01*
X-1017066Y-2557881D01*
X-1015390Y-2455316D01*
X-1041095Y-2455316D01*
X-1041095Y-2545486D01*
X-1047546Y-2567076D01*
X-1060450Y-2577947D01*
X-1079398Y-2577947D01*
X-1092200Y-2571343D01*
X-1100226Y-2553614D01*
X-1100328Y-2455316D01*
G37*
G36*
X-1394256Y-2455316D02*
G01*
X-1394256Y-2596997D01*
X-1368907Y-2596997D01*
X-1368907Y-2533548D01*
X-1307541Y-2533548D01*
X-1307541Y-2596997D01*
X-1282192Y-2596997D01*
X-1282192Y-2455316D01*
X-1307439Y-2455316D01*
X-1308608Y-2511348D01*
X-1367840Y-2511348D01*
X-1369009Y-2455316D01*
G37*
G36*
X-1595374Y-2457399D02*
G01*
X-1594104Y-2477516D01*
X-1570837Y-2480208D01*
X-1558950Y-2484932D01*
X-1544624Y-2495804D01*
X-1535938Y-2513736D01*
X-1535938Y-2519476D01*
X-1545488Y-2510586D01*
X-1557375Y-2506065D01*
X-1577187Y-2506167D01*
X-1594104Y-2513939D01*
X-1601368Y-2522067D01*
X-1608175Y-2538476D01*
X-1608088Y-2558897D01*
X-1583029Y-2558897D01*
X-1580896Y-2536952D01*
X-1567586Y-2525115D01*
X-1549196Y-2525115D01*
X-1538630Y-2533396D01*
X-1533398Y-2546096D01*
X-1538478Y-2567279D01*
X-1553006Y-2580081D01*
X-1567129Y-2580081D01*
X-1577695Y-2571750D01*
X-1583029Y-2558897D01*
X-1608088Y-2558897D01*
X-1608074Y-2562301D01*
X-1603349Y-2574747D01*
X-1592478Y-2588971D01*
X-1570837Y-2599080D01*
X-1552295Y-2599080D01*
X-1535938Y-2594203D01*
X-1519631Y-2580233D01*
X-1509776Y-2557881D01*
X-1510030Y-2519781D01*
X-1519174Y-2495905D01*
X-1531721Y-2478633D01*
X-1554276Y-2463647D01*
X-1581404Y-2457754D01*
G37*
G36*
X-680567Y-2458212D02*
G01*
X-681736Y-2522728D01*
X-680567Y-2590749D01*
X-584098Y-2524404D01*
G37*
G36*
X-1442923Y-2495499D02*
G01*
X-1451356Y-2503932D01*
X-1451356Y-2518765D01*
X-1442923Y-2527198D01*
X-1428394Y-2527198D01*
X-1419656Y-2516073D01*
X-1419656Y-2506624D01*
X-1428394Y-2495499D01*
G37*
G36*
X-1444802Y-2567381D02*
G01*
X-1451356Y-2576779D01*
X-1451356Y-2589326D01*
X-1442161Y-2599080D01*
X-1431137Y-2599080D01*
X-1422095Y-2592781D01*
X-1419352Y-2580335D01*
X-1424533Y-2570530D01*
X-1429156Y-2567432D01*
G37*
G36*
X2379014Y-2723896D02*
G01*
X2352903Y-2736951D01*
X2338425Y-2755900D01*
X2330856Y-2777794D01*
X2330921Y-2785973D01*
X2357221Y-2785973D01*
X2363774Y-2763824D01*
X2378760Y-2747213D01*
X2394204Y-2742946D01*
X2402840Y-2742895D01*
X2421686Y-2752394D01*
X2431237Y-2766822D01*
X2436063Y-2784144D01*
X2436063Y-2809494D01*
X2431034Y-2827528D01*
X2417927Y-2842514D01*
X2406040Y-2848660D01*
X2385771Y-2848610D01*
X2372156Y-2840329D01*
X2361641Y-2824327D01*
X2357323Y-2805277D01*
X2357221Y-2785973D01*
X2330921Y-2785973D01*
X2331161Y-2815844D01*
X2340305Y-2839466D01*
X2355189Y-2856839D01*
X2379421Y-2868726D01*
X2415641Y-2868726D01*
X2440635Y-2855976D01*
X2456230Y-2835300D01*
X2462936Y-2811373D01*
X2462936Y-2781655D01*
X2456992Y-2761843D01*
X2443784Y-2741269D01*
X2427224Y-2729788D01*
X2411120Y-2724048D01*
G37*
G36*
X1676958Y-2723896D02*
G01*
X1650796Y-2736951D01*
X1636318Y-2755900D01*
X1628800Y-2777794D01*
X1628865Y-2785973D01*
X1655114Y-2785973D01*
X1661718Y-2763824D01*
X1676704Y-2747213D01*
X1692148Y-2742946D01*
X1700733Y-2742895D01*
X1719580Y-2752394D01*
X1729130Y-2766822D01*
X1734007Y-2784144D01*
X1734007Y-2809494D01*
X1728978Y-2827528D01*
X1715820Y-2842514D01*
X1703984Y-2848660D01*
X1683664Y-2848610D01*
X1670100Y-2840329D01*
X1659585Y-2824327D01*
X1655216Y-2805277D01*
X1655114Y-2785973D01*
X1628865Y-2785973D01*
X1629105Y-2815844D01*
X1638249Y-2839466D01*
X1653133Y-2856839D01*
X1677314Y-2868726D01*
X1713585Y-2868726D01*
X1738528Y-2855976D01*
X1754124Y-2835300D01*
X1760880Y-2811373D01*
X1760880Y-2781655D01*
X1754886Y-2761843D01*
X1741678Y-2741269D01*
X1725117Y-2729788D01*
X1709064Y-2724048D01*
G37*
G36*
X2146808Y-2724404D02*
G01*
X2105507Y-2725369D01*
X2081580Y-2737612D01*
X2071420Y-2756662D01*
X2072334Y-2774340D01*
X2097125Y-2774340D01*
X2097125Y-2761742D01*
X2103221Y-2749854D01*
X2115058Y-2745181D01*
X2129891Y-2743403D01*
X2141524Y-2745282D01*
X2141524Y-2793187D01*
X2127758Y-2795676D01*
X2111806Y-2791968D01*
X2101138Y-2784957D01*
X2097125Y-2774340D01*
X2072334Y-2774340D01*
X2072893Y-2784602D01*
X2084171Y-2801721D01*
X2107438Y-2813050D01*
X2141524Y-2815386D01*
X2141524Y-2867660D01*
X2166874Y-2867660D01*
X2166874Y-2726232D01*
G37*
G36*
X2196490Y-2725978D02*
G01*
X2196541Y-2798927D01*
X2200554Y-2834030D01*
X2211882Y-2854807D01*
X2227529Y-2865170D01*
X2244090Y-2869742D01*
X2263394Y-2869793D01*
X2284526Y-2863494D01*
X2299868Y-2848152D01*
X2307234Y-2828544D01*
X2308910Y-2725978D01*
X2283206Y-2725978D01*
X2283206Y-2816148D01*
X2276754Y-2837738D01*
X2263851Y-2848660D01*
X2244902Y-2848660D01*
X2232101Y-2842006D01*
X2224074Y-2824327D01*
X2223973Y-2725978D01*
G37*
G36*
X1936394Y-2725978D02*
G01*
X1936394Y-2798927D01*
X1940458Y-2834030D01*
X1951736Y-2854807D01*
X1967433Y-2865170D01*
X1983943Y-2869742D01*
X2003298Y-2869793D01*
X2024430Y-2863494D01*
X2039772Y-2848152D01*
X2047138Y-2828544D01*
X2048814Y-2725978D01*
X2023110Y-2725978D01*
X2023110Y-2816148D01*
X2016658Y-2837738D01*
X2003704Y-2848660D01*
X1984806Y-2848660D01*
X1972005Y-2842006D01*
X1963978Y-2824327D01*
X1963877Y-2725978D01*
G37*
G36*
X1813712Y-2725978D02*
G01*
X1813712Y-2747111D01*
X1856028Y-2747111D01*
X1856028Y-2867660D01*
X1881378Y-2867660D01*
X1881378Y-2747111D01*
X1921560Y-2747111D01*
X1921560Y-2725978D01*
G37*
G36*
X1492300Y-2725978D02*
G01*
X1492300Y-2867863D01*
X1518615Y-2866593D01*
X1556359Y-2803194D01*
X1581048Y-2756662D01*
X1581099Y-2867660D01*
X1604365Y-2867660D01*
X1604365Y-2725978D01*
X1573733Y-2726080D01*
X1530553Y-2798927D01*
X1513890Y-2832760D01*
X1516176Y-2725978D01*
G37*
G36*
X1437335Y-2725978D02*
G01*
X1437335Y-2846527D01*
X1378102Y-2846527D01*
X1378102Y-2867660D01*
X1462684Y-2867660D01*
X1462684Y-2725978D01*
G37*
G36*
X1271930Y-2725978D02*
G01*
X1274216Y-2732074D01*
X1316786Y-2806192D01*
X1316786Y-2867660D01*
X1342136Y-2867660D01*
X1342136Y-2810205D01*
X1386535Y-2728772D01*
X1386535Y-2725978D01*
X1358798Y-2725978D01*
X1336090Y-2774086D01*
X1329283Y-2790393D01*
X1300022Y-2725978D01*
G37*
G36*
X2524709Y-2726029D02*
G01*
X2505151Y-2736951D01*
X2512618Y-2746857D01*
X2532989Y-2772511D01*
X2527452Y-2772511D01*
X2491486Y-2766161D01*
X2490419Y-2766161D01*
X2490419Y-2789986D01*
X2510536Y-2787243D01*
X2533650Y-2784500D01*
X2505049Y-2818790D01*
X2526182Y-2831693D01*
X2528163Y-2828442D01*
X2541524Y-2794711D01*
X2544673Y-2791460D01*
X2560624Y-2831744D01*
X2577388Y-2822346D01*
X2581046Y-2817926D01*
X2557983Y-2790494D01*
X2554071Y-2783687D01*
X2588768Y-2789326D01*
X2596184Y-2789428D01*
X2596184Y-2766161D01*
X2595118Y-2766161D01*
X2559151Y-2772511D01*
X2553614Y-2772511D01*
X2578506Y-2741828D01*
X2581503Y-2736697D01*
X2561285Y-2726385D01*
X2558745Y-2727960D01*
X2544826Y-2764028D01*
X2541778Y-2764028D01*
X2527808Y-2727960D01*
G37*
G36*
X-1219809Y-2770479D02*
G01*
X-1248816Y-2776626D01*
X-1267053Y-2787294D01*
X-1280058Y-2803042D01*
X-1287170Y-2824327D01*
X-1287084Y-2838551D01*
X-1261821Y-2838551D01*
X-1256436Y-2814523D01*
X-1243126Y-2799334D01*
X-1226159Y-2791612D01*
X-1191260Y-2791561D01*
X-1191260Y-2895701D01*
X-1226312Y-2893872D01*
X-1245006Y-2883509D01*
X-1257046Y-2866339D01*
X-1261821Y-2838551D01*
X-1287084Y-2838551D01*
X-1286916Y-2858160D01*
X-1278026Y-2881426D01*
X-1264970Y-2897276D01*
X-1246225Y-2908249D01*
X-1224026Y-2913888D01*
X-1194409Y-2915005D01*
X-1165809Y-2914192D01*
X-1166926Y-2773578D01*
X-1188110Y-2771038D01*
G37*
G36*
X-977696Y-2772511D02*
G01*
X-977696Y-2893060D01*
X-1036878Y-2893060D01*
X-1036878Y-2914192D01*
X-952296Y-2914192D01*
X-952296Y-2772511D01*
G37*
G36*
X-1138377Y-2772511D02*
G01*
X-1138377Y-2793644D01*
X-1081278Y-2793644D01*
X-1081278Y-2829610D01*
X-1136294Y-2829610D01*
X-1136294Y-2850743D01*
X-1081278Y-2850743D01*
X-1081278Y-2893060D01*
X-1142644Y-2893060D01*
X-1142644Y-2914192D01*
X-1055928Y-2914192D01*
X-1055928Y-2772511D01*
G37*
G36*
X-1461922Y-2776728D02*
G01*
X-1461922Y-2914192D01*
X-1438656Y-2914192D01*
X-1438656Y-2802128D01*
X-1434287Y-2802128D01*
X-1412900Y-2812948D01*
X-1411579Y-2811627D01*
X-1408785Y-2792577D01*
X-1439722Y-2776982D01*
G37*
G36*
X-1593037Y-2776728D02*
G01*
X-1593037Y-2857703D01*
X-1569923Y-2857703D01*
X-1568754Y-2796946D01*
X-1560880Y-2814421D01*
X-1531721Y-2858160D01*
X-1568196Y-2859379D01*
X-1569923Y-2857703D01*
X-1593037Y-2857703D01*
X-1593037Y-2859227D01*
X-1609953Y-2859227D01*
X-1609953Y-2878226D01*
X-1593037Y-2878226D01*
X-1593037Y-2914192D01*
X-1569974Y-2914192D01*
X-1568754Y-2879293D01*
X-1506321Y-2878124D01*
X-1506321Y-2862732D01*
X-1562404Y-2776778D01*
G37*
G36*
X-828598Y-2781757D02*
G01*
X-829767Y-2846273D01*
X-828598Y-2914294D01*
X-732129Y-2847949D01*
G37*
G36*
X-1328724Y-2812694D02*
G01*
X-1337157Y-2821127D01*
X-1337157Y-2835960D01*
X-1328724Y-2844393D01*
X-1314196Y-2844393D01*
X-1305458Y-2833268D01*
X-1305458Y-2823819D01*
X-1314196Y-2812694D01*
G37*
G36*
X-1330604Y-2884576D02*
G01*
X-1337157Y-2893974D01*
X-1337157Y-2906522D01*
X-1327962Y-2916326D01*
X-1316990Y-2916326D01*
X-1307896Y-2909976D01*
X-1305153Y-2897530D01*
X-1310335Y-2887776D01*
X-1314958Y-2884627D01*
G37*
G36*
X1906524Y-2996641D02*
G01*
X1909673Y-3001975D01*
X1972818Y-3093872D01*
X1980031Y-3084423D01*
X2025853Y-3016758D01*
X2040382Y-2996641D01*
G37*
G36*
X1826869Y-3554984D02*
G01*
X1807311Y-3565906D01*
X1814779Y-3575862D01*
X1835150Y-3601465D01*
X1829612Y-3601465D01*
X1793646Y-3595115D01*
X1792579Y-3595115D01*
X1792579Y-3618941D01*
X1812645Y-3616198D01*
X1835810Y-3613454D01*
X1807210Y-3647795D01*
X1828292Y-3660648D01*
X1830324Y-3657396D01*
X1843633Y-3623665D01*
X1846834Y-3620414D01*
X1862785Y-3660749D01*
X1879549Y-3651300D01*
X1883206Y-3646881D01*
X1860143Y-3619449D01*
X1856181Y-3612642D01*
X1890928Y-3618280D01*
X1898294Y-3618382D01*
X1898294Y-3595115D01*
X1897278Y-3595115D01*
X1861312Y-3601465D01*
X1855774Y-3601465D01*
X1880616Y-3570833D01*
X1883664Y-3565702D01*
X1863445Y-3555390D01*
X1860905Y-3556914D01*
X1846935Y-3593033D01*
X1843938Y-3593033D01*
X1829968Y-3556914D01*
G37*
G36*
X1940610Y-3607815D02*
G01*
X1940610Y-3791813D01*
X1974443Y-3791813D01*
X1974443Y-3641648D01*
X1976678Y-3641648D01*
X2006600Y-3656736D01*
X2008276Y-3655060D01*
X2013102Y-3630980D01*
X2011476Y-3629456D01*
X1969160Y-3608019D01*
G37*
G36*
X-1865375Y-3738981D02*
G01*
X-1884934Y-3749903D01*
X-1877466Y-3759809D01*
X-1857095Y-3785463D01*
X-1862683Y-3785463D01*
X-1898599Y-3779113D01*
X-1899666Y-3779113D01*
X-1899666Y-3802938D01*
X-1879600Y-3800195D01*
X-1856435Y-3797452D01*
X-1885086Y-3831742D01*
X-1863953Y-3844594D01*
X-1861921Y-3841343D01*
X-1848612Y-3807663D01*
X-1845462Y-3804412D01*
X-1829511Y-3844696D01*
X-1812747Y-3835298D01*
X-1809038Y-3830878D01*
X-1832152Y-3803446D01*
X-1836064Y-3796639D01*
X-1801368Y-3802278D01*
X-1793951Y-3802379D01*
X-1793951Y-3779113D01*
X-1795018Y-3779113D01*
X-1830933Y-3785463D01*
X-1836521Y-3785463D01*
X-1811629Y-3754780D01*
X-1808581Y-3749649D01*
X-1828850Y-3739337D01*
X-1831339Y-3740861D01*
X-1845310Y-3776979D01*
X-1848307Y-3776979D01*
X-1862277Y-3740861D01*
G37*
G36*
X-1712925Y-3749497D02*
G01*
X-1732788Y-3755491D01*
X-1747469Y-3766667D01*
X-1756308Y-3784041D01*
X-1754682Y-3810304D01*
X-1742643Y-3826052D01*
X-1723948Y-3837940D01*
X-1736598Y-3840734D01*
X-1753209Y-3852722D01*
X-1762709Y-3872331D01*
X-1761083Y-3901186D01*
X-1749450Y-3918712D01*
X-1731924Y-3931412D01*
X-1710689Y-3937711D01*
X-1672336Y-3937660D01*
X-1651101Y-3932021D01*
X-1640027Y-3926078D01*
X-1648104Y-3899814D01*
X-1668119Y-3908602D01*
X-1698193Y-3910736D01*
X-1713382Y-3905707D01*
X-1726285Y-3891026D01*
X-1726285Y-3873195D01*
X-1718310Y-3860190D01*
X-1701952Y-3852214D01*
X-1669186Y-3850538D01*
X-1669186Y-3825646D01*
X-1691386Y-3825443D01*
X-1712163Y-3818229D01*
X-1720748Y-3806596D01*
X-1720342Y-3791508D01*
X-1712518Y-3782923D01*
X-1701088Y-3776979D01*
X-1680819Y-3777081D01*
X-1655572Y-3787495D01*
X-1652828Y-3784396D01*
X-1645920Y-3763568D01*
X-1646986Y-3762705D01*
X-1660652Y-3755796D01*
X-1682902Y-3749801D01*
G37*
G36*
X-4733391Y-4307789D02*
G01*
X-4733391Y-4732832D01*
X-4378096Y-4732832D01*
X-4378096Y-4307789D01*
G37*
G36*
X66649Y-2200706D02*
G01*
X64769Y-2203653D01*
X48971Y-2203653D01*
X47091Y-2206599D01*
X34239Y-2206599D01*
X32359Y-2209546D01*
X25400Y-2209546D01*
X23520Y-2212492D01*
X19507Y-2212492D01*
X17627Y-2215438D01*
X10668Y-2215438D01*
X8788Y-2218385D01*
X4775Y-2218385D01*
X2895Y-2221331D01*
X-863Y-2221331D01*
X-6248Y-2227224D01*
X-9956Y-2227224D01*
X-11836Y-2230170D01*
X-15595Y-2230170D01*
X-20980Y-2236063D01*
X-24688Y-2236063D01*
X-26568Y-2239010D01*
X-33528Y-2239010D01*
X-35407Y-2241956D01*
X-59740Y-2241956D01*
X-61569Y-2239010D01*
X-68580Y-2239010D01*
X-70408Y-2236063D01*
X-74472Y-2236063D01*
X-76301Y-2233117D01*
X-83312Y-2233117D01*
X-85140Y-2230170D01*
X-92151Y-2230170D01*
X-93980Y-2227224D01*
X-100990Y-2227224D01*
X-102819Y-2224278D01*
X-112776Y-2224278D01*
X-114604Y-2221331D01*
X-124561Y-2221331D01*
X-126390Y-2218385D01*
X-142240Y-2218385D01*
X-144068Y-2215438D01*
X-195630Y-2215438D01*
X-197459Y-2218385D01*
X-210362Y-2218385D01*
X-212191Y-2221331D01*
X-219202Y-2221331D01*
X-221030Y-2224278D01*
X-228041Y-2224278D01*
X-229870Y-2227224D01*
X-236880Y-2227224D01*
X-238709Y-2230170D01*
X-242468Y-2230170D01*
X-247853Y-2236063D01*
X-251612Y-2236063D01*
X-253441Y-2239010D01*
X-257200Y-2239010D01*
X-262585Y-2244902D01*
X-265988Y-2244902D01*
X-274472Y-2253742D01*
X-277571Y-2253742D01*
X-291388Y-2267559D01*
X-291388Y-2270556D01*
X-312013Y-2291080D01*
X-312013Y-2294331D01*
X-317906Y-2299716D01*
X-317906Y-2303475D01*
X-320852Y-2305304D01*
X-320852Y-2309063D01*
X-326745Y-2314448D01*
X-326745Y-2318207D01*
X-329692Y-2320036D01*
X-329692Y-2327046D01*
X-332638Y-2328875D01*
X-332638Y-2335885D01*
X-335584Y-2337714D01*
X-335584Y-2344724D01*
X-338531Y-2346604D01*
X-338531Y-2353564D01*
X-341477Y-2355443D01*
X-341477Y-2377135D01*
X-344424Y-2379014D01*
X-344424Y-2406345D01*
X-347726Y-2409190D01*
X-344424Y-2411984D01*
X-344424Y-2421331D01*
X-307594Y-2421331D01*
X-307594Y-2402890D01*
X-304647Y-2401062D01*
X-304647Y-2376373D01*
X-301701Y-2374544D01*
X-301701Y-2364587D01*
X-298754Y-2362758D01*
X-298754Y-2355748D01*
X-295808Y-2353919D01*
X-295808Y-2346909D01*
X-292862Y-2345080D01*
X-292862Y-2341016D01*
X-289915Y-2339187D01*
X-289915Y-2335123D01*
X-286969Y-2333294D01*
X-286969Y-2329230D01*
X-284022Y-2327402D01*
X-284022Y-2323693D01*
X-278130Y-2318258D01*
X-278130Y-2314854D01*
X-272237Y-2309418D01*
X-272237Y-2306218D01*
X-244805Y-2278786D01*
X-241300Y-2278786D01*
X-239471Y-2275840D01*
X-235712Y-2275840D01*
X-230276Y-2269947D01*
X-223621Y-2269947D01*
X-221792Y-2267000D01*
X-217728Y-2267000D01*
X-215900Y-2264054D01*
X-208889Y-2264054D01*
X-207060Y-2261108D01*
X-197104Y-2261108D01*
X-195275Y-2258161D01*
X-179425Y-2258161D01*
X-177596Y-2255215D01*
X-144424Y-2255215D01*
X-142544Y-2258161D01*
X-126746Y-2258161D01*
X-124866Y-2261108D01*
X-112014Y-2261108D01*
X-110134Y-2264054D01*
X-103174Y-2264054D01*
X-101295Y-2267000D01*
X-94335Y-2267000D01*
X-92456Y-2269947D01*
X-88442Y-2269947D01*
X-86563Y-2272893D01*
X-82550Y-2272893D01*
X-80670Y-2275840D01*
X-76657Y-2275840D01*
X-74777Y-2278786D01*
X-71069Y-2278786D01*
X-67355Y-2282850D01*
X10617Y-2282850D01*
X10617Y-2279142D01*
X13563Y-2277313D01*
X13563Y-2270302D01*
X16510Y-2268474D01*
X16510Y-2264918D01*
X23266Y-2258161D01*
X26517Y-2258161D01*
X31953Y-2252268D01*
X38608Y-2252268D01*
X40436Y-2249322D01*
X44500Y-2249322D01*
X46329Y-2246376D01*
X53340Y-2246376D01*
X55168Y-2243429D01*
X71018Y-2243429D01*
X72847Y-2240483D01*
X97231Y-2240483D01*
X99060Y-2243429D01*
X111963Y-2243429D01*
X113792Y-2246376D01*
X120802Y-2246376D01*
X122631Y-2249322D01*
X126695Y-2249322D01*
X128524Y-2252268D01*
X135534Y-2252268D01*
X137363Y-2255215D01*
X141427Y-2255215D01*
X143256Y-2258161D01*
X147320Y-2258161D01*
X149148Y-2261108D01*
X153212Y-2261108D01*
X155041Y-2264054D01*
X158597Y-2264054D01*
X170230Y-2275840D01*
X173278Y-2275840D01*
X185978Y-2288540D01*
X185978Y-2291689D01*
X194818Y-2300173D01*
X194818Y-2303830D01*
X197764Y-2305659D01*
X197764Y-2309723D01*
X200710Y-2311552D01*
X200710Y-2315616D01*
X203657Y-2317445D01*
X203657Y-2321509D01*
X206603Y-2323338D01*
X206603Y-2330348D01*
X209550Y-2332177D01*
X209550Y-2339187D01*
X212496Y-2341016D01*
X212496Y-2356866D01*
X215442Y-2358694D01*
X215442Y-2403652D01*
X212496Y-2405532D01*
X212496Y-2418384D01*
X209550Y-2420264D01*
X209550Y-2430170D01*
X206603Y-2432050D01*
X206603Y-2439009D01*
X203657Y-2440889D01*
X203657Y-2447848D01*
X200710Y-2449728D01*
X200710Y-2453741D01*
X197764Y-2455621D01*
X197764Y-2462072D01*
X182118Y-2477668D01*
X178612Y-2477668D01*
X176784Y-2480614D01*
X172720Y-2480614D01*
X170891Y-2483561D01*
X114096Y-2483561D01*
X112268Y-2480614D01*
X102311Y-2480614D01*
X100482Y-2477668D01*
X96418Y-2477668D01*
X94589Y-2474722D01*
X91033Y-2474722D01*
X84277Y-2468016D01*
X84277Y-2464460D01*
X81330Y-2462580D01*
X81330Y-2458567D01*
X78384Y-2456688D01*
X78384Y-2443835D01*
X75438Y-2441956D01*
X75438Y-2429103D01*
X72491Y-2427224D01*
X72491Y-2414371D01*
X69545Y-2412492D01*
X69545Y-2402586D01*
X66598Y-2400706D01*
X66598Y-2393746D01*
X63652Y-2391867D01*
X63652Y-2384907D01*
X60706Y-2383028D01*
X60706Y-2376068D01*
X57759Y-2374188D01*
X57759Y-2367229D01*
X54813Y-2365349D01*
X54813Y-2361336D01*
X51866Y-2359456D01*
X51866Y-2355443D01*
X48920Y-2353564D01*
X48920Y-2349550D01*
X45974Y-2347671D01*
X45974Y-2343607D01*
X43027Y-2341778D01*
X43027Y-2337714D01*
X40081Y-2335885D01*
X40081Y-2331821D01*
X37134Y-2329992D01*
X37134Y-2326233D01*
X31242Y-2320848D01*
X31242Y-2317394D01*
X25349Y-2312009D01*
X25349Y-2308555D01*
X19456Y-2303170D01*
X19456Y-2299411D01*
X16510Y-2297582D01*
X16510Y-2293518D01*
X13563Y-2291689D01*
X13563Y-2284679D01*
X10617Y-2282850D01*
X-67355Y-2282850D01*
X-65684Y-2284679D01*
X-62230Y-2284679D01*
X-56845Y-2290572D01*
X-53390Y-2290572D01*
X-48006Y-2296464D01*
X-44754Y-2296464D01*
X-14427Y-2326843D01*
X-14427Y-2329992D01*
X-5588Y-2338476D01*
X-5588Y-2341829D01*
X304Y-2347264D01*
X304Y-2350973D01*
X3251Y-2352802D01*
X3251Y-2356866D01*
X6197Y-2358694D01*
X6197Y-2362758D01*
X9144Y-2364587D01*
X9144Y-2368651D01*
X12090Y-2370480D01*
X12090Y-2377490D01*
X15036Y-2379319D01*
X15036Y-2383383D01*
X17983Y-2385212D01*
X17983Y-2392222D01*
X20929Y-2394051D01*
X20929Y-2404008D01*
X23876Y-2405837D01*
X23876Y-2412847D01*
X26822Y-2414676D01*
X26822Y-2427579D01*
X29768Y-2429408D01*
X29768Y-2445258D01*
X32715Y-2447086D01*
X32715Y-2471775D01*
X35661Y-2473604D01*
X35661Y-2506776D01*
X32715Y-2508656D01*
X32715Y-2542133D01*
X29768Y-2544013D01*
X29768Y-2556865D01*
X26822Y-2558745D01*
X26822Y-2568651D01*
X23876Y-2570530D01*
X23876Y-2580436D01*
X20929Y-2582316D01*
X20929Y-2589276D01*
X17983Y-2591155D01*
X17983Y-2595168D01*
X15036Y-2597048D01*
X15036Y-2604058D01*
X12090Y-2605887D01*
X12090Y-2609596D01*
X6197Y-2615031D01*
X6197Y-2618435D01*
X304Y-2623870D01*
X304Y-2627172D01*
X-3403Y-2630932D01*
X-6756Y-2630932D01*
X-12141Y-2636824D01*
X-15849Y-2636824D01*
X-17729Y-2639771D01*
X-24688Y-2639771D01*
X-26568Y-2642717D01*
X-62687Y-2642717D01*
X-64516Y-2639771D01*
X-83312Y-2639771D01*
X-85140Y-2636824D01*
X-95097Y-2636824D01*
X-96926Y-2633878D01*
X-103936Y-2633878D01*
X-105765Y-2630932D01*
X-115722Y-2630932D01*
X-117551Y-2627985D01*
X-124561Y-2627985D01*
X-126390Y-2625039D01*
X-133400Y-2625039D01*
X-135229Y-2622092D01*
X-139293Y-2622092D01*
X-141122Y-2619095D01*
X-148132Y-2619095D01*
X-149961Y-2616149D01*
X-154025Y-2616149D01*
X-155854Y-2613202D01*
X-159918Y-2613202D01*
X-161747Y-2610256D01*
X-165811Y-2610256D01*
X-167640Y-2607310D01*
X-171704Y-2607310D01*
X-173532Y-2604363D01*
X-177241Y-2604363D01*
X-182676Y-2598470D01*
X-186080Y-2598470D01*
X-191516Y-2592578D01*
X-195275Y-2592578D01*
X-197104Y-2589631D01*
X-200761Y-2589631D01*
X-209245Y-2580843D01*
X-212547Y-2580792D01*
X-221030Y-2572004D01*
X-224180Y-2571953D01*
X-257505Y-2538679D01*
X-257505Y-2535631D01*
X-269290Y-2523998D01*
X-269290Y-2520442D01*
X-272237Y-2518562D01*
X-272237Y-2514803D01*
X-278130Y-2509418D01*
X-278130Y-2505710D01*
X-281076Y-2503830D01*
X-281076Y-2499817D01*
X-284022Y-2497937D01*
X-284022Y-2493924D01*
X-286969Y-2492044D01*
X-286969Y-2488031D01*
X-289915Y-2486152D01*
X-289915Y-2482138D01*
X-292862Y-2480259D01*
X-292862Y-2473299D01*
X-295808Y-2471420D01*
X-295808Y-2464460D01*
X-298754Y-2462580D01*
X-298754Y-2455621D01*
X-301701Y-2453741D01*
X-301701Y-2446782D01*
X-304647Y-2444902D01*
X-304647Y-2423210D01*
X-307594Y-2421331D01*
X-344424Y-2421331D01*
X-344424Y-2442311D01*
X-341477Y-2444140D01*
X-341477Y-2462936D01*
X-338531Y-2464765D01*
X-338531Y-2471775D01*
X-335584Y-2473604D01*
X-335584Y-2480614D01*
X-332638Y-2482443D01*
X-332638Y-2489454D01*
X-329692Y-2491282D01*
X-329692Y-2498293D01*
X-326745Y-2500122D01*
X-326745Y-2507132D01*
X-323799Y-2508961D01*
X-323799Y-2513025D01*
X-320852Y-2514854D01*
X-320852Y-2518613D01*
X-314960Y-2524048D01*
X-314960Y-2527757D01*
X-312013Y-2529586D01*
X-312013Y-2533650D01*
X-309067Y-2535478D01*
X-309067Y-2539187D01*
X-300228Y-2547670D01*
X-300228Y-2551023D01*
X-294335Y-2556459D01*
X-294335Y-2559710D01*
X-270764Y-2583180D01*
X-270764Y-2586228D01*
X-256032Y-2600807D01*
X-256032Y-2604363D01*
X-253085Y-2606192D01*
X-253085Y-2610256D01*
X-250139Y-2612085D01*
X-250139Y-2624683D01*
X-253085Y-2626512D01*
X-253085Y-2633167D01*
X-258978Y-2638602D01*
X-258978Y-2641803D01*
X-291388Y-2674162D01*
X-291388Y-2677210D01*
X-306120Y-2691790D01*
X-306120Y-2694990D01*
X-314960Y-2703474D01*
X-314960Y-2706827D01*
X-320852Y-2712262D01*
X-320852Y-2715666D01*
X-326745Y-2721102D01*
X-326745Y-2724861D01*
X-329692Y-2726690D01*
X-329692Y-2730754D01*
X-332638Y-2732582D01*
X-332638Y-2736291D01*
X-338531Y-2741726D01*
X-338531Y-2745486D01*
X-341477Y-2747314D01*
X-341477Y-2754325D01*
X-344424Y-2756154D01*
X-344424Y-2760218D01*
X-347370Y-2762046D01*
X-347370Y-2769057D01*
X-350316Y-2770886D01*
X-350316Y-2777896D01*
X-353263Y-2779725D01*
X-353263Y-2786735D01*
X-356209Y-2788564D01*
X-356209Y-2792628D01*
X-359156Y-2794457D01*
X-359156Y-2797962D01*
X-374802Y-2813608D01*
X-378307Y-2813608D01*
X-380136Y-2816555D01*
X-384200Y-2816555D01*
X-386029Y-2819501D01*
X-390093Y-2819501D01*
X-391922Y-2822448D01*
X-398932Y-2822448D01*
X-400761Y-2825394D01*
X-407771Y-2825394D01*
X-409600Y-2828340D01*
X-416610Y-2828340D01*
X-418439Y-2831287D01*
X-422503Y-2831287D01*
X-424332Y-2834233D01*
X-431342Y-2834233D01*
X-433171Y-2837180D01*
X-440182Y-2837180D01*
X-442010Y-2840126D01*
X-446074Y-2840126D01*
X-447903Y-2843072D01*
X-454914Y-2843072D01*
X-456742Y-2846019D01*
X-460806Y-2846019D01*
X-462414Y-2848610D01*
X-319379Y-2848610D01*
X-319379Y-2821330D01*
X-316433Y-2819450D01*
X-316433Y-2806598D01*
X-313486Y-2804718D01*
X-313486Y-2797759D01*
X-310540Y-2795879D01*
X-310540Y-2788920D01*
X-307594Y-2787040D01*
X-307594Y-2780080D01*
X-304647Y-2778201D01*
X-304647Y-2771241D01*
X-301701Y-2769362D01*
X-301701Y-2765348D01*
X-298754Y-2763469D01*
X-298754Y-2759456D01*
X-295808Y-2757576D01*
X-295808Y-2753563D01*
X-292862Y-2751683D01*
X-292862Y-2747975D01*
X-286969Y-2742590D01*
X-286969Y-2738831D01*
X-284022Y-2736951D01*
X-284022Y-2733243D01*
X-278130Y-2727858D01*
X-278130Y-2724099D01*
X-275183Y-2722219D01*
X-275183Y-2718714D01*
X-256590Y-2700172D01*
X-253085Y-2700172D01*
X-251256Y-2697226D01*
X-241655Y-2697226D01*
X-239826Y-2700172D01*
X-236270Y-2700172D01*
X-229514Y-2706878D01*
X-229514Y-2713380D01*
X-226567Y-2715260D01*
X-226567Y-2766415D01*
X-223621Y-2768295D01*
X-223621Y-2801467D01*
X-145542Y-2801467D01*
X-145542Y-2703474D01*
X-142595Y-2701594D01*
X-142595Y-2694635D01*
X-139649Y-2692755D01*
X-139649Y-2689199D01*
X-132892Y-2682494D01*
X-129336Y-2682494D01*
X-127508Y-2679547D01*
X-120497Y-2679547D01*
X-118668Y-2676601D01*
X-109067Y-2676601D01*
X-107187Y-2679547D01*
X-88442Y-2679547D01*
X-86563Y-2682494D01*
X-67818Y-2682494D01*
X-65938Y-2685440D01*
X-47193Y-2685440D01*
X-45313Y-2688386D01*
X-38354Y-2688386D01*
X-36474Y-2691333D01*
X-32969Y-2691333D01*
X-20320Y-2703982D01*
X-20320Y-2710434D01*
X-17373Y-2712313D01*
X-17373Y-2754325D01*
X63652Y-2754325D01*
X63652Y-2700528D01*
X66598Y-2698648D01*
X66598Y-2653385D01*
X69545Y-2651506D01*
X69545Y-2629763D01*
X72491Y-2627934D01*
X72491Y-2606192D01*
X75438Y-2604363D01*
X75438Y-2591460D01*
X78384Y-2589631D01*
X78384Y-2573782D01*
X81330Y-2571953D01*
X81330Y-2559050D01*
X84277Y-2557221D01*
X84277Y-2553157D01*
X87223Y-2551328D01*
X87223Y-2547620D01*
X93116Y-2542184D01*
X93116Y-2538882D01*
X96875Y-2535123D01*
X100482Y-2535123D01*
X102311Y-2532176D01*
X106375Y-2532176D01*
X108204Y-2529230D01*
X124053Y-2529230D01*
X125882Y-2526284D01*
X138480Y-2526284D01*
X140309Y-2529230D01*
X170891Y-2529230D01*
X172720Y-2532176D01*
X182676Y-2532176D01*
X184505Y-2535123D01*
X188569Y-2535123D01*
X190398Y-2538069D01*
X193903Y-2538069D01*
X203657Y-2547823D01*
X203657Y-2551328D01*
X206603Y-2553157D01*
X206603Y-2583383D01*
X203657Y-2585262D01*
X203657Y-2609951D01*
X200710Y-2611780D01*
X200710Y-2651201D01*
X197764Y-2653030D01*
X197764Y-2733700D01*
X278790Y-2733700D01*
X278790Y-2665171D01*
X281736Y-2663291D01*
X281736Y-2620924D01*
X284683Y-2619095D01*
X284683Y-2606192D01*
X287629Y-2604363D01*
X287629Y-2597353D01*
X290576Y-2595524D01*
X290576Y-2591968D01*
X297281Y-2585212D01*
X300837Y-2585212D01*
X302717Y-2582265D01*
X318211Y-2582265D01*
X320040Y-2585212D01*
X324104Y-2585212D01*
X325932Y-2588158D01*
X329641Y-2588158D01*
X335076Y-2594051D01*
X338429Y-2594051D01*
X346913Y-2602890D01*
X350062Y-2602890D01*
X392226Y-2645054D01*
X392226Y-2648204D01*
X401066Y-2656738D01*
X401066Y-2660040D01*
X406958Y-2665476D01*
X406958Y-2668879D01*
X412851Y-2674315D01*
X412851Y-2678023D01*
X415798Y-2679903D01*
X415798Y-2683916D01*
X418744Y-2685796D01*
X418744Y-2689809D01*
X421690Y-2691688D01*
X421690Y-2698648D01*
X424637Y-2700528D01*
X424637Y-2718968D01*
X421690Y-2720797D01*
X421690Y-2724302D01*
X411988Y-2734056D01*
X408432Y-2734056D01*
X406603Y-2737002D01*
X399592Y-2737002D01*
X397764Y-2739948D01*
X393700Y-2739948D01*
X391871Y-2742895D01*
X384860Y-2742895D01*
X383032Y-2745841D01*
X379272Y-2745841D01*
X373837Y-2751734D01*
X370433Y-2751734D01*
X368655Y-2753461D01*
X368655Y-2757271D01*
X365709Y-2759100D01*
X365709Y-2774746D01*
X373430Y-2782620D01*
X377139Y-2782671D01*
X378968Y-2785618D01*
X398068Y-2785618D01*
X399948Y-2782671D01*
X430174Y-2782671D01*
X432003Y-2785618D01*
X435559Y-2785618D01*
X442315Y-2792323D01*
X442315Y-2795879D01*
X445262Y-2797759D01*
X445262Y-2801772D01*
X448208Y-2803652D01*
X448208Y-2827985D01*
X445262Y-2829814D01*
X445262Y-2842717D01*
X442315Y-2844546D01*
X442315Y-2854502D01*
X439369Y-2856331D01*
X439369Y-2863342D01*
X436422Y-2865170D01*
X436422Y-2875127D01*
X433476Y-2876956D01*
X433476Y-2886913D01*
X430530Y-2888742D01*
X430530Y-2892806D01*
X427583Y-2894634D01*
X427583Y-2901645D01*
X424637Y-2903474D01*
X424637Y-2907538D01*
X421690Y-2909366D01*
X421690Y-2913075D01*
X415798Y-2918510D01*
X415798Y-2922270D01*
X412851Y-2924098D01*
X412851Y-2927807D01*
X406958Y-2933242D01*
X406958Y-2936595D01*
X398119Y-2945079D01*
X398119Y-2948432D01*
X392226Y-2953867D01*
X392226Y-2957271D01*
X386334Y-2962706D01*
X386334Y-2965907D01*
X367741Y-2984500D01*
X361289Y-2984500D01*
X359460Y-2987446D01*
X352806Y-2987446D01*
X350926Y-2984500D01*
X343966Y-2984500D01*
X342087Y-2981553D01*
X338531Y-2981553D01*
X334772Y-2977794D01*
X334772Y-2974492D01*
X328879Y-2969056D01*
X328879Y-2965348D01*
X325932Y-2963519D01*
X325932Y-2959455D01*
X322986Y-2957626D01*
X322986Y-2950616D01*
X320040Y-2948787D01*
X320040Y-2941777D01*
X317093Y-2939948D01*
X317093Y-2932938D01*
X314147Y-2931109D01*
X314147Y-2924098D01*
X311200Y-2922270D01*
X311200Y-2915259D01*
X308254Y-2913430D01*
X308254Y-2900527D01*
X305308Y-2898698D01*
X305308Y-2888742D01*
X302361Y-2886913D01*
X302361Y-2876956D01*
X299415Y-2875127D01*
X299415Y-2865170D01*
X296468Y-2863342D01*
X296468Y-2850438D01*
X293522Y-2848610D01*
X293522Y-2835706D01*
X290576Y-2833878D01*
X290576Y-2815082D01*
X287629Y-2813253D01*
X287629Y-2794457D01*
X284683Y-2792628D01*
X284683Y-2770886D01*
X281736Y-2769057D01*
X281736Y-2735529D01*
X278790Y-2733700D01*
X197764Y-2733700D01*
X197764Y-2742844D01*
X200710Y-2744724D01*
X200710Y-2784094D01*
X203657Y-2785973D01*
X203657Y-2807665D01*
X206603Y-2809544D01*
X206603Y-2828290D01*
X209550Y-2830169D01*
X209550Y-2843022D01*
X212496Y-2844901D01*
X212496Y-2860700D01*
X215442Y-2862580D01*
X215442Y-2875432D01*
X218389Y-2877312D01*
X218389Y-2890164D01*
X221335Y-2892044D01*
X221335Y-2902000D01*
X224282Y-2903829D01*
X224282Y-2910840D01*
X227228Y-2912668D01*
X227228Y-2919679D01*
X230174Y-2921508D01*
X230174Y-2928518D01*
X233121Y-2930347D01*
X233121Y-2937357D01*
X236067Y-2939186D01*
X236067Y-2946196D01*
X239014Y-2948025D01*
X239014Y-2955036D01*
X241960Y-2956864D01*
X241960Y-2963875D01*
X244906Y-2965704D01*
X244906Y-2972714D01*
X247853Y-2974543D01*
X247853Y-2978607D01*
X250799Y-2980436D01*
X250799Y-2987446D01*
X253746Y-2989275D01*
X253746Y-2996285D01*
X256692Y-2998114D01*
X256692Y-3002178D01*
X259638Y-3004007D01*
X259638Y-3011017D01*
X262585Y-3012846D01*
X262585Y-3016910D01*
X265531Y-3018739D01*
X265531Y-3043072D01*
X262585Y-3044901D01*
X262585Y-3048457D01*
X252831Y-3058160D01*
X249631Y-3058160D01*
X244195Y-3064052D01*
X240487Y-3064052D01*
X238658Y-3066999D01*
X231648Y-3066999D01*
X229819Y-3069945D01*
X222808Y-3069945D01*
X220979Y-3072892D01*
X213969Y-3072892D01*
X212140Y-3075838D01*
X202184Y-3075838D01*
X200355Y-3078784D01*
X170129Y-3078784D01*
X168249Y-3075838D01*
X164236Y-3075838D01*
X162356Y-3072892D01*
X158851Y-3072892D01*
X149148Y-3063189D01*
X149148Y-3059633D01*
X146202Y-3057804D01*
X146202Y-3054045D01*
X140309Y-3048609D01*
X140309Y-3044901D01*
X137363Y-3043072D01*
X137363Y-3039008D01*
X134416Y-3037179D01*
X134416Y-3033115D01*
X131470Y-3031286D01*
X131470Y-3027222D01*
X128524Y-3025394D01*
X128524Y-3021330D01*
X125577Y-3019501D01*
X125577Y-3012490D01*
X122631Y-3010662D01*
X122631Y-3006598D01*
X119633Y-3004769D01*
X119633Y-3000705D01*
X116687Y-2998876D01*
X116687Y-2991866D01*
X113741Y-2990037D01*
X113741Y-2985973D01*
X110794Y-2984144D01*
X110794Y-2977134D01*
X107848Y-2975305D01*
X107848Y-2968294D01*
X104902Y-2966466D01*
X104902Y-2962402D01*
X101955Y-2960573D01*
X101955Y-2956509D01*
X99009Y-2954680D01*
X99009Y-2947670D01*
X96062Y-2945841D01*
X96062Y-2938830D01*
X93116Y-2937002D01*
X93116Y-2929991D01*
X90170Y-2928162D01*
X90170Y-2918206D01*
X87223Y-2916377D01*
X87223Y-2909366D01*
X84277Y-2907538D01*
X84277Y-2897581D01*
X81330Y-2895752D01*
X81330Y-2885795D01*
X78384Y-2883966D01*
X78384Y-2874010D01*
X75438Y-2872181D01*
X75438Y-2862224D01*
X72491Y-2860395D01*
X72491Y-2847492D01*
X69545Y-2845663D01*
X69545Y-2823921D01*
X66598Y-2822092D01*
X66598Y-2756154D01*
X63652Y-2754325D01*
X-17373Y-2754325D01*
X-17373Y-2763469D01*
X-14427Y-2765348D01*
X-14427Y-2804718D01*
X-11480Y-2806598D01*
X-11480Y-2825343D01*
X-8534Y-2827223D01*
X-8534Y-2843022D01*
X-5588Y-2844901D01*
X-5588Y-2860700D01*
X-2641Y-2862580D01*
X-2641Y-2875432D01*
X304Y-2877312D01*
X304Y-2890164D01*
X3251Y-2892044D01*
X3251Y-2902000D01*
X6197Y-2903829D01*
X6197Y-2910840D01*
X9144Y-2912668D01*
X9144Y-2922625D01*
X12090Y-2924454D01*
X12090Y-2937357D01*
X15036Y-2939186D01*
X15036Y-2949143D01*
X17983Y-2950972D01*
X17983Y-2963875D01*
X20929Y-2965704D01*
X20929Y-2975660D01*
X23876Y-2977489D01*
X23876Y-2984500D01*
X26822Y-2986328D01*
X26822Y-2993339D01*
X29768Y-2995168D01*
X29768Y-3002178D01*
X32715Y-3004007D01*
X32715Y-3008071D01*
X35661Y-3009900D01*
X35661Y-3016910D01*
X38608Y-3018739D01*
X38608Y-3022803D01*
X41554Y-3024632D01*
X41554Y-3031642D01*
X44500Y-3033471D01*
X44500Y-3037535D01*
X47447Y-3039364D01*
X47447Y-3046374D01*
X50393Y-3048203D01*
X50393Y-3055213D01*
X53340Y-3057042D01*
X53340Y-3066643D01*
X50393Y-3068472D01*
X50393Y-3072028D01*
X40690Y-3081731D01*
X31292Y-3081731D01*
X29413Y-3084677D01*
X16865Y-3084677D01*
X15036Y-3081731D01*
X-3759Y-3081731D01*
X-5588Y-3078784D01*
X-18491Y-3078784D01*
X-20320Y-3075838D01*
X-30276Y-3075838D01*
X-32105Y-3072892D01*
X-42062Y-3072892D01*
X-43891Y-3069945D01*
X-50901Y-3069945D01*
X-52730Y-3066999D01*
X-56794Y-3066999D01*
X-58623Y-3064052D01*
X-62128Y-3064052D01*
X-77774Y-3048406D01*
X-77774Y-3044901D01*
X-80721Y-3043072D01*
X-80721Y-3039008D01*
X-83667Y-3037179D01*
X-83667Y-3033115D01*
X-86614Y-3031286D01*
X-86614Y-3027222D01*
X-89560Y-3025394D01*
X-89560Y-3021330D01*
X-92506Y-3019501D01*
X-92506Y-3015437D01*
X-95453Y-3013608D01*
X-95453Y-3006598D01*
X-98399Y-3004769D01*
X-98399Y-2997758D01*
X-101346Y-2995930D01*
X-101346Y-2988919D01*
X-104292Y-2987090D01*
X-104292Y-2983026D01*
X-107238Y-2981198D01*
X-107238Y-2971241D01*
X-110185Y-2969412D01*
X-110185Y-2965348D01*
X-113131Y-2963519D01*
X-113131Y-2953562D01*
X-116078Y-2951734D01*
X-116078Y-2944723D01*
X-119024Y-2942894D01*
X-119024Y-2932938D01*
X-121970Y-2931109D01*
X-121970Y-2924098D01*
X-124917Y-2922270D01*
X-124917Y-2909366D01*
X-127863Y-2907538D01*
X-127863Y-2897581D01*
X-130810Y-2895752D01*
X-130810Y-2882849D01*
X-133756Y-2881020D01*
X-133756Y-2865170D01*
X-136702Y-2863342D01*
X-136702Y-2847492D01*
X-139649Y-2845663D01*
X-139649Y-2829814D01*
X-142595Y-2827985D01*
X-142595Y-2803296D01*
X-145542Y-2801467D01*
X-223621Y-2801467D01*
X-223621Y-2810611D01*
X-220675Y-2812491D01*
X-220675Y-2840075D01*
X-217728Y-2841955D01*
X-217728Y-2869539D01*
X-214782Y-2871419D01*
X-214782Y-2890164D01*
X-211836Y-2892044D01*
X-211836Y-2907893D01*
X-208889Y-2909722D01*
X-208889Y-2919679D01*
X-205943Y-2921508D01*
X-205943Y-2934411D01*
X-202996Y-2936240D01*
X-202996Y-2949143D01*
X-200050Y-2950972D01*
X-200050Y-2966821D01*
X-197104Y-2968650D01*
X-197104Y-2972358D01*
X-200050Y-2974187D01*
X-200050Y-2981198D01*
X-202996Y-2983026D01*
X-202996Y-2987446D01*
X-224739Y-2987446D01*
X-226567Y-2984500D01*
X-230225Y-2984500D01*
X-238709Y-2975660D01*
X-241858Y-2975660D01*
X-275183Y-2942336D01*
X-275183Y-2939288D01*
X-286969Y-2927705D01*
X-286969Y-2924098D01*
X-289915Y-2922270D01*
X-289915Y-2918510D01*
X-295808Y-2913075D01*
X-295808Y-2909671D01*
X-301701Y-2904236D01*
X-301701Y-2900527D01*
X-304647Y-2898698D01*
X-304647Y-2894634D01*
X-307594Y-2892806D01*
X-307594Y-2885795D01*
X-310540Y-2883966D01*
X-310540Y-2876956D01*
X-313486Y-2875127D01*
X-313486Y-2865170D01*
X-316433Y-2863342D01*
X-316433Y-2850438D01*
X-319379Y-2848610D01*
X-462414Y-2848610D01*
X-462635Y-2848965D01*
X-466699Y-2848965D01*
X-468528Y-2851912D01*
X-472287Y-2851912D01*
X-477723Y-2857804D01*
X-480923Y-2857804D01*
X-488746Y-2865526D01*
X-488797Y-2877870D01*
X-481076Y-2885744D01*
X-477367Y-2885795D01*
X-475538Y-2888742D01*
X-471474Y-2888742D01*
X-469646Y-2891688D01*
X-459689Y-2891688D01*
X-457860Y-2894634D01*
X-444957Y-2894634D01*
X-443128Y-2897581D01*
X-424332Y-2897581D01*
X-422503Y-2900527D01*
X-394868Y-2900527D01*
X-393039Y-2903474D01*
X-377190Y-2903474D01*
X-375361Y-2906420D01*
X-365404Y-2906420D01*
X-363575Y-2909366D01*
X-359511Y-2909366D01*
X-357682Y-2912313D01*
X-353974Y-2912313D01*
X-348538Y-2918206D01*
X-344424Y-2918206D01*
X-344424Y-2922168D01*
X-332638Y-2933750D01*
X-332638Y-2937357D01*
X-329692Y-2939186D01*
X-329692Y-2942894D01*
X-320852Y-2951378D01*
X-320852Y-2954680D01*
X-312013Y-2963164D01*
X-312013Y-2966262D01*
X-271678Y-3006598D01*
X-268579Y-3006598D01*
X-260096Y-3015437D01*
X-256692Y-3015437D01*
X-251307Y-3021330D01*
X-247548Y-3021330D01*
X-245719Y-3024276D01*
X-242062Y-3024276D01*
X-233578Y-3033115D01*
X-229870Y-3033115D01*
X-228041Y-3036062D01*
X-224383Y-3036062D01*
X-215900Y-3044901D01*
X-212496Y-3044901D01*
X-207111Y-3050794D01*
X-203352Y-3050794D01*
X-201523Y-3053740D01*
X-197764Y-3053740D01*
X-192379Y-3059633D01*
X-188620Y-3059633D01*
X-186791Y-3062579D01*
X-182727Y-3062579D01*
X-180898Y-3065526D01*
X-176834Y-3065526D01*
X-175006Y-3068472D01*
X-170942Y-3068472D01*
X-169113Y-3071418D01*
X-165049Y-3071418D01*
X-163220Y-3074365D01*
X-159156Y-3074365D01*
X-157327Y-3077311D01*
X-153263Y-3077311D01*
X-151384Y-3080258D01*
X-147370Y-3080258D01*
X-145491Y-3083204D01*
X-138531Y-3083204D01*
X-136652Y-3086150D01*
X-132638Y-3086150D01*
X-130759Y-3089097D01*
X-126746Y-3089097D01*
X-124866Y-3092043D01*
X-117906Y-3092043D01*
X-116027Y-3094990D01*
X-109067Y-3094990D01*
X-107187Y-3097936D01*
X-103174Y-3097936D01*
X-101295Y-3100882D01*
X-94335Y-3100882D01*
X-92456Y-3103829D01*
X-79603Y-3103829D01*
X-77724Y-3106775D01*
X-67818Y-3106775D01*
X-65938Y-3109722D01*
X-56032Y-3109722D01*
X-54152Y-3112668D01*
X-44246Y-3112668D01*
X-42367Y-3115614D01*
X-38354Y-3115614D01*
X-36474Y-3118561D01*
X-26568Y-3118561D01*
X-24688Y-3121507D01*
X-11836Y-3121507D01*
X-9956Y-3124454D01*
X5842Y-3124454D01*
X7721Y-3127400D01*
X32359Y-3127400D01*
X34239Y-3130346D01*
X67716Y-3130346D01*
X69596Y-3133293D01*
X144678Y-3133293D01*
X146507Y-3130346D01*
X171196Y-3130346D01*
X173075Y-3127400D01*
X188874Y-3127400D01*
X190754Y-3124454D01*
X197713Y-3124454D01*
X199593Y-3121507D01*
X206552Y-3121507D01*
X208432Y-3118561D01*
X218338Y-3118561D01*
X220217Y-3115614D01*
X224231Y-3115614D01*
X226110Y-3112668D01*
X233070Y-3112668D01*
X234950Y-3109722D01*
X241909Y-3109722D01*
X243789Y-3106775D01*
X250748Y-3106775D01*
X252628Y-3103829D01*
X259588Y-3103829D01*
X261467Y-3100882D01*
X268427Y-3100882D01*
X270306Y-3097936D01*
X274320Y-3097936D01*
X276199Y-3094990D01*
X280212Y-3094990D01*
X282092Y-3092043D01*
X289052Y-3092043D01*
X290931Y-3089097D01*
X294944Y-3089097D01*
X296824Y-3086150D01*
X303530Y-3086150D01*
X308914Y-3080258D01*
X312623Y-3080258D01*
X314502Y-3077311D01*
X318516Y-3077311D01*
X320395Y-3074365D01*
X324154Y-3074365D01*
X329539Y-3068472D01*
X333248Y-3068472D01*
X335127Y-3065526D01*
X338886Y-3065526D01*
X344271Y-3059633D01*
X347624Y-3059633D01*
X356158Y-3050794D01*
X359410Y-3050794D01*
X367944Y-3041954D01*
X371043Y-3041954D01*
X384860Y-3028188D01*
X384860Y-3025140D01*
X417271Y-2992831D01*
X417271Y-2989732D01*
X429056Y-2978150D01*
X429056Y-2974848D01*
X434949Y-2969463D01*
X434949Y-2966110D01*
X443788Y-2957626D01*
X443788Y-2953918D01*
X446735Y-2952089D01*
X446735Y-2948025D01*
X449681Y-2946196D01*
X449681Y-2942437D01*
X455574Y-2937052D01*
X455574Y-2933293D01*
X458520Y-2931464D01*
X458520Y-2927400D01*
X461467Y-2925572D01*
X461467Y-2921508D01*
X464413Y-2919679D01*
X464413Y-2912668D01*
X467359Y-2910840D01*
X467359Y-2906776D01*
X470306Y-2904947D01*
X470306Y-2897936D01*
X473252Y-2896057D01*
X473252Y-2892044D01*
X476199Y-2890164D01*
X476199Y-2883204D01*
X479145Y-2881325D01*
X479145Y-2871419D01*
X482092Y-2869539D01*
X482092Y-2856687D01*
X485038Y-2854807D01*
X485038Y-2841955D01*
X487984Y-2840075D01*
X487984Y-2809544D01*
X490931Y-2807665D01*
X490931Y-2762402D01*
X493877Y-2760522D01*
X493877Y-2756509D01*
X496824Y-2754630D01*
X496824Y-2751124D01*
X509473Y-2738475D01*
X512572Y-2738475D01*
X524154Y-2726690D01*
X527253Y-2726690D01*
X541832Y-2711958D01*
X544931Y-2711958D01*
X562508Y-2694279D01*
X565505Y-2694279D01*
X588162Y-2671622D01*
X588162Y-2668574D01*
X602894Y-2653995D01*
X602894Y-2650845D01*
X611733Y-2642311D01*
X611733Y-2638958D01*
X617626Y-2633522D01*
X617626Y-2630119D01*
X623519Y-2624683D01*
X623519Y-2621280D01*
X629412Y-2615844D01*
X629412Y-2612085D01*
X632358Y-2610256D01*
X632358Y-2606192D01*
X635304Y-2604363D01*
X635304Y-2600299D01*
X638251Y-2598470D01*
X638251Y-2591460D01*
X641197Y-2589631D01*
X641197Y-2579370D01*
X638251Y-2577490D01*
X638251Y-2573985D01*
X633476Y-2569057D01*
X618134Y-2569006D01*
X604367Y-2582824D01*
X604367Y-2586329D01*
X601421Y-2588209D01*
X601421Y-2591917D01*
X595528Y-2597353D01*
X595528Y-2601112D01*
X592582Y-2602941D01*
X592582Y-2606548D01*
X583742Y-2615082D01*
X583742Y-2618282D01*
X569010Y-2632862D01*
X569010Y-2635961D01*
X548386Y-2656433D01*
X548386Y-2660396D01*
X544474Y-2660396D01*
X526897Y-2678074D01*
X523697Y-2678074D01*
X515213Y-2686913D01*
X511860Y-2686913D01*
X506425Y-2692806D01*
X502716Y-2692806D01*
X500888Y-2695752D01*
X482447Y-2695752D01*
X480618Y-2692806D01*
X477062Y-2692806D01*
X461467Y-2677160D01*
X461467Y-2673654D01*
X458520Y-2671826D01*
X458520Y-2667762D01*
X455574Y-2665933D01*
X455574Y-2662174D01*
X449681Y-2656738D01*
X449681Y-2653030D01*
X446735Y-2651201D01*
X446735Y-2647137D01*
X443788Y-2645308D01*
X443788Y-2638298D01*
X440842Y-2636469D01*
X440842Y-2612085D01*
X443788Y-2610256D01*
X443788Y-2606548D01*
X449681Y-2601112D01*
X449681Y-2597912D01*
X468223Y-2579319D01*
X471220Y-2579319D01*
X476148Y-2574544D01*
X476199Y-2571191D01*
X482092Y-2565755D01*
X482092Y-2562352D01*
X487984Y-2556916D01*
X487984Y-2553157D01*
X490931Y-2551328D01*
X490931Y-2547264D01*
X493877Y-2545435D01*
X493877Y-2541371D01*
X496824Y-2539542D01*
X496824Y-2535478D01*
X499770Y-2533650D01*
X499770Y-2512110D01*
X492048Y-2504236D01*
X479653Y-2504186D01*
X465886Y-2518003D01*
X465886Y-2521204D01*
X459993Y-2526588D01*
X459993Y-2530043D01*
X454101Y-2535428D01*
X454101Y-2538780D01*
X445262Y-2547315D01*
X445262Y-2550464D01*
X429615Y-2566060D01*
X426415Y-2566060D01*
X420979Y-2571953D01*
X417271Y-2571953D01*
X415442Y-2574899D01*
X408432Y-2574899D01*
X406603Y-2577846D01*
X394055Y-2577846D01*
X392176Y-2574899D01*
X385216Y-2574899D01*
X383336Y-2571953D01*
X379628Y-2571953D01*
X374243Y-2566060D01*
X370890Y-2566060D01*
X362356Y-2557272D01*
X359003Y-2557221D01*
X353618Y-2551328D01*
X350266Y-2551328D01*
X341731Y-2542540D01*
X338074Y-2542489D01*
X336194Y-2539542D01*
X332181Y-2539542D01*
X330301Y-2536596D01*
X326593Y-2536596D01*
X321208Y-2530703D01*
X317449Y-2530703D01*
X315569Y-2527757D01*
X311556Y-2527757D01*
X309676Y-2524810D01*
X305663Y-2524810D01*
X303784Y-2521864D01*
X299770Y-2521864D01*
X297891Y-2518918D01*
X293878Y-2518918D01*
X291998Y-2515971D01*
X287985Y-2515971D01*
X286105Y-2513025D01*
X282092Y-2513025D01*
X280212Y-2510078D01*
X273253Y-2510078D01*
X271373Y-2507132D01*
X264414Y-2507132D01*
X262534Y-2504186D01*
X258521Y-2504186D01*
X256641Y-2501239D01*
X253136Y-2501239D01*
X240487Y-2488590D01*
X240487Y-2485085D01*
X237540Y-2483205D01*
X237540Y-2473299D01*
X234594Y-2471420D01*
X234594Y-2467711D01*
X237540Y-2465882D01*
X237540Y-2452979D01*
X240487Y-2451150D01*
X240487Y-2444140D01*
X243433Y-2442311D01*
X243433Y-2432354D01*
X246379Y-2430526D01*
X246379Y-2423515D01*
X249326Y-2421686D01*
X249326Y-2411730D01*
X252272Y-2409901D01*
X252272Y-2396998D01*
X255219Y-2395169D01*
X255219Y-2346604D01*
X252272Y-2344724D01*
X252272Y-2328875D01*
X249326Y-2327046D01*
X249326Y-2317089D01*
X246379Y-2315260D01*
X246379Y-2311196D01*
X243433Y-2309368D01*
X243433Y-2302357D01*
X240487Y-2300528D01*
X240487Y-2293518D01*
X237540Y-2291689D01*
X237540Y-2287930D01*
X231648Y-2282545D01*
X231648Y-2278786D01*
X228701Y-2276957D01*
X228701Y-2273198D01*
X222808Y-2267813D01*
X222808Y-2264562D01*
X208076Y-2249982D01*
X208076Y-2246680D01*
X206298Y-2244902D01*
X202946Y-2244902D01*
X194411Y-2236063D01*
X190754Y-2236063D01*
X188874Y-2233117D01*
X185166Y-2233117D01*
X179781Y-2227224D01*
X176022Y-2227224D01*
X174142Y-2224278D01*
X170129Y-2224278D01*
X168249Y-2221331D01*
X164236Y-2221331D01*
X162356Y-2218385D01*
X155397Y-2218385D01*
X153517Y-2215438D01*
X149504Y-2215438D01*
X147624Y-2212492D01*
X143560Y-2212492D01*
X141732Y-2209546D01*
X134721Y-2209546D01*
X132892Y-2206599D01*
X125882Y-2206599D01*
X124053Y-2203653D01*
X114096Y-2203653D01*
X112268Y-2200706D01*
G37*
G36*
X93167Y-2283206D02*
G01*
X91287Y-2286152D01*
X81381Y-2286152D01*
X79502Y-2289098D01*
X72898Y-2289149D01*
X65125Y-2297023D01*
X65125Y-2306777D01*
X68072Y-2308606D01*
X68122Y-2312314D01*
X76911Y-2320798D01*
X76911Y-2324455D01*
X79857Y-2326284D01*
X79857Y-2332990D01*
X85750Y-2338425D01*
X85750Y-2341829D01*
X91643Y-2347264D01*
X91643Y-2350973D01*
X94589Y-2352802D01*
X94589Y-2356866D01*
X97536Y-2358694D01*
X97536Y-2362454D01*
X103428Y-2367889D01*
X103428Y-2371293D01*
X109321Y-2376728D01*
X109321Y-2383383D01*
X112268Y-2385212D01*
X112268Y-2392222D01*
X115214Y-2394051D01*
X115214Y-2401062D01*
X118160Y-2402890D01*
X118160Y-2406954D01*
X121107Y-2408783D01*
X121107Y-2415794D01*
X124104Y-2417622D01*
X124104Y-2424633D01*
X127050Y-2426462D01*
X127050Y-2430526D01*
X129997Y-2432354D01*
X129997Y-2439009D01*
X134924Y-2443784D01*
X138480Y-2443784D01*
X140309Y-2446731D01*
X147624Y-2446731D01*
X149504Y-2443784D01*
X156159Y-2443784D01*
X161594Y-2437892D01*
X173634Y-2437892D01*
X178562Y-2433116D01*
X178612Y-2417318D01*
X175666Y-2415438D01*
X175666Y-2411679D01*
X169773Y-2406294D01*
X169773Y-2402586D01*
X166827Y-2400706D01*
X166827Y-2390800D01*
X163880Y-2388920D01*
X163880Y-2381961D01*
X160934Y-2380081D01*
X160934Y-2376068D01*
X157988Y-2374188D01*
X157988Y-2367229D01*
X155041Y-2365349D01*
X155041Y-2358644D01*
X149148Y-2353259D01*
X149148Y-2349804D01*
X143256Y-2344420D01*
X143256Y-2340660D01*
X140309Y-2338832D01*
X140309Y-2334768D01*
X137363Y-2332939D01*
X137363Y-2329180D01*
X131470Y-2323795D01*
X131419Y-2320442D01*
X122631Y-2311908D01*
X122631Y-2308250D01*
X119633Y-2306421D01*
X119633Y-2302357D01*
X116687Y-2300528D01*
X116687Y-2296769D01*
X110794Y-2291384D01*
X110794Y-2288184D01*
X106019Y-2283256D01*
G37*
G36*
X-107950Y-2309723D02*
G01*
X-112725Y-2309774D01*
X-117551Y-2314702D01*
X-117551Y-2317902D01*
X-123444Y-2323287D01*
X-123444Y-2326741D01*
X-129336Y-2332126D01*
X-129336Y-2335885D01*
X-132283Y-2337714D01*
X-132283Y-2341473D01*
X-138176Y-2346858D01*
X-138176Y-2350617D01*
X-141122Y-2352497D01*
X-141122Y-2356002D01*
X-150825Y-2365705D01*
X-154025Y-2365705D01*
X-155854Y-2362758D01*
X-162864Y-2362758D01*
X-164693Y-2359812D01*
X-168402Y-2359812D01*
X-173837Y-2353919D01*
X-177596Y-2353919D01*
X-179425Y-2350973D01*
X-183489Y-2350973D01*
X-185318Y-2348026D01*
X-189382Y-2348026D01*
X-191211Y-2345080D01*
X-198221Y-2345080D01*
X-200050Y-2342134D01*
X-212750Y-2342134D01*
X-223621Y-2353005D01*
X-223621Y-2356053D01*
X-238353Y-2370632D01*
X-238353Y-2376982D01*
X-230632Y-2384856D01*
X-227228Y-2384856D01*
X-221843Y-2390749D01*
X-218084Y-2390749D01*
X-216255Y-2393696D01*
X-212191Y-2393696D01*
X-210362Y-2396642D01*
X-206298Y-2396642D01*
X-204470Y-2399588D01*
X-200710Y-2399588D01*
X-195326Y-2405481D01*
X-191566Y-2405481D01*
X-189738Y-2408428D01*
X-185674Y-2408428D01*
X-183845Y-2411374D01*
X-180238Y-2411374D01*
X-176479Y-2415133D01*
X-176479Y-2427224D01*
X-179425Y-2429103D01*
X-179425Y-2433116D01*
X-182372Y-2434996D01*
X-182372Y-2441956D01*
X-185318Y-2443835D01*
X-185318Y-2447848D01*
X-188264Y-2449728D01*
X-188264Y-2456688D01*
X-191211Y-2458567D01*
X-191211Y-2465527D01*
X-194157Y-2467406D01*
X-194157Y-2471420D01*
X-197104Y-2473299D01*
X-197104Y-2491892D01*
X-189382Y-2499766D01*
X-185978Y-2499766D01*
X-180594Y-2505659D01*
X-177241Y-2505659D01*
X-168757Y-2514498D01*
X-159156Y-2514498D01*
X-151434Y-2506624D01*
X-151434Y-2500122D01*
X-148488Y-2498293D01*
X-148488Y-2491282D01*
X-145542Y-2489454D01*
X-145542Y-2485390D01*
X-142595Y-2483561D01*
X-142595Y-2479497D01*
X-139649Y-2477668D01*
X-139649Y-2473604D01*
X-136702Y-2471775D01*
X-136702Y-2467711D01*
X-133756Y-2465882D01*
X-133756Y-2458872D01*
X-130810Y-2457043D01*
X-130810Y-2453436D01*
X-127050Y-2449677D01*
X-120853Y-2449677D01*
X-118973Y-2452624D01*
X-115417Y-2452624D01*
X-100838Y-2467356D01*
X-97739Y-2467356D01*
X-86156Y-2479141D01*
X-82550Y-2479141D01*
X-80670Y-2482088D01*
X-76911Y-2482088D01*
X-74066Y-2485440D01*
X-71272Y-2482088D01*
X-67970Y-2482088D01*
X-39471Y-2453589D01*
X-39471Y-2446782D01*
X-42418Y-2444902D01*
X-42418Y-2441143D01*
X-44145Y-2439365D01*
X-47498Y-2439365D01*
X-59080Y-2427579D01*
X-62280Y-2427579D01*
X-70764Y-2418740D01*
X-74066Y-2418740D01*
X-82550Y-2409901D01*
X-85699Y-2409901D01*
X-98399Y-2397252D01*
X-98399Y-2385618D01*
X-89560Y-2377135D01*
X-89560Y-2373782D01*
X-83667Y-2368346D01*
X-83667Y-2364587D01*
X-80721Y-2362758D01*
X-80721Y-2358694D01*
X-77774Y-2356866D01*
X-77774Y-2353157D01*
X-71882Y-2347722D01*
X-71882Y-2344216D01*
X-68529Y-2341422D01*
X-71882Y-2338578D01*
X-71882Y-2335326D01*
X-79603Y-2327452D01*
X-82854Y-2327402D01*
X-94437Y-2315616D01*
X-97688Y-2315616D01*
X-103124Y-2309723D01*
G37*
M02*
