G04 Layer: TopLayer*
G04 EasyEDA v6.5.50, 2025-08-14 22:33:42*
G04 e75713753cb845a6aa3ca86cf9a0bac9,7f6f5378126b4d5b8a4b95b5ffd06442,10*
G04 Gerber Generator version 0.2*
G04 Scale: 100 percent, Rotated: No, Reflected: No *
G04 Dimensions in millimeters *
G04 leading zeros omitted , absolute positions ,4 integer and 5 decimal *
%FSLAX45Y45*%
%MOMM*%

%AMMACRO1*21,1,$1,$2,0,0,$3*%
%AMMACRO2*4,1,5,-1,0.41,0.8,0.41,1,0.21,1,-0.41,-1,-0.41,-1,0.41,0*%
%AMMACRO3*4,1,34,2.1993,-0.1562,2.1829,-0.3749,2.1448,-0.5909,2.0854,-0.802,2.0053,-1.0062,1.9053,-1.2014,1.7863,-1.3856,1.6495,-1.5571,1.4964,-1.7141,1.3284,-1.8551,1.1472,-1.9786,0.9545,-2.0835,0.7524,-2.1687,0.5429,-2.2333,0.3279,-2.2768,0.1097,-2.2986,-0.1097,-2.2986,-0.3279,-2.2768,-0.5429,-2.2333,-0.7524,-2.1687,-0.9545,-2.0835,-1.1472,-1.9786,-1.3284,-1.8551,-1.4964,-1.7141,-1.6495,-1.5571,-1.7863,-1.3856,-1.9053,-1.2014,-2.0053,-1.0062,-2.0854,-0.802,-2.1448,-0.5909,-2.1829,-0.3749,-2.1993,-0.1562,-2.2,2.2986,2.2,2.2986,2.1993,-0.1562,0*%
%AMMACRO4*4,1,34,-2.1993,0.1562,-2.1829,0.3749,-2.1448,0.5909,-2.0854,0.802,-2.0053,1.0062,-1.9053,1.2014,-1.7863,1.3856,-1.6495,1.5571,-1.4964,1.7141,-1.3284,1.8551,-1.1472,1.9786,-0.9545,2.0835,-0.7524,2.1687,-0.5429,2.2333,-0.3279,2.2768,-0.1097,2.2986,0.1097,2.2986,0.3279,2.2768,0.5429,2.2333,0.7524,2.1687,0.9545,2.0835,1.1472,1.9786,1.3284,1.8551,1.4964,1.7141,1.6495,1.5571,1.7863,1.3856,1.9053,1.2014,2.0053,1.0062,2.0854,0.802,2.1448,0.5909,2.1829,0.3749,2.1993,0.1562,2.2,-2.2986,-2.2,-2.2986,-2.1993,0.1562,0*%
%AMMACRO5*4,1,34,-0.1562,-2.1993,-0.3749,-2.1829,-0.5909,-2.1448,-0.802,-2.0854,-1.0062,-2.0053,-1.2014,-1.9053,-1.3856,-1.7863,-1.5571,-1.6495,-1.7141,-1.4964,-1.8551,-1.3284,-1.9786,-1.1472,-2.0835,-0.9545,-2.1687,-0.7524,-2.2333,-0.5429,-2.2768,-0.3279,-2.2986,-0.1097,-2.2986,0.1097,-2.2768,0.3279,-2.2333,0.5429,-2.1687,0.7524,-2.0835,0.9545,-1.9786,1.1472,-1.8551,1.3284,-1.7141,1.4964,-1.5571,1.6495,-1.3856,1.7863,-1.2014,1.9053,-1.0062,2.0053,-0.802,2.0854,-0.5909,2.1448,-0.3749,2.1829,-0.1562,2.1993,2.2986,2.2,2.2986,-2.2,-0.1562,-2.1993,0*%
%AMMACRO6*4,1,34,0.1562,2.1993,0.3749,2.1829,0.5909,2.1448,0.802,2.0854,1.0062,2.0053,1.2014,1.9053,1.3856,1.7863,1.5571,1.6495,1.7141,1.4964,1.8551,1.3284,1.9786,1.1472,2.0835,0.9545,2.1687,0.7524,2.2333,0.5429,2.2768,0.3279,2.2986,0.1097,2.2986,-0.1097,2.2768,-0.3279,2.2333,-0.5429,2.1687,-0.7524,2.0835,-0.9545,1.9786,-1.1472,1.8551,-1.3284,1.7141,-1.4964,1.5571,-1.6495,1.3856,-1.7863,1.2014,-1.9053,1.0062,-2.0053,0.802,-2.0854,0.5909,-2.1448,0.3749,-2.1829,0.1562,-2.1993,-2.2986,-2.2,-2.2986,2.2,0.1562,2.1993,0*%
%AMMACRO7*4,1,34,-1.3888,-1.5939,-1.5819,-1.4899,-1.7637,-1.3673,-1.9325,-1.2272,-2.0864,-1.0709,-2.224,-0.9001,-2.3439,-0.7165,-2.4449,-0.5218,-2.5261,-0.3181,-2.5865,-0.1072,-2.6257,0.1085,-2.6432,0.3272,-2.6388,0.5465,-2.6126,0.7642,-2.5649,0.9783,-2.496,1.1865,-2.4068,1.3869,-2.2982,1.5774,-2.171,1.7561,-2.0267,1.9213,-1.8667,2.0712,-1.6925,2.2045,-1.5059,2.3198,-1.3088,2.4159,-1.1031,2.492,-0.8908,2.5472,-0.6741,2.5809,-0.4551,2.593,-0.236,2.5831,-0.019,2.5515,0.1938,2.4985,0.4003,2.4245,2.6432,1.4266,0.8535,-2.593,-1.3888,-1.5939,0*%
%AMMACRO8*4,1,34,1.3888,1.5939,1.5819,1.4899,1.7637,1.3673,1.9325,1.2272,2.0864,1.0709,2.224,0.9001,2.3439,0.7165,2.4449,0.5218,2.5261,0.3181,2.5865,0.1072,2.6257,-0.1085,2.6432,-0.3272,2.6388,-0.5465,2.6126,-0.7642,2.5649,-0.9783,2.496,-1.1865,2.4068,-1.3869,2.2982,-1.5774,2.171,-1.7561,2.0267,-1.9213,1.8667,-2.0712,1.6925,-2.2045,1.5059,-2.3198,1.3088,-2.4159,1.1031,-2.492,0.8908,-2.5472,0.6741,-2.5809,0.4551,-2.593,0.236,-2.5831,0.019,-2.5515,-0.1938,-2.4985,-0.4003,-2.4245,-2.6432,-1.4266,-0.8535,2.593,1.3888,1.5939,0*%
%AMMACRO9*4,1,34,2.121,0.9893,2.2641,0.823,2.3899,0.6434,2.4972,0.4521,2.5849,0.2511,2.6521,0.0423,2.6983,-0.1721,2.7228,-0.39,2.7256,-0.6094,2.7064,-0.8279,2.6657,-1.0434,2.6037,-1.2537,2.521,-1.4569,2.4185,-1.6508,2.2972,-1.8335,2.1583,-2.0033,2.0033,-2.1583,1.8335,-2.2972,1.6508,-2.4185,1.4569,-2.521,1.2537,-2.6037,1.0434,-2.6657,0.8279,-2.7064,0.6094,-2.7256,0.39,-2.7228,0.1721,-2.6983,-0.0423,-2.6521,-0.2511,-2.5849,-0.4521,-2.4972,-0.6434,-2.3899,-0.823,-2.2641,-0.9893,-2.121,-2.7256,-0.3857,0.3857,2.7256,2.121,0.9893,0*%
%AMMACRO10*4,1,34,-2.121,-0.9893,-2.2641,-0.823,-2.3899,-0.6434,-2.4972,-0.4521,-2.5849,-0.2511,-2.6521,-0.0423,-2.6983,0.1721,-2.7228,0.39,-2.7256,0.6094,-2.7064,0.8279,-2.6657,1.0434,-2.6037,1.2537,-2.521,1.4569,-2.4185,1.6508,-2.2972,1.8335,-2.1583,2.0033,-2.0033,2.1583,-1.8335,2.2972,-1.6508,2.4185,-1.4569,2.521,-1.2537,2.6037,-1.0434,2.6657,-0.8279,2.7064,-0.6094,2.7256,-0.39,2.7228,-0.1721,2.6983,0.0423,2.6521,0.2511,2.5849,0.4521,2.4972,0.6434,2.3899,0.823,2.2641,0.9893,2.121,2.7256,0.3857,-0.3857,-2.7256,-2.121,-0.9893,0*%
%AMMACRO11*4,1,34,3.4995,-3,-0.65,-2.9963,-0.9476,-2.9665,-1.2408,-2.9072,-1.5265,-2.8191,-1.8021,-2.7029,-2.0648,-2.5599,-2.3119,-2.3914,-2.541,-2.1992,-2.7498,-1.9851,-2.9363,-1.7512,-3.0985,-1.5,-3.235,-1.2339,-3.3443,-0.9554,-3.4253,-0.6676,-3.4772,-0.373,-3.4995,-0.0748,-3.4921,0.2242,-3.4549,0.521,-3.3883,0.8125,-3.2931,1.096,-3.1701,1.3686,-3.0205,1.6276,-2.846,1.8705,-2.6481,2.0947,-2.4288,2.2981,-2.1904,2.4787,-1.9352,2.6347,-1.6658,2.7644,-1.3847,2.8667,-1.0949,2.9405,-0.7992,2.9851,-0.5005,3,3.4995,3,3.4995,-3,0*%
%AMMACRO12*4,1,34,3.7986,0.982,1.7206,-2.6097,1.546,-2.8525,1.3481,-3.0768,1.1289,-3.2802,0.8905,-3.4607,0.6353,-3.6167,0.3658,-3.7464,0.0848,-3.8488,-0.2051,-3.9226,-0.5008,-3.9671,-0.7995,-3.982,-1.0982,-3.9671,-1.3939,-3.9226,-1.6838,-3.8488,-1.9648,-3.7464,-2.2342,-3.6167,-2.4895,-3.4608,-2.7279,-3.2802,-2.9471,-3.0768,-3.145,-2.8525,-3.3196,-2.6097,-3.4691,-2.3507,-3.5921,-2.0781,-3.6873,-1.7946,-3.7539,-1.503,-3.7911,-1.2062,-3.7986,-0.9073,-3.7762,-0.609,-3.7243,-0.3145,-3.6432,-0.0266,-3.534,0.2518,-3.3976,0.5179,-1.3976,3.982,3.7986,0.982,0*%
%AMMACRO13*4,1,34,3.9802,-1.3976,0.3847,-3.4691,0.1121,-3.5921,-0.1714,-3.6874,-0.463,-3.7539,-0.7597,-3.7911,-1.0587,-3.7986,-1.3569,-3.7762,-1.6515,-3.7243,-1.9394,-3.6433,-2.2178,-3.534,-2.4839,-3.3976,-2.7351,-3.2353,-2.969,-3.0488,-3.1831,-2.84,-3.3753,-2.6109,-3.5438,-2.3638,-3.6868,-2.1012,-3.803,-1.8256,-3.8912,-1.5398,-3.9504,-1.2466,-3.9802,-0.9491,-3.9802,-0.65,-3.9504,-0.3524,-3.8911,-0.0592,-3.803,0.2266,-3.6868,0.5021,-3.5438,0.7648,-3.3753,1.0119,-3.1831,1.241,-2.969,1.4498,-2.7351,1.6363,-2.4839,1.7986,0.9802,3.7986,3.9802,-1.3976,0*%
%AMMACRO14*4,1,34,1.6019,3.963,3.4824,0.2641,3.591,-0.0146,3.6713,-0.3027,3.7225,-0.5974,3.7441,-0.8957,3.7359,-1.1947,3.698,-1.4913,3.6307,-1.7827,3.5348,-2.066,3.4111,-2.3383,3.2609,-2.5969,3.0857,-2.8393,2.8872,-3.0631,2.6675,-3.266,2.4286,-3.4459,2.1731,-3.6012,1.9033,-3.7303,1.622,-3.8319,1.332,-3.905,1.0361,-3.9488,0.7374,-3.963,0.4387,-3.9473,0.1431,-3.902,-0.1466,-3.8275,-0.4273,-3.7245,-0.6964,-3.5941,-0.9513,-3.4375,-1.1892,-3.2563,-1.4079,-3.0524,-1.6053,-2.8276,-1.7792,-2.5843,-1.9281,-2.325,-3.7441,1.239,1.6019,3.963,0*%
%AMMACRO15*4,1,34,-1.0674,3.7815,2.5601,1.7665,2.8059,1.5962,3.0336,1.4022,3.2408,1.1866,3.4255,0.9514,3.5859,0.6989,3.7204,0.4318,3.8275,0.1526,3.9064,-0.1359,3.9561,-0.4308,3.9762,-0.7292,3.9665,-1.0281,3.9271,-1.3246,3.8584,-1.6157,3.761,-1.8985,3.636,-2.1701,3.4845,-2.428,3.3081,-2.6695,3.1086,-2.8923,2.8878,-3.0941,2.6481,-3.2729,2.3917,-3.4269,2.1213,-3.5546,1.8395,-3.6548,1.5491,-3.7265,1.253,-3.7688,0.9542,-3.7815,0.6557,-3.7644,0.3603,-3.7176,0.071,-3.6416,-0.2093,-3.5372,-0.4777,-3.4054,-3.9762,-1.4662,-1.0674,3.7815,0*%
%AMMACRO16*4,1,34,0.221,-3.9241,-3.0014,-1.3098,-3.214,-1.0994,-3.4045,-0.8689,-3.5711,-0.6205,-3.7122,-0.3568,-3.8263,-0.0804,-3.9123,0.2061,-3.9694,0.4997,-3.9969,0.7975,-3.9947,1.0965,-3.9627,1.3939,-3.9012,1.6866,-3.8109,1.9717,-3.6927,2.2464,-3.5477,2.508,-3.3774,2.7538,-3.1835,2.9815,-2.9678,3.1887,-2.7326,3.3734,-2.4801,3.5338,-2.213,3.6683,-1.9338,3.7754,-1.6453,3.8543,-1.3504,3.904,-1.052,3.9241,-0.7531,3.9144,-0.4566,3.875,-0.1655,3.8063,0.1173,3.7089,0.389,3.5839,0.6468,3.4324,0.8883,3.256,3.9969,0.7387,0.221,-3.9241,0*%
%AMMACRO17*4,1,34,-2.0446,-3.8919,-3.4603,0.0086,-3.5341,0.2984,-3.5787,0.5942,-3.5936,0.8929,-3.5787,1.1916,-3.5341,1.4873,-3.4603,1.7771,-3.358,2.0582,-3.2282,2.3277,-3.0723,2.5828,-2.8917,2.8212,-2.6883,3.0405,-2.464,3.2384,-2.2212,3.413,-1.9622,3.5625,-1.6896,3.6855,-1.4061,3.7808,-1.1145,3.8473,-0.8178,3.8845,-0.5188,3.8919,-0.2205,3.8696,0.074,3.8176,0.3619,3.7367,0.6403,3.6274,0.9064,3.491,1.1577,3.3287,1.3915,3.1422,1.6056,2.9334,1.7978,2.7043,1.9663,2.4572,2.1093,2.1945,2.2255,1.9189,3.5936,-1.8398,-2.0446,-3.8919,0*%
%AMMACRO18*4,1,34,-3.5192,-2.0964,-2.3024,1.8708,-2.1869,2.1466,-2.0445,2.4097,-1.8767,2.6572,-1.685,2.8868,-1.4714,3.0961,-1.2381,3.2832,-0.9873,3.4461,-0.7215,3.5832,-0.4434,3.6931,-0.1556,3.7748,0.1388,3.8275,0.4369,3.8506,0.7359,3.8439,1.0328,3.8074,1.3245,3.7416,1.6083,3.6471,1.8812,3.5248,2.1405,3.3759,2.3838,3.2019,2.6086,3.0046,2.8125,2.7858,2.9937,2.5479,3.1503,2.2931,3.2807,2.0239,3.3837,1.7432,3.4582,1.4535,3.5035,1.1579,3.5192,0.8592,3.505,0.5605,3.4612,0.2647,3.3881,-0.0254,2.2186,-3.8506,-3.5192,-2.0964,0*%
%AMMACRO19*4,1,34,-3.9982,0.7393,-0.7711,3.3478,-0.5211,3.5119,-0.256,3.6503,0.0216,3.7617,0.3089,3.8448,0.603,3.899,0.9011,3.9236,1.2001,3.9183,1.4972,3.8834,1.7892,3.819,2.0734,3.7259,2.347,3.6049,2.6071,3.4573,2.8512,3.2846,3.0769,3.0883,3.2819,2.8706,3.4643,2.6336,3.6222,2.3796,3.754,2.1111,3.8583,1.8308,3.9343,1.5415,3.9811,1.2462,3.9982,0.9476,3.9855,0.6488,3.9432,0.3527,3.8716,0.0623,3.7714,-0.2195,3.6436,-0.4899,3.4896,-0.7462,3.3108,-0.986,3.109,-1.2067,2.8863,-1.4063,-0.2223,-3.9236,-3.9982,0.7393,0*%
%AMMACRO20*4,1,34,0.348,3.9806,3.2278,0.9931,3.4131,0.7584,3.5742,0.5063,3.7093,0.2395,3.8171,-0.0394,3.8967,-0.3277,3.9472,-0.6225,3.968,-0.9208,3.9591,-1.2198,3.9204,-1.5163,3.8524,-1.8076,3.7557,-2.0906,3.6314,-2.3626,3.4806,-2.6209,3.3047,-2.8628,3.1058,-3.0861,2.8855,-3.2884,2.6462,-3.4678,2.3902,-3.6225,2.1201,-3.7509,1.8386,-3.8518,1.5484,-3.9241,1.2524,-3.9672,0.9537,-3.9806,0.655,-3.9643,0.3595,-3.9182,0.0701,-3.843,-0.2105,-3.7393,-0.4792,-3.6082,-0.7337,-3.4509,-0.9712,-3.2692,-1.1894,-3.0646,-3.968,-0.1873,0.348,3.9806,0*%
%ADD10C,0.8000*%
%ADD11C,0.3500*%
%ADD12C,1.2000*%
%ADD13R,1.5240X3.0000*%
%ADD14MACRO1,2X2X-34.9994*%
%ADD15MACRO1,2X2X-35.0004*%
%ADD16MACRO1,2X2X-145.0002*%
%ADD17MACRO1,1.701X1.2075X90.0000*%
%ADD18MACRO1,1.701X1.2075X0.0000*%
%ADD19R,1.7010X1.2075*%
%ADD20MACRO1,1.701X1.2075X-90.0000*%
%ADD21R,3.2000X1.6000*%
%ADD22R,2.0000X0.8200*%
%ADD23MACRO2*%
%ADD24MACRO3*%
%ADD25MACRO4*%
%ADD26MACRO5*%
%ADD27MACRO6*%
%ADD28MACRO7*%
%ADD29MACRO8*%
%ADD30MACRO9*%
%ADD31MACRO10*%
%ADD32MACRO11*%
%ADD33MACRO12*%
%ADD34MACRO13*%
%ADD35MACRO14*%
%ADD36MACRO15*%
%ADD37MACRO16*%
%ADD38MACRO17*%
%ADD39MACRO18*%
%ADD40MACRO19*%
%ADD41MACRO20*%
%ADD42C,0.6100*%
%ADD43C,0.6200*%
%ADD44C,0.0151*%

%LPD*%
D10*
X914400Y-2235200D02*
G01*
X914400Y-2442743D01*
X-2042413Y-3402076D02*
G01*
X-2042413Y-3454400D01*
X584200Y-3454400D01*
X914400Y-3124200D01*
X914400Y-2442718D01*
D11*
X-1930400Y-2311400D02*
G01*
X-1536700Y-2311400D01*
X-586994Y-1361694D01*
X-239776Y-1361694D01*
X-101600Y-1223518D01*
X-1422400Y-1752600D02*
G01*
X-1155700Y-1752600D01*
X-609600Y-1206500D01*
X-609600Y-1155700D01*
X660400Y889000D02*
G01*
X660400Y-1016000D01*
X2019300Y165100D02*
G01*
X1574800Y165100D01*
X1282700Y-127000D01*
X1226312Y-127000D01*
X1346200Y-1193800D02*
G01*
X1282700Y-1196339D01*
X152400Y-1223518D02*
G01*
X152400Y-1308100D01*
X254000Y-1409700D01*
X1104900Y-1409700D01*
X1282700Y-1231900D01*
X1282700Y-127000D01*
X1226312Y-127000D01*
X3217418Y-2605278D02*
G01*
X3217418Y-2688081D01*
X2514600Y-3390900D01*
X2349500Y-3390900D01*
X1485900Y-2527300D01*
X1485900Y-1905000D01*
X1333500Y-1752600D01*
X-80518Y-1752600D01*
X-355600Y-2027681D01*
X2882900Y50800D02*
G01*
X1257300Y-1574800D01*
X-635000Y-1574800D01*
X-1066800Y-2006600D01*
X-1066800Y-2438400D01*
X-737870Y-2767329D01*
X-247395Y-2767329D01*
X2019300Y-135178D02*
G01*
X1955800Y-198678D01*
X1955800Y-685800D01*
X-1008738Y127000D02*
G01*
X-317500Y127000D01*
X508000Y-698500D01*
X-254000Y-584200D02*
G01*
X139700Y-584200D01*
X406400Y-850900D01*
X406400Y-1016000D01*
X812800Y-1308100D02*
G01*
X863600Y-1308100D01*
X914400Y-1257300D01*
X914400Y-1016000D01*
X-3217418Y-2605278D02*
G01*
X-1399539Y-787400D01*
X-444500Y-787400D01*
X-355600Y-876300D01*
X-355600Y-1028700D01*
X-791207Y4191000D02*
G01*
X-139700Y3539492D01*
X-139700Y2819400D01*
X76200Y2603500D01*
X-609600Y-1016000D02*
G01*
X-609600Y-1155700D01*
X1181100Y-2133600D02*
G01*
X1181100Y-1943100D01*
X1066800Y-1828800D01*
X508000Y-1828800D01*
X406400Y-1930400D01*
X406400Y-2235200D01*
X-3488436Y12700D02*
G01*
X-3488436Y1159763D01*
X-2874518Y1773681D01*
X-2116328Y1773681D01*
X-2116328Y1337818D02*
G01*
X-2116328Y1388871D01*
X-1968500Y1536700D01*
X-1828800Y2362200D02*
G01*
X-1830323Y2343150D01*
X-1689100Y2177795D01*
X-1689100Y1968500D01*
X-1371600Y1651000D01*
X-1226312Y1651000D01*
X-2120900Y2362200D02*
G01*
X-2120900Y2235200D01*
X-1828800Y1943100D01*
X-1828800Y1765300D01*
X-1930400Y-2311400D02*
G01*
X-1930400Y-2679700D01*
X-1778000Y-2832100D01*
X-1379728Y-2832100D01*
X-1231900Y-2979928D01*
X-1231900Y-2692400D02*
G01*
X-1003300Y-2692400D01*
X-812800Y-2882900D01*
X-546100Y-2882900D01*
X-317500Y698500D02*
G01*
X-317500Y1685317D01*
X-791182Y2159000D01*
D10*
X152400Y-2235200D02*
G01*
X152400Y-2374900D01*
X272795Y-2495295D01*
X272795Y-2617470D01*
D11*
X-1612900Y-2979928D02*
G01*
X-1616455Y-3105404D01*
X-1407160Y-3314700D01*
X330200Y-3314700D01*
X596900Y-3048000D01*
X596900Y-2844800D01*
X519429Y-2767329D01*
X272795Y-2767329D01*
X-1008634Y2921000D02*
G01*
X-622300Y2921000D01*
X-508000Y2806700D01*
D10*
X2070100Y3585463D02*
G01*
X1786636Y3585463D01*
X1181100Y4191000D01*
X1008634Y4191000D01*
D11*
X-1441195Y3683000D02*
G01*
X-1740915Y3683000D01*
X-2446020Y2978150D01*
X-2875787Y2978150D01*
X-2908300Y-580113D02*
G01*
X-2908300Y-12700D01*
X-2273300Y622300D01*
X-2273300Y901700D01*
X152400Y-2235200D02*
G01*
X152400Y-2338959D01*
X-2875889Y2362200D02*
G01*
X-3265830Y2362200D01*
X-3620922Y2007107D01*
X-2116378Y2362200D02*
G01*
X-2875889Y2362200D01*
X-2875889Y2362200D02*
G01*
X-2875889Y2978073D01*
X1226413Y-127000D02*
G01*
X1008735Y-127000D01*
X-101600Y-1016000D02*
G01*
X-101600Y-1223543D01*
X152400Y-1016000D02*
G01*
X152400Y-1223543D01*
X-1441246Y3683000D02*
G01*
X-1873757Y3683000D01*
X-1879523Y3688765D01*
X-1008735Y3683000D02*
G01*
X-1441246Y3683000D01*
X-1820621Y1337741D02*
G01*
X-1820621Y1773758D01*
X2362200Y160578D02*
G01*
X2019300Y160578D01*
X-1820621Y901700D02*
G01*
X-1820621Y1337741D01*
X698500Y1181100D02*
G01*
X466445Y1181100D01*
X-333654Y381000D01*
X-1008738Y381000D01*
X-1888210Y0D02*
G01*
X-1342593Y545617D01*
X-1342593Y1534693D01*
X-1226286Y1651000D01*
X-2328189Y0D02*
G01*
X-1888210Y0D01*
X-1008735Y1651000D02*
G01*
X-1226286Y1651000D01*
X1008735Y1905000D02*
G01*
X791184Y1905000D01*
X-2116378Y1337741D02*
G01*
X-2590647Y1337741D01*
X-2908300Y1020089D01*
X1008738Y2159000D02*
G01*
X609600Y2159000D01*
X-2116378Y1916379D02*
G01*
X-2146503Y1946503D01*
X-2116378Y1773758D02*
G01*
X-2116378Y1916379D01*
X-3488410Y12700D02*
G01*
X-3928389Y12700D01*
X-1008735Y4191000D02*
G01*
X-791184Y4191000D01*
X-609600Y-2235200D02*
G01*
X-609600Y-2027631D01*
X-609600Y-1905000D02*
G01*
X-609600Y-2027628D01*
X660400Y-2006600D02*
G01*
X660400Y-2235200D01*
X-1008735Y3937000D02*
G01*
X-782650Y3937000D01*
X-229438Y3383787D01*
X-791182Y3175000D02*
G01*
X-693242Y3175000D01*
X546100Y1935657D01*
X546100Y1930400D01*
X-1008735Y3175000D02*
G01*
X-791184Y3175000D01*
X-1008735Y2667000D02*
G01*
X-351307Y2667000D01*
X348106Y1967585D01*
D10*
X768680Y4191000D02*
G01*
X81051Y3503371D01*
X81051Y2888259D01*
X-2402712Y-3149803D02*
G01*
X-2402712Y-2421178D01*
X-1218717Y-1237183D01*
X-831875Y-1237183D01*
X1008735Y4191000D02*
G01*
X768680Y4191000D01*
X-863600Y-1016000D02*
G01*
X-863600Y-1205458D01*
X-831875Y-1237183D01*
D11*
X-1226286Y3429000D02*
G01*
X-1247520Y3407765D01*
X-1247520Y1749983D01*
X-1008735Y3429000D02*
G01*
X-1226286Y3429000D01*
X-863600Y-2235200D02*
G01*
X-863600Y-2027631D01*
X-863600Y-1981200D02*
G01*
X-863600Y-2027628D01*
X-2116378Y901700D02*
G01*
X-2273300Y901700D01*
X1008738Y2667000D02*
G01*
X996038Y2679700D01*
X393700Y2679700D01*
X-2908300Y-580110D02*
G01*
X-2908300Y-1020089D01*
X-2116378Y901700D02*
G01*
X-2273300Y901700D01*
X1008735Y3175000D02*
G01*
X1226286Y3175000D01*
X-1008738Y-381000D02*
G01*
X-1612900Y-381000D01*
X-1612900Y-2514600D02*
G01*
X-1612900Y-2684221D01*
X-1008735Y2159000D02*
G01*
X-791184Y2159000D01*
D10*
X2402713Y-3150412D02*
G01*
X2402713Y-2325039D01*
X3585336Y-1142415D01*
X3585336Y2069998D01*
D11*
X-355600Y-2235200D02*
G01*
X-355600Y-2027631D01*
D12*
X-101600Y-1016000D02*
G01*
X152400Y-1016000D01*
X-101600Y-2235200D02*
G01*
X152400Y-2235200D01*
D11*
X2362200Y-135128D02*
G01*
X2419095Y-134873D01*
X2601213Y49021D01*
X2601213Y1002792D01*
D10*
X2042159Y-3402837D02*
G01*
X1874520Y-3402837D01*
X914400Y-2442718D01*
D11*
X-698500Y2552700D02*
G01*
X76200Y1778000D01*
X609600Y1778000D01*
X736600Y1905000D01*
X791210Y1905000D01*
X1226289Y3175000D02*
G01*
X2882900Y1518389D01*
X2882900Y50800D01*
D13*
G01*
X-609600Y-2235200D03*
G01*
X-355600Y-2235200D03*
G01*
X-101600Y-2235200D03*
G01*
X152400Y-2235200D03*
G01*
X406400Y-2235200D03*
G01*
X660400Y-2235200D03*
G01*
X914400Y-2235200D03*
G01*
X-609600Y-1016000D03*
G01*
X-355600Y-1016000D03*
G01*
X-101600Y-1016000D03*
G01*
X152400Y-1016000D03*
G01*
X406400Y-1016000D03*
G01*
X660400Y-1016000D03*
G01*
X914400Y-1016000D03*
G01*
X-863600Y-1016000D03*
G01*
X-863600Y-2235200D03*
D14*
G01*
X-2402709Y-3149794D03*
D15*
G01*
X-2042280Y-3402166D03*
D16*
G01*
X2402712Y-3150414D03*
G01*
X2042287Y-3402785D03*
D17*
G01*
X-1820623Y2362200D03*
G01*
X-2116376Y2362200D03*
D18*
G01*
X2019300Y160576D03*
D19*
G01*
X2019300Y-135178D03*
D17*
G01*
X-1820623Y1773768D03*
G01*
X-2116376Y1773768D03*
D18*
G01*
X2362200Y-135176D03*
D19*
G01*
X2362200Y160578D03*
D17*
G01*
X-1820623Y1337731D03*
G01*
X-2116376Y1337731D03*
D20*
G01*
X-2116376Y901700D03*
G01*
X-1820623Y901700D03*
D18*
G01*
X-1612900Y-2684223D03*
D19*
G01*
X-1612900Y-2979978D03*
D21*
G01*
X-1008735Y4191000D03*
G01*
X1008735Y4191000D03*
G01*
X-1008735Y3937000D03*
G01*
X1008735Y3937000D03*
G01*
X-1008735Y3683000D03*
G01*
X1008735Y3683000D03*
G01*
X-1008735Y3429000D03*
G01*
X1008735Y3429000D03*
G01*
X-1008735Y3175000D03*
G01*
X1008735Y3175000D03*
G01*
X-1008735Y2921000D03*
G01*
X1008735Y2921000D03*
G01*
X-1008735Y2667000D03*
G01*
X1008735Y2667000D03*
G01*
X-1008735Y2413000D03*
G01*
X1008735Y2413000D03*
G01*
X-1008735Y2159000D03*
G01*
X1008735Y2159000D03*
G01*
X-1008735Y1905000D03*
G01*
X1008735Y1905000D03*
G01*
X-1008735Y1651000D03*
G01*
X1008735Y1651000D03*
G01*
X-1008735Y1397000D03*
G01*
X1008735Y1397000D03*
G01*
X-1008735Y1143000D03*
G01*
X1008735Y1143000D03*
G01*
X-1008735Y889000D03*
G01*
X1008735Y889000D03*
G01*
X-1008735Y635000D03*
G01*
X1008735Y635000D03*
G01*
X-1008735Y381000D03*
G01*
X1008735Y381000D03*
G01*
X-1008735Y127000D03*
G01*
X1008735Y127000D03*
G01*
X-1008735Y-127000D03*
G01*
X1008735Y-127000D03*
G01*
X-1008735Y-381000D03*
G01*
X1008735Y-381000D03*
G01*
X-1008735Y-635000D03*
G01*
X1008735Y-635000D03*
D18*
G01*
X-1231900Y-2684223D03*
D19*
G01*
X-1231900Y-2979978D03*
D22*
G01*
X-247294Y-2617393D03*
G01*
X-247294Y-2767406D03*
G01*
X272694Y-2767406D03*
D23*
G01*
X272702Y-2617400D03*
D24*
G01*
X-2908300Y590237D03*
D25*
G01*
X-2908300Y1009962D03*
D26*
G01*
X-3918262Y12700D03*
D27*
G01*
X-3498537Y12700D03*
D24*
G01*
X-2908300Y-1009962D03*
D25*
G01*
X-2908300Y-590237D03*
D28*
G01*
X2243735Y1142382D03*
D29*
G01*
X2556864Y1042017D03*
D30*
G01*
X2846052Y-928352D03*
D31*
G01*
X2640347Y-722647D03*
D32*
G01*
X4190038Y0D03*
D33*
G01*
X2149944Y3683543D03*
D34*
G01*
X3683728Y2149946D03*
D35*
G01*
X-1954004Y3785059D03*
D36*
G01*
X-3718586Y2085266D03*
D37*
G01*
X3317339Y-2697839D03*
D38*
G01*
X1475318Y-3979608D03*
D39*
G01*
X-1262336Y-4044268D03*
D40*
G01*
X-3317209Y-2697895D03*
D41*
G01*
X-2972742Y3076129D03*
D26*
G01*
X-2318062Y0D03*
D27*
G01*
X-1898337Y0D03*
D42*
G01*
X-1930400Y-2311400D03*
G01*
X698500Y1181100D03*
G01*
X508000Y-698500D03*
G01*
X1955800Y-685800D03*
G01*
X-1968500Y1536700D03*
G01*
X-698500Y2552700D03*
G01*
X-2146503Y1946503D03*
G01*
X609600Y2159000D03*
G01*
X-609600Y-1905000D03*
G01*
X76200Y2603500D03*
G01*
X1181100Y-2133600D03*
G01*
X660400Y-2006600D03*
G01*
X-229438Y3383787D03*
G01*
X-1422400Y-1752600D03*
G01*
X-508000Y2806700D03*
G01*
X-254000Y-584200D03*
G01*
X660400Y889000D03*
G01*
X546100Y1930400D03*
G01*
X812800Y-1308100D03*
G01*
X348106Y1967585D03*
G01*
X-831875Y-1237183D03*
G01*
X81051Y2888259D03*
G01*
X-863600Y-1981200D03*
G01*
X-1247520Y1749983D03*
G01*
X-2273300Y901700D03*
G01*
X393700Y2679700D03*
G01*
X2882900Y50800D03*
G01*
X-1612900Y-2514600D03*
G01*
X-1612900Y-381000D03*
G01*
X-317500Y698500D03*
G01*
X-546100Y-2882900D03*
D43*
G01*
X1346200Y-1193800D03*
M02*
