G04 Layer: BottomLayer*
G04 EasyEDA v6.5.50, 2025-08-14 22:33:42*
G04 e75713753cb845a6aa3ca86cf9a0bac9,7f6f5378126b4d5b8a4b95b5ffd06442,10*
G04 Gerber Generator version 0.2*
G04 Scale: 100 percent, Rotated: No, Reflected: No *
G04 Dimensions in millimeters *
G04 leading zeros omitted , absolute positions ,4 integer and 5 decimal *
%FSLAX45Y45*%
%MOMM*%

%AMMACRO1*4,1,34,2.1993,-0.1562,2.1829,-0.3749,2.1448,-0.5909,2.0854,-0.802,2.0053,-1.0062,1.9053,-1.2014,1.7863,-1.3856,1.6495,-1.5571,1.4964,-1.7141,1.3284,-1.8551,1.1472,-1.9786,0.9545,-2.0835,0.7524,-2.1687,0.5429,-2.2333,0.3279,-2.2768,0.1097,-2.2986,-0.1097,-2.2986,-0.3279,-2.2768,-0.5429,-2.2333,-0.7524,-2.1687,-0.9545,-2.0835,-1.1472,-1.9786,-1.3284,-1.8551,-1.4964,-1.7141,-1.6495,-1.5571,-1.7863,-1.3856,-1.9053,-1.2014,-2.0053,-1.0062,-2.0854,-0.802,-2.1448,-0.5909,-2.1829,-0.3749,-2.1993,-0.1562,-2.2,2.2986,2.2,2.2986,2.1993,-0.1562,0*%
%AMMACRO2*4,1,34,-2.1993,0.1562,-2.1829,0.3749,-2.1448,0.5909,-2.0854,0.802,-2.0053,1.0062,-1.9053,1.2014,-1.7863,1.3856,-1.6495,1.5571,-1.4964,1.7141,-1.3284,1.8551,-1.1472,1.9786,-0.9545,2.0835,-0.7524,2.1687,-0.5429,2.2333,-0.3279,2.2768,-0.1097,2.2986,0.1097,2.2986,0.3279,2.2768,0.5429,2.2333,0.7524,2.1687,0.9545,2.0835,1.1472,1.9786,1.3284,1.8551,1.4964,1.7141,1.6495,1.5571,1.7863,1.3856,1.9053,1.2014,2.0053,1.0062,2.0854,0.802,2.1448,0.5909,2.1829,0.3749,2.1993,0.1562,2.2,-2.2986,-2.2,-2.2986,-2.1993,0.1562,0*%
%AMMACRO3*4,1,34,-0.1562,-2.1993,-0.3749,-2.1829,-0.5909,-2.1448,-0.802,-2.0854,-1.0062,-2.0053,-1.2014,-1.9053,-1.3856,-1.7863,-1.5571,-1.6495,-1.7141,-1.4964,-1.8551,-1.3284,-1.9786,-1.1472,-2.0835,-0.9545,-2.1687,-0.7524,-2.2333,-0.5429,-2.2768,-0.3279,-2.2986,-0.1097,-2.2986,0.1097,-2.2768,0.3279,-2.2333,0.5429,-2.1687,0.7524,-2.0835,0.9545,-1.9786,1.1472,-1.8551,1.3284,-1.7141,1.4964,-1.5571,1.6495,-1.3856,1.7863,-1.2014,1.9053,-1.0062,2.0053,-0.802,2.0854,-0.5909,2.1448,-0.3749,2.1829,-0.1562,2.1993,2.2986,2.2,2.2986,-2.2,-0.1562,-2.1993,0*%
%AMMACRO4*4,1,34,0.1562,2.1993,0.3749,2.1829,0.5909,2.1448,0.802,2.0854,1.0062,2.0053,1.2014,1.9053,1.3856,1.7863,1.5571,1.6495,1.7141,1.4964,1.8551,1.3284,1.9786,1.1472,2.0835,0.9545,2.1687,0.7524,2.2333,0.5429,2.2768,0.3279,2.2986,0.1097,2.2986,-0.1097,2.2768,-0.3279,2.2333,-0.5429,2.1687,-0.7524,2.0835,-0.9545,1.9786,-1.1472,1.8551,-1.3284,1.7141,-1.4964,1.5571,-1.6495,1.3856,-1.7863,1.2014,-1.9053,1.0062,-2.0053,0.802,-2.0854,0.5909,-2.1448,0.3749,-2.1829,0.1562,-2.1993,-2.2986,-2.2,-2.2986,2.2,0.1562,2.1993,0*%
%AMMACRO5*4,1,34,-1.3888,-1.5939,-1.5819,-1.4899,-1.7637,-1.3673,-1.9325,-1.2272,-2.0864,-1.0709,-2.224,-0.9001,-2.3439,-0.7165,-2.4449,-0.5218,-2.5261,-0.3181,-2.5865,-0.1072,-2.6257,0.1085,-2.6432,0.3272,-2.6388,0.5465,-2.6126,0.7642,-2.5649,0.9783,-2.496,1.1865,-2.4068,1.3869,-2.2982,1.5774,-2.171,1.7561,-2.0267,1.9213,-1.8667,2.0712,-1.6925,2.2045,-1.5059,2.3198,-1.3088,2.4159,-1.1031,2.492,-0.8908,2.5472,-0.6741,2.5809,-0.4551,2.593,-0.236,2.5831,-0.019,2.5515,0.1938,2.4985,0.4003,2.4245,2.6432,1.4266,0.8535,-2.593,-1.3888,-1.5939,0*%
%AMMACRO6*4,1,34,1.3888,1.5939,1.5819,1.4899,1.7637,1.3673,1.9325,1.2272,2.0864,1.0709,2.224,0.9001,2.3439,0.7165,2.4449,0.5218,2.5261,0.3181,2.5865,0.1072,2.6257,-0.1085,2.6432,-0.3272,2.6388,-0.5465,2.6126,-0.7642,2.5649,-0.9783,2.496,-1.1865,2.4068,-1.3869,2.2982,-1.5774,2.171,-1.7561,2.0267,-1.9213,1.8667,-2.0712,1.6925,-2.2045,1.5059,-2.3198,1.3088,-2.4159,1.1031,-2.492,0.8908,-2.5472,0.6741,-2.5809,0.4551,-2.593,0.236,-2.5831,0.019,-2.5515,-0.1938,-2.4985,-0.4003,-2.4245,-2.6432,-1.4266,-0.8535,2.593,1.3888,1.5939,0*%
%AMMACRO7*4,1,34,2.121,0.9893,2.2641,0.823,2.3899,0.6434,2.4972,0.4521,2.5849,0.2511,2.6521,0.0423,2.6983,-0.1721,2.7228,-0.39,2.7256,-0.6094,2.7064,-0.8279,2.6657,-1.0434,2.6037,-1.2537,2.521,-1.4569,2.4185,-1.6508,2.2972,-1.8335,2.1583,-2.0033,2.0033,-2.1583,1.8335,-2.2972,1.6508,-2.4185,1.4569,-2.521,1.2537,-2.6037,1.0434,-2.6657,0.8279,-2.7064,0.6094,-2.7256,0.39,-2.7228,0.1721,-2.6983,-0.0423,-2.6521,-0.2511,-2.5849,-0.4521,-2.4972,-0.6434,-2.3899,-0.823,-2.2641,-0.9893,-2.121,-2.7256,-0.3857,0.3857,2.7256,2.121,0.9893,0*%
%AMMACRO8*4,1,34,-2.121,-0.9893,-2.2641,-0.823,-2.3899,-0.6434,-2.4972,-0.4521,-2.5849,-0.2511,-2.6521,-0.0423,-2.6983,0.1721,-2.7228,0.39,-2.7256,0.6094,-2.7064,0.8279,-2.6657,1.0434,-2.6037,1.2537,-2.521,1.4569,-2.4185,1.6508,-2.2972,1.8335,-2.1583,2.0033,-2.0033,2.1583,-1.8335,2.2972,-1.6508,2.4185,-1.4569,2.521,-1.2537,2.6037,-1.0434,2.6657,-0.8279,2.7064,-0.6094,2.7256,-0.39,2.7228,-0.1721,2.6983,0.0423,2.6521,0.2511,2.5849,0.4521,2.4972,0.6434,2.3899,0.823,2.2641,0.9893,2.121,2.7256,0.3857,-0.3857,-2.7256,-2.121,-0.9893,0*%
%AMMACRO9*4,1,34,3.4995,-3,-0.65,-2.9963,-0.9476,-2.9665,-1.2408,-2.9072,-1.5265,-2.8191,-1.8021,-2.7029,-2.0648,-2.5599,-2.3119,-2.3914,-2.541,-2.1992,-2.7498,-1.9851,-2.9363,-1.7512,-3.0985,-1.5,-3.235,-1.2339,-3.3443,-0.9554,-3.4253,-0.6676,-3.4772,-0.373,-3.4995,-0.0748,-3.4921,0.2242,-3.4549,0.521,-3.3883,0.8125,-3.2931,1.096,-3.1701,1.3686,-3.0205,1.6276,-2.846,1.8705,-2.6481,2.0947,-2.4288,2.2981,-2.1904,2.4787,-1.9352,2.6347,-1.6658,2.7644,-1.3847,2.8667,-1.0949,2.9405,-0.7992,2.9851,-0.5005,3,3.4995,3,3.4995,-3,0*%
%AMMACRO10*4,1,34,3.7986,0.982,1.7206,-2.6097,1.546,-2.8525,1.3481,-3.0768,1.1289,-3.2802,0.8905,-3.4607,0.6353,-3.6167,0.3658,-3.7464,0.0848,-3.8488,-0.2051,-3.9226,-0.5008,-3.9671,-0.7995,-3.982,-1.0982,-3.9671,-1.3939,-3.9226,-1.6838,-3.8488,-1.9648,-3.7464,-2.2342,-3.6167,-2.4895,-3.4608,-2.7279,-3.2802,-2.9471,-3.0768,-3.145,-2.8525,-3.3196,-2.6097,-3.4691,-2.3507,-3.5921,-2.0781,-3.6873,-1.7946,-3.7539,-1.503,-3.7911,-1.2062,-3.7986,-0.9073,-3.7762,-0.609,-3.7243,-0.3145,-3.6432,-0.0266,-3.534,0.2518,-3.3976,0.5179,-1.3976,3.982,3.7986,0.982,0*%
%AMMACRO11*4,1,34,3.9802,-1.3976,0.3847,-3.4691,0.1121,-3.5921,-0.1714,-3.6874,-0.463,-3.7539,-0.7597,-3.7911,-1.0587,-3.7986,-1.3569,-3.7762,-1.6515,-3.7243,-1.9394,-3.6433,-2.2178,-3.534,-2.4839,-3.3976,-2.7351,-3.2353,-2.969,-3.0488,-3.1831,-2.84,-3.3753,-2.6109,-3.5438,-2.3638,-3.6868,-2.1012,-3.803,-1.8256,-3.8912,-1.5398,-3.9504,-1.2466,-3.9802,-0.9491,-3.9802,-0.65,-3.9504,-0.3524,-3.8911,-0.0592,-3.803,0.2266,-3.6868,0.5021,-3.5438,0.7648,-3.3753,1.0119,-3.1831,1.241,-2.969,1.4498,-2.7351,1.6363,-2.4839,1.7986,0.9802,3.7986,3.9802,-1.3976,0*%
%AMMACRO12*4,1,34,1.6019,3.963,3.4824,0.2641,3.591,-0.0146,3.6713,-0.3027,3.7225,-0.5974,3.7441,-0.8957,3.7359,-1.1947,3.698,-1.4913,3.6307,-1.7827,3.5348,-2.066,3.4111,-2.3383,3.2609,-2.5969,3.0857,-2.8393,2.8872,-3.0631,2.6675,-3.266,2.4286,-3.4459,2.1731,-3.6012,1.9033,-3.7303,1.622,-3.8319,1.332,-3.905,1.0361,-3.9488,0.7374,-3.963,0.4387,-3.9473,0.1431,-3.902,-0.1466,-3.8275,-0.4273,-3.7245,-0.6964,-3.5941,-0.9513,-3.4375,-1.1892,-3.2563,-1.4079,-3.0524,-1.6053,-2.8276,-1.7792,-2.5843,-1.9281,-2.325,-3.7441,1.239,1.6019,3.963,0*%
%AMMACRO13*4,1,34,-1.0674,3.7815,2.5601,1.7665,2.8059,1.5962,3.0336,1.4022,3.2408,1.1866,3.4255,0.9514,3.5859,0.6989,3.7204,0.4318,3.8275,0.1526,3.9064,-0.1359,3.9561,-0.4308,3.9762,-0.7292,3.9665,-1.0281,3.9271,-1.3246,3.8584,-1.6157,3.761,-1.8985,3.636,-2.1701,3.4845,-2.428,3.3081,-2.6695,3.1086,-2.8923,2.8878,-3.0941,2.6481,-3.2729,2.3917,-3.4269,2.1213,-3.5546,1.8395,-3.6548,1.5491,-3.7265,1.253,-3.7688,0.9542,-3.7815,0.6557,-3.7644,0.3603,-3.7176,0.071,-3.6416,-0.2093,-3.5372,-0.4777,-3.4054,-3.9762,-1.4662,-1.0674,3.7815,0*%
%AMMACRO14*4,1,34,0.221,-3.9241,-3.0014,-1.3098,-3.214,-1.0994,-3.4045,-0.8689,-3.5711,-0.6205,-3.7122,-0.3568,-3.8263,-0.0804,-3.9123,0.2061,-3.9694,0.4997,-3.9969,0.7975,-3.9947,1.0965,-3.9627,1.3939,-3.9012,1.6866,-3.8109,1.9717,-3.6927,2.2464,-3.5477,2.508,-3.3774,2.7538,-3.1835,2.9815,-2.9678,3.1887,-2.7326,3.3734,-2.4801,3.5338,-2.213,3.6683,-1.9338,3.7754,-1.6453,3.8543,-1.3504,3.904,-1.052,3.9241,-0.7531,3.9144,-0.4566,3.875,-0.1655,3.8063,0.1173,3.7089,0.389,3.5839,0.6468,3.4324,0.8883,3.256,3.9969,0.7387,0.221,-3.9241,0*%
%AMMACRO15*4,1,34,-2.0446,-3.8919,-3.4603,0.0086,-3.5341,0.2984,-3.5787,0.5942,-3.5936,0.8929,-3.5787,1.1916,-3.5341,1.4873,-3.4603,1.7771,-3.358,2.0582,-3.2282,2.3277,-3.0723,2.5828,-2.8917,2.8212,-2.6883,3.0405,-2.464,3.2384,-2.2212,3.413,-1.9622,3.5625,-1.6896,3.6855,-1.4061,3.7808,-1.1145,3.8473,-0.8178,3.8845,-0.5188,3.8919,-0.2205,3.8696,0.074,3.8176,0.3619,3.7367,0.6403,3.6274,0.9064,3.491,1.1577,3.3287,1.3915,3.1422,1.6056,2.9334,1.7978,2.7043,1.9663,2.4572,2.1093,2.1945,2.2255,1.9189,3.5936,-1.8398,-2.0446,-3.8919,0*%
%AMMACRO16*4,1,34,-3.5192,-2.0964,-2.3024,1.8708,-2.1869,2.1466,-2.0445,2.4097,-1.8767,2.6572,-1.685,2.8868,-1.4714,3.0961,-1.2381,3.2832,-0.9873,3.4461,-0.7215,3.5832,-0.4434,3.6931,-0.1556,3.7748,0.1388,3.8275,0.4369,3.8506,0.7359,3.8439,1.0328,3.8074,1.3245,3.7416,1.6083,3.6471,1.8812,3.5248,2.1405,3.3759,2.3838,3.2019,2.6086,3.0046,2.8125,2.7858,2.9937,2.5479,3.1503,2.2931,3.2807,2.0239,3.3837,1.7432,3.4582,1.4535,3.5035,1.1579,3.5192,0.8592,3.505,0.5605,3.4612,0.2647,3.3881,-0.0254,2.2186,-3.8506,-3.5192,-2.0964,0*%
%AMMACRO17*4,1,34,-3.9982,0.7393,-0.7711,3.3478,-0.5211,3.5119,-0.256,3.6503,0.0216,3.7617,0.3089,3.8448,0.603,3.899,0.9011,3.9236,1.2001,3.9183,1.4972,3.8834,1.7892,3.819,2.0734,3.7259,2.347,3.6049,2.6071,3.4573,2.8512,3.2846,3.0769,3.0883,3.2819,2.8706,3.4643,2.6336,3.6222,2.3796,3.754,2.1111,3.8583,1.8308,3.9343,1.5415,3.9811,1.2462,3.9982,0.9476,3.9855,0.6488,3.9432,0.3527,3.8716,0.0623,3.7714,-0.2195,3.6436,-0.4899,3.4896,-0.7462,3.3108,-0.986,3.109,-1.2067,2.8863,-1.4063,-0.2223,-3.9236,-3.9982,0.7393,0*%
%AMMACRO18*4,1,34,0.348,3.9806,3.2278,0.9931,3.4131,0.7584,3.5742,0.5063,3.7093,0.2395,3.8171,-0.0394,3.8967,-0.3277,3.9472,-0.6225,3.968,-0.9208,3.9591,-1.2198,3.9204,-1.5163,3.8524,-1.8076,3.7557,-2.0906,3.6314,-2.3626,3.4806,-2.6209,3.3047,-2.8628,3.1058,-3.0861,2.8855,-3.2884,2.6462,-3.4678,2.3902,-3.6225,2.1201,-3.7509,1.8386,-3.8518,1.5484,-3.9241,1.2524,-3.9672,0.9537,-3.9806,0.655,-3.9643,0.3595,-3.9182,0.0701,-3.843,-0.2105,-3.7393,-0.4792,-3.6082,-0.7337,-3.4509,-0.9712,-3.2692,-1.1894,-3.0646,-3.968,-0.1873,0.348,3.9806,0*%
%ADD10C,0.3500*%
%ADD11C,0.8000*%
%ADD12C,0.5000*%
%ADD13MACRO1*%
%ADD14MACRO2*%
%ADD15MACRO3*%
%ADD16MACRO4*%
%ADD17MACRO5*%
%ADD18MACRO6*%
%ADD19MACRO7*%
%ADD20MACRO8*%
%ADD21MACRO9*%
%ADD22MACRO10*%
%ADD23MACRO11*%
%ADD24MACRO12*%
%ADD25MACRO13*%
%ADD26MACRO14*%
%ADD27MACRO15*%
%ADD28MACRO16*%
%ADD29MACRO17*%
%ADD30MACRO18*%
%ADD31C,0.6100*%
%ADD32C,0.6200*%
%ADD33C,0.0166*%

%LPD*%
G36*
X33629Y-2128164D02*
G01*
X31750Y-2131161D01*
X15697Y-2131161D01*
X13817Y-2134158D01*
X3708Y-2134158D01*
X1879Y-2137156D01*
X-5232Y-2137156D01*
X-7112Y-2140153D01*
X-14224Y-2140153D01*
X-16052Y-2143150D01*
X-20167Y-2143150D01*
X-22047Y-2146147D01*
X-26162Y-2146147D01*
X-28041Y-2149094D01*
X-35153Y-2149094D01*
X-36982Y-2152091D01*
X-44094Y-2152091D01*
X-45974Y-2155088D01*
X-70662Y-2155088D01*
X-72542Y-2152091D01*
X-82600Y-2152091D01*
X-84480Y-2149094D01*
X-97586Y-2149094D01*
X-99415Y-2146147D01*
X-112522Y-2146147D01*
X-114401Y-2143150D01*
X-229412Y-2143150D01*
X-231292Y-2146147D01*
X-244398Y-2146147D01*
X-246227Y-2149094D01*
X-253339Y-2149094D01*
X-255219Y-2152091D01*
X-262331Y-2152091D01*
X-264160Y-2155088D01*
X-271272Y-2155088D01*
X-273151Y-2158085D01*
X-277266Y-2158085D01*
X-279146Y-2161082D01*
X-283260Y-2161082D01*
X-285089Y-2164080D01*
X-288899Y-2164080D01*
X-294436Y-2170023D01*
X-297891Y-2170023D01*
X-303377Y-2176018D01*
X-306781Y-2176018D01*
X-315417Y-2185009D01*
X-318566Y-2185009D01*
X-362458Y-2228900D01*
X-362458Y-2231948D01*
X-377393Y-2246731D01*
X-377393Y-2249982D01*
X-386384Y-2258568D01*
X-386384Y-2262022D01*
X-392379Y-2267508D01*
X-392379Y-2271318D01*
X-395376Y-2273198D01*
X-395376Y-2277313D01*
X-398322Y-2279142D01*
X-398322Y-2283256D01*
X-401320Y-2285136D01*
X-401320Y-2292248D01*
X-404317Y-2294128D01*
X-404317Y-2298192D01*
X-407314Y-2300071D01*
X-407314Y-2307183D01*
X-410311Y-2309063D01*
X-410311Y-2319121D01*
X-413308Y-2321001D01*
X-413308Y-2340051D01*
X-416255Y-2341930D01*
X-416255Y-2366975D01*
X-419252Y-2368854D01*
X-419252Y-2442057D01*
X-416255Y-2443937D01*
X-416255Y-2471928D01*
X-413308Y-2473807D01*
X-413308Y-2489860D01*
X-410311Y-2491740D01*
X-410311Y-2501849D01*
X-407314Y-2503678D01*
X-407314Y-2510790D01*
X-404317Y-2512669D01*
X-404317Y-2519781D01*
X-401320Y-2521610D01*
X-401320Y-2528722D01*
X-398322Y-2530602D01*
X-398322Y-2534716D01*
X-395376Y-2536596D01*
X-395376Y-2540711D01*
X-392379Y-2542540D01*
X-392379Y-2546654D01*
X-389382Y-2548534D01*
X-389382Y-2552649D01*
X-386384Y-2554528D01*
X-386384Y-2558643D01*
X-383387Y-2560472D01*
X-383387Y-2564282D01*
X-377393Y-2569819D01*
X-377393Y-2573274D01*
X-371449Y-2578760D01*
X-371449Y-2582164D01*
X-362458Y-2590800D01*
X-362458Y-2594152D01*
X-353517Y-2602738D01*
X-353517Y-2606446D01*
X-350520Y-2608326D01*
X-350520Y-2627020D01*
X-353517Y-2628900D01*
X-353517Y-2632608D01*
X-362458Y-2641193D01*
X-362458Y-2644495D01*
X-374446Y-2656281D01*
X-374446Y-2659481D01*
X-383387Y-2668117D01*
X-383387Y-2671470D01*
X-392379Y-2680055D01*
X-392379Y-2683814D01*
X-395376Y-2685694D01*
X-395376Y-2689453D01*
X-401320Y-2694940D01*
X-401320Y-2698750D01*
X-404317Y-2700629D01*
X-404317Y-2704744D01*
X-407314Y-2706624D01*
X-407314Y-2710738D01*
X-410311Y-2712618D01*
X-410311Y-2716682D01*
X-413308Y-2718562D01*
X-413308Y-2722676D01*
X-416255Y-2724556D01*
X-416255Y-2728671D01*
X-419252Y-2730550D01*
X-419252Y-2737307D01*
X-425246Y-2742793D01*
X-425246Y-2746044D01*
X-438099Y-2758897D01*
X-441655Y-2758897D01*
X-443534Y-2761894D01*
X-447649Y-2761894D01*
X-449529Y-2764891D01*
X-456641Y-2764891D01*
X-458470Y-2767888D01*
X-462584Y-2767888D01*
X-464464Y-2770886D01*
X-471576Y-2770886D01*
X-473456Y-2773883D01*
X-480517Y-2773883D01*
X-482396Y-2776829D01*
X-486511Y-2776829D01*
X-488391Y-2779826D01*
X-492506Y-2779826D01*
X-494334Y-2782824D01*
X-498449Y-2782824D01*
X-500329Y-2785821D01*
X-504443Y-2785821D01*
X-506323Y-2788818D01*
X-510438Y-2788818D01*
X-512267Y-2791815D01*
X-516026Y-2791815D01*
X-524662Y-2800756D01*
X-527812Y-2800756D01*
X-550773Y-2823718D01*
X-550773Y-2826969D01*
X-556768Y-2832455D01*
X-556768Y-2836265D01*
X-559765Y-2838145D01*
X-559765Y-2848254D01*
X-562762Y-2850083D01*
X-562762Y-2887116D01*
X-516432Y-2887116D01*
X-516432Y-2862427D01*
X-513435Y-2860548D01*
X-513435Y-2856433D01*
X-510438Y-2854553D01*
X-510438Y-2850997D01*
X-494588Y-2835148D01*
X-491032Y-2835148D01*
X-489153Y-2832150D01*
X-485038Y-2832150D01*
X-483158Y-2829153D01*
X-479043Y-2829153D01*
X-477215Y-2826156D01*
X-473100Y-2826156D01*
X-471220Y-2823210D01*
X-467106Y-2823210D01*
X-465226Y-2820212D01*
X-461111Y-2820212D01*
X-459282Y-2817215D01*
X-452170Y-2817215D01*
X-450291Y-2814218D01*
X-443179Y-2814218D01*
X-441299Y-2811221D01*
X-437235Y-2811221D01*
X-435356Y-2808224D01*
X-428243Y-2808224D01*
X-426364Y-2805226D01*
X-419303Y-2805226D01*
X-417423Y-2802280D01*
X-413308Y-2802280D01*
X-411429Y-2799283D01*
X-407619Y-2799283D01*
X-402132Y-2793288D01*
X-398881Y-2793288D01*
X-387858Y-2782316D01*
X-387858Y-2779064D01*
X-381914Y-2773527D01*
X-381914Y-2766771D01*
X-378917Y-2764891D01*
X-378917Y-2760776D01*
X-375920Y-2758897D01*
X-375920Y-2754782D01*
X-372922Y-2752902D01*
X-372922Y-2745841D01*
X-369925Y-2743962D01*
X-369925Y-2739847D01*
X-366979Y-2737967D01*
X-366979Y-2733852D01*
X-363982Y-2732024D01*
X-363982Y-2727909D01*
X-360984Y-2726029D01*
X-360984Y-2721914D01*
X-357987Y-2720035D01*
X-357987Y-2716276D01*
X-351993Y-2710789D01*
X-351993Y-2706979D01*
X-348996Y-2705100D01*
X-348996Y-2701391D01*
X-340055Y-2692755D01*
X-340055Y-2689453D01*
X-331114Y-2680817D01*
X-331063Y-2677566D01*
X-316128Y-2662783D01*
X-316128Y-2659634D01*
X-298196Y-2641854D01*
X-298196Y-2638552D01*
X-292201Y-2633065D01*
X-292201Y-2626258D01*
X-289255Y-2624378D01*
X-289255Y-2610967D01*
X-292201Y-2609088D01*
X-292201Y-2604973D01*
X-295198Y-2603144D01*
X-295198Y-2599283D01*
X-301193Y-2593797D01*
X-301193Y-2590495D01*
X-316128Y-2575712D01*
X-316128Y-2572562D01*
X-328117Y-2560777D01*
X-328117Y-2557475D01*
X-334060Y-2551938D01*
X-334060Y-2548483D01*
X-340055Y-2542997D01*
X-340055Y-2539238D01*
X-343052Y-2537358D01*
X-343052Y-2533243D01*
X-346049Y-2531364D01*
X-346049Y-2527249D01*
X-348996Y-2525420D01*
X-348996Y-2521305D01*
X-351993Y-2519426D01*
X-351993Y-2515311D01*
X-354990Y-2513431D01*
X-354990Y-2509316D01*
X-357987Y-2507488D01*
X-357987Y-2500376D01*
X-360984Y-2498496D01*
X-360984Y-2491384D01*
X-363982Y-2489504D01*
X-363982Y-2479446D01*
X-366979Y-2477566D01*
X-366979Y-2467457D01*
X-369925Y-2465628D01*
X-369925Y-2446578D01*
X-372922Y-2444699D01*
X-372922Y-2407767D01*
X-376275Y-2405430D01*
X-372922Y-2403094D01*
X-372922Y-2366213D01*
X-369925Y-2364333D01*
X-369925Y-2345283D01*
X-366979Y-2343404D01*
X-366979Y-2333294D01*
X-363982Y-2331466D01*
X-363982Y-2321356D01*
X-360984Y-2319477D01*
X-360984Y-2315362D01*
X-357987Y-2313533D01*
X-357987Y-2306421D01*
X-354990Y-2304542D01*
X-354990Y-2300427D01*
X-351993Y-2298547D01*
X-351993Y-2294432D01*
X-348996Y-2292604D01*
X-348996Y-2288794D01*
X-343052Y-2283307D01*
X-343052Y-2279904D01*
X-334060Y-2271318D01*
X-334060Y-2268067D01*
X-316128Y-2250236D01*
X-316128Y-2247188D01*
X-300278Y-2231339D01*
X-297180Y-2231339D01*
X-285394Y-2219350D01*
X-282092Y-2219350D01*
X-276555Y-2213406D01*
X-273100Y-2213406D01*
X-267614Y-2207412D01*
X-263855Y-2207412D01*
X-261975Y-2204415D01*
X-257860Y-2204415D01*
X-255981Y-2201418D01*
X-251866Y-2201418D01*
X-250037Y-2198420D01*
X-242925Y-2198420D01*
X-241046Y-2195423D01*
X-233934Y-2195423D01*
X-232105Y-2192477D01*
X-224993Y-2192477D01*
X-223113Y-2189480D01*
X-204063Y-2189480D01*
X-202184Y-2186482D01*
X-141630Y-2186482D01*
X-139750Y-2189480D01*
X-120700Y-2189480D01*
X-118821Y-2192477D01*
X-108762Y-2192477D01*
X-106883Y-2195423D01*
X-96774Y-2195423D01*
X-94945Y-2198420D01*
X-84836Y-2198420D01*
X-82956Y-2201418D01*
X-75844Y-2201418D01*
X-74015Y-2204415D01*
X-63906Y-2204415D01*
X-62026Y-2207412D01*
X-39624Y-2207412D01*
X-37795Y-2204415D01*
X-30683Y-2204415D01*
X-28803Y-2201418D01*
X-24688Y-2201418D01*
X-22809Y-2198420D01*
X-18745Y-2198420D01*
X-16865Y-2195423D01*
X-12750Y-2195423D01*
X-10871Y-2192477D01*
X-6756Y-2192477D01*
X-4876Y-2189480D01*
X-762Y-2189480D01*
X1066Y-2186482D01*
X5181Y-2186482D01*
X7061Y-2183485D01*
X14173Y-2183485D01*
X16002Y-2180488D01*
X26111Y-2180488D01*
X27990Y-2177491D01*
X38049Y-2177491D01*
X39928Y-2174544D01*
X58978Y-2174544D01*
X60858Y-2171547D01*
X115468Y-2171547D01*
X117297Y-2174544D01*
X133400Y-2174544D01*
X135229Y-2177491D01*
X142341Y-2177491D01*
X144221Y-2180488D01*
X151333Y-2180488D01*
X153162Y-2183485D01*
X160274Y-2183485D01*
X162153Y-2186482D01*
X166268Y-2186482D01*
X168148Y-2189480D01*
X172262Y-2189480D01*
X174091Y-2192477D01*
X181203Y-2192477D01*
X183083Y-2195423D01*
X186842Y-2195423D01*
X192328Y-2201418D01*
X196138Y-2201418D01*
X198018Y-2204415D01*
X201777Y-2204415D01*
X207314Y-2210409D01*
X210566Y-2210409D01*
X244348Y-2244191D01*
X244348Y-2247442D01*
X250342Y-2252929D01*
X250342Y-2256434D01*
X256286Y-2261920D01*
X256286Y-2265680D01*
X259283Y-2267559D01*
X259283Y-2271674D01*
X262280Y-2273503D01*
X262280Y-2277618D01*
X265277Y-2279497D01*
X265277Y-2283612D01*
X268274Y-2285492D01*
X268274Y-2292604D01*
X271272Y-2294432D01*
X271272Y-2301544D01*
X274218Y-2303424D01*
X274218Y-2313533D01*
X277215Y-2315362D01*
X277215Y-2334412D01*
X280212Y-2336292D01*
X280212Y-2393848D01*
X277215Y-2395728D01*
X277215Y-2414778D01*
X274218Y-2416657D01*
X274218Y-2426766D01*
X271272Y-2428595D01*
X271272Y-2441702D01*
X268274Y-2443581D01*
X268274Y-2459990D01*
X271272Y-2461869D01*
X271272Y-2468422D01*
X285242Y-2482392D01*
X288848Y-2482392D01*
X290677Y-2485390D01*
X294792Y-2485390D01*
X296672Y-2488387D01*
X300786Y-2488387D01*
X302666Y-2491384D01*
X306781Y-2491384D01*
X308610Y-2494381D01*
X312724Y-2494381D01*
X314604Y-2497378D01*
X318719Y-2497378D01*
X320598Y-2500325D01*
X324713Y-2500325D01*
X326542Y-2503322D01*
X330657Y-2503322D01*
X332536Y-2506319D01*
X336296Y-2506319D01*
X341782Y-2512314D01*
X345592Y-2512314D01*
X347472Y-2515311D01*
X351282Y-2515311D01*
X356768Y-2521254D01*
X360222Y-2521254D01*
X365709Y-2527249D01*
X369214Y-2527249D01*
X374700Y-2533243D01*
X378155Y-2533243D01*
X383641Y-2539187D01*
X387451Y-2539187D01*
X389331Y-2542184D01*
X414731Y-2542184D01*
X416559Y-2539187D01*
X420420Y-2539187D01*
X425907Y-2533243D01*
X429361Y-2533243D01*
X431190Y-2531414D01*
X431190Y-2528062D01*
X443128Y-2516327D01*
X443128Y-2513228D01*
X470966Y-2485390D01*
X477469Y-2485390D01*
X479348Y-2482392D01*
X504037Y-2482392D01*
X505917Y-2485390D01*
X509473Y-2485390D01*
X522325Y-2498242D01*
X522325Y-2501849D01*
X525322Y-2503678D01*
X525322Y-2513787D01*
X528320Y-2515666D01*
X528320Y-2528366D01*
X525322Y-2530246D01*
X525322Y-2543352D01*
X522325Y-2545181D01*
X522325Y-2552293D01*
X519379Y-2554173D01*
X519379Y-2558288D01*
X516382Y-2560167D01*
X516382Y-2564231D01*
X513384Y-2566111D01*
X513384Y-2569921D01*
X507390Y-2575407D01*
X507390Y-2578709D01*
X495452Y-2590495D01*
X495452Y-2593695D01*
X483463Y-2605430D01*
X483463Y-2608732D01*
X477520Y-2614269D01*
X477520Y-2639314D01*
X480517Y-2641193D01*
X480517Y-2644800D01*
X491490Y-2655773D01*
X495096Y-2655773D01*
X496925Y-2658770D01*
X513384Y-2658770D01*
X515213Y-2655773D01*
X519023Y-2655773D01*
X524560Y-2649829D01*
X527761Y-2649829D01*
X556717Y-2620873D01*
X556717Y-2617774D01*
X568655Y-2605989D01*
X568655Y-2602687D01*
X574649Y-2597200D01*
X574649Y-2593695D01*
X580644Y-2588209D01*
X580644Y-2584805D01*
X589584Y-2576220D01*
X589584Y-2573020D01*
X608431Y-2554173D01*
X611987Y-2554173D01*
X613867Y-2551176D01*
X617982Y-2551176D01*
X619861Y-2548178D01*
X647547Y-2548178D01*
X649376Y-2551176D01*
X652983Y-2551176D01*
X665835Y-2564028D01*
X665835Y-2567584D01*
X668832Y-2569464D01*
X668832Y-2603144D01*
X665835Y-2604973D01*
X665835Y-2612085D01*
X662838Y-2613964D01*
X662838Y-2618079D01*
X659841Y-2619908D01*
X659841Y-2624023D01*
X656844Y-2625902D01*
X656844Y-2630017D01*
X653846Y-2631897D01*
X653846Y-2635656D01*
X647903Y-2641142D01*
X647903Y-2644546D01*
X638911Y-2653182D01*
X638911Y-2656484D01*
X629970Y-2665120D01*
X629970Y-2668371D01*
X615035Y-2683205D01*
X615035Y-2686253D01*
X587197Y-2714091D01*
X584149Y-2714091D01*
X563321Y-2735021D01*
X560273Y-2735021D01*
X528320Y-2766923D01*
X528320Y-2770530D01*
X525322Y-2772359D01*
X525322Y-2776474D01*
X522325Y-2778353D01*
X522325Y-2785465D01*
X519379Y-2787345D01*
X519379Y-2815336D01*
X516382Y-2817215D01*
X516382Y-2848254D01*
X513384Y-2850083D01*
X513384Y-2866186D01*
X510387Y-2868015D01*
X510387Y-2881122D01*
X507390Y-2883001D01*
X507390Y-2893060D01*
X504393Y-2894939D01*
X504393Y-2902051D01*
X501396Y-2903931D01*
X501396Y-2910992D01*
X498449Y-2912872D01*
X498449Y-2919984D01*
X495452Y-2921863D01*
X495452Y-2925978D01*
X492455Y-2927807D01*
X492455Y-2931922D01*
X489458Y-2933801D01*
X489458Y-2940913D01*
X486460Y-2942742D01*
X486460Y-2946552D01*
X480517Y-2952038D01*
X480517Y-2955848D01*
X477520Y-2957728D01*
X477520Y-2961843D01*
X474522Y-2963672D01*
X474522Y-2967482D01*
X468528Y-2972968D01*
X468528Y-2976422D01*
X462534Y-2981909D01*
X462534Y-2985312D01*
X453593Y-2993948D01*
X453593Y-2997250D01*
X441655Y-3008985D01*
X441655Y-3012135D01*
X411734Y-3041904D01*
X411734Y-3044952D01*
X392887Y-3063798D01*
X389788Y-3063798D01*
X375005Y-3078784D01*
X371703Y-3078784D01*
X366217Y-3084728D01*
X362712Y-3084728D01*
X357225Y-3090722D01*
X353771Y-3090722D01*
X348284Y-3096717D01*
X344779Y-3096717D01*
X339293Y-3102660D01*
X335534Y-3102660D01*
X333654Y-3105658D01*
X329539Y-3105658D01*
X327660Y-3108655D01*
X323596Y-3108655D01*
X321716Y-3111652D01*
X317601Y-3111652D01*
X315722Y-3114649D01*
X311607Y-3114649D01*
X309727Y-3117646D01*
X305612Y-3117646D01*
X303784Y-3120593D01*
X296672Y-3120593D01*
X294792Y-3123590D01*
X290677Y-3123590D01*
X288848Y-3126587D01*
X281736Y-3126587D01*
X279857Y-3129584D01*
X275742Y-3129584D01*
X273862Y-3132582D01*
X266801Y-3132582D01*
X264922Y-3135579D01*
X257810Y-3135579D01*
X255930Y-3138576D01*
X248818Y-3138576D01*
X246989Y-3141522D01*
X239877Y-3141522D01*
X237998Y-3144520D01*
X230886Y-3144520D01*
X229057Y-3147517D01*
X221945Y-3147517D01*
X220065Y-3150514D01*
X212953Y-3150514D01*
X211124Y-3153511D01*
X198018Y-3153511D01*
X196138Y-3156508D01*
X180086Y-3156508D01*
X178206Y-3159455D01*
X153162Y-3159455D01*
X151333Y-3162452D01*
X63855Y-3162452D01*
X61976Y-3159455D01*
X27990Y-3159455D01*
X26111Y-3156508D01*
X-1930Y-3156508D01*
X-3759Y-3153511D01*
X-19862Y-3153511D01*
X-21691Y-3150514D01*
X-34798Y-3150514D01*
X-36677Y-3147517D01*
X-46736Y-3147517D01*
X-48615Y-3144520D01*
X-58724Y-3144520D01*
X-60553Y-3141522D01*
X-67665Y-3141522D01*
X-69545Y-3138576D01*
X-79654Y-3138576D01*
X-81483Y-3135579D01*
X-91592Y-3135579D01*
X-93472Y-3132582D01*
X-103530Y-3132582D01*
X-105410Y-3129584D01*
X-112522Y-3129584D01*
X-114401Y-3126587D01*
X-121462Y-3126587D01*
X-123342Y-3123590D01*
X-130454Y-3123590D01*
X-132334Y-3120593D01*
X-136448Y-3120593D01*
X-138277Y-3117646D01*
X-145389Y-3117646D01*
X-147269Y-3114649D01*
X-151384Y-3114649D01*
X-153212Y-3111652D01*
X-160324Y-3111652D01*
X-162204Y-3108655D01*
X-166319Y-3108655D01*
X-168198Y-3105658D01*
X-172313Y-3105658D01*
X-174142Y-3102660D01*
X-178257Y-3102660D01*
X-180136Y-3099663D01*
X-184251Y-3099663D01*
X-186131Y-3096717D01*
X-190246Y-3096717D01*
X-192074Y-3093720D01*
X-196189Y-3093720D01*
X-198069Y-3090722D01*
X-202184Y-3090722D01*
X-204063Y-3087725D01*
X-207822Y-3087725D01*
X-213309Y-3081731D01*
X-216814Y-3081731D01*
X-222300Y-3075787D01*
X-226110Y-3075787D01*
X-227990Y-3072790D01*
X-231749Y-3072790D01*
X-237236Y-3066796D01*
X-240690Y-3066796D01*
X-246227Y-3060852D01*
X-249682Y-3060852D01*
X-255168Y-3054858D01*
X-258622Y-3054858D01*
X-264160Y-3048863D01*
X-267512Y-3048863D01*
X-276148Y-3039922D01*
X-279450Y-3039922D01*
X-291185Y-3027934D01*
X-294284Y-3027934D01*
X-337058Y-2985160D01*
X-337058Y-2982112D01*
X-348996Y-2970326D01*
X-349046Y-2967024D01*
X-357987Y-2958439D01*
X-357987Y-2955239D01*
X-371957Y-2941269D01*
X-375564Y-2941269D01*
X-377444Y-2938272D01*
X-381558Y-2938272D01*
X-383387Y-2935274D01*
X-387502Y-2935274D01*
X-389382Y-2932277D01*
X-396494Y-2932277D01*
X-398373Y-2929280D01*
X-411429Y-2929280D01*
X-413308Y-2926334D01*
X-438353Y-2926334D01*
X-440182Y-2923336D01*
X-459282Y-2923336D01*
X-461111Y-2920339D01*
X-474218Y-2920339D01*
X-476097Y-2917342D01*
X-483158Y-2917342D01*
X-485038Y-2914345D01*
X-489153Y-2914345D01*
X-491032Y-2911348D01*
X-495147Y-2911348D01*
X-496976Y-2908401D01*
X-500583Y-2908401D01*
X-510438Y-2898546D01*
X-510438Y-2894939D01*
X-513435Y-2893060D01*
X-513435Y-2888945D01*
X-516432Y-2887116D01*
X-562762Y-2887116D01*
X-562762Y-2899410D01*
X-559765Y-2901289D01*
X-559765Y-2911348D01*
X-556768Y-2913227D01*
X-556768Y-2917037D01*
X-550773Y-2922524D01*
X-550773Y-2925775D01*
X-530809Y-2945739D01*
X-527558Y-2945739D01*
X-522071Y-2951734D01*
X-518617Y-2951734D01*
X-513130Y-2957677D01*
X-506323Y-2957677D01*
X-504443Y-2960674D01*
X-497332Y-2960674D01*
X-495503Y-2963672D01*
X-485393Y-2963672D01*
X-483514Y-2966669D01*
X-464464Y-2966669D01*
X-462584Y-2969666D01*
X-440537Y-2969666D01*
X-438708Y-2972663D01*
X-422605Y-2972663D01*
X-420725Y-2975660D01*
X-413664Y-2975660D01*
X-411784Y-2978607D01*
X-407670Y-2978607D01*
X-405790Y-2981604D01*
X-402234Y-2981604D01*
X-380390Y-3003448D01*
X-380390Y-3006445D01*
X-312572Y-3074263D01*
X-309422Y-3074263D01*
X-300837Y-3083255D01*
X-297484Y-3083255D01*
X-288848Y-3092196D01*
X-285445Y-3092196D01*
X-279958Y-3098190D01*
X-276504Y-3098190D01*
X-270967Y-3104184D01*
X-267512Y-3104184D01*
X-262026Y-3110179D01*
X-258571Y-3110179D01*
X-253034Y-3116122D01*
X-249224Y-3116122D01*
X-247396Y-3119120D01*
X-243586Y-3119120D01*
X-238099Y-3125114D01*
X-234289Y-3125114D01*
X-232410Y-3128111D01*
X-228650Y-3128111D01*
X-223164Y-3134055D01*
X-219354Y-3134055D01*
X-217474Y-3137052D01*
X-213360Y-3137052D01*
X-211480Y-3140049D01*
X-207365Y-3140049D01*
X-205536Y-3143046D01*
X-201422Y-3143046D01*
X-199542Y-3146044D01*
X-195427Y-3146044D01*
X-193548Y-3148990D01*
X-189433Y-3148990D01*
X-187604Y-3151987D01*
X-180492Y-3151987D01*
X-178612Y-3154984D01*
X-174498Y-3154984D01*
X-172618Y-3157982D01*
X-168554Y-3157982D01*
X-166674Y-3160979D01*
X-159562Y-3160979D01*
X-157683Y-3163976D01*
X-153568Y-3163976D01*
X-151739Y-3166922D01*
X-144627Y-3166922D01*
X-142748Y-3169920D01*
X-135636Y-3169920D01*
X-133756Y-3172917D01*
X-126695Y-3172917D01*
X-124815Y-3175914D01*
X-114706Y-3175914D01*
X-112877Y-3178911D01*
X-102768Y-3178911D01*
X-100888Y-3181908D01*
X-90830Y-3181908D01*
X-88950Y-3184906D01*
X-81838Y-3184906D01*
X-79959Y-3187852D01*
X-69900Y-3187852D01*
X-68021Y-3190849D01*
X-57912Y-3190849D01*
X-56083Y-3193846D01*
X-45974Y-3193846D01*
X-44094Y-3196844D01*
X-28041Y-3196844D01*
X-26162Y-3199841D01*
X-4114Y-3199841D01*
X-2235Y-3202838D01*
X31750Y-3202838D01*
X33629Y-3205784D01*
X181559Y-3205784D01*
X183438Y-3202838D01*
X205486Y-3202838D01*
X207314Y-3199841D01*
X220421Y-3199841D01*
X222300Y-3196844D01*
X232359Y-3196844D01*
X234238Y-3193846D01*
X241350Y-3193846D01*
X243230Y-3190849D01*
X250291Y-3190849D01*
X252171Y-3187852D01*
X259283Y-3187852D01*
X261162Y-3184906D01*
X268224Y-3184906D01*
X270103Y-3181908D01*
X277215Y-3181908D01*
X279095Y-3178911D01*
X286156Y-3178911D01*
X288036Y-3175914D01*
X295148Y-3175914D01*
X297027Y-3172917D01*
X301142Y-3172917D01*
X302971Y-3169920D01*
X310083Y-3169920D01*
X311962Y-3166922D01*
X316077Y-3166922D01*
X317957Y-3163976D01*
X325018Y-3163976D01*
X326898Y-3160979D01*
X331012Y-3160979D01*
X332892Y-3157982D01*
X337007Y-3157982D01*
X338886Y-3154984D01*
X343001Y-3154984D01*
X344830Y-3151987D01*
X348945Y-3151987D01*
X350824Y-3148990D01*
X354634Y-3148990D01*
X360121Y-3143046D01*
X363880Y-3143046D01*
X365760Y-3140049D01*
X369570Y-3140049D01*
X375056Y-3134055D01*
X378561Y-3134055D01*
X384048Y-3128111D01*
X387502Y-3128111D01*
X392988Y-3122117D01*
X396341Y-3122117D01*
X408076Y-3110179D01*
X411175Y-3110179D01*
X455066Y-3066237D01*
X455066Y-3063240D01*
X484987Y-3033420D01*
X484987Y-3030270D01*
X496925Y-3018485D01*
X496925Y-3015284D01*
X505917Y-3006648D01*
X505917Y-3003245D01*
X511860Y-2997758D01*
X511860Y-2994253D01*
X517855Y-2988767D01*
X517855Y-2984957D01*
X520852Y-2983077D01*
X520852Y-2978962D01*
X523849Y-2977134D01*
X523849Y-2973374D01*
X529793Y-2967837D01*
X529793Y-2964027D01*
X532790Y-2962198D01*
X532790Y-2955086D01*
X535787Y-2953207D01*
X535787Y-2949092D01*
X538784Y-2947212D01*
X538784Y-2943098D01*
X541782Y-2941269D01*
X541782Y-2934157D01*
X544779Y-2932277D01*
X544779Y-2925165D01*
X547776Y-2923336D01*
X547776Y-2916224D01*
X550722Y-2914345D01*
X550722Y-2904236D01*
X553720Y-2902407D01*
X553720Y-2892298D01*
X556717Y-2890418D01*
X556717Y-2874365D01*
X559714Y-2872486D01*
X559714Y-2847441D01*
X562711Y-2845612D01*
X562711Y-2811576D01*
X565708Y-2809748D01*
X565708Y-2802636D01*
X568655Y-2800756D01*
X568655Y-2794203D01*
X602488Y-2760421D01*
X605485Y-2760421D01*
X661365Y-2704541D01*
X661365Y-2701442D01*
X673303Y-2689707D01*
X673303Y-2686456D01*
X682244Y-2677820D01*
X682244Y-2674518D01*
X691235Y-2665882D01*
X691235Y-2662478D01*
X697230Y-2656992D01*
X697230Y-2653182D01*
X700227Y-2651302D01*
X700227Y-2647188D01*
X703173Y-2645308D01*
X703173Y-2641193D01*
X706170Y-2639314D01*
X706170Y-2635199D01*
X709168Y-2633370D01*
X709168Y-2626258D01*
X712165Y-2624378D01*
X712165Y-2614320D01*
X715162Y-2612440D01*
X715162Y-2557170D01*
X712165Y-2555290D01*
X712165Y-2548178D01*
X709168Y-2546299D01*
X709168Y-2539542D01*
X703173Y-2534005D01*
X703173Y-2530805D01*
X686206Y-2513787D01*
X682955Y-2513787D01*
X677468Y-2507843D01*
X673658Y-2507843D01*
X671779Y-2504846D01*
X661720Y-2504846D01*
X659841Y-2501849D01*
X604570Y-2501849D01*
X602691Y-2504846D01*
X578459Y-2504846D01*
X574649Y-2501036D01*
X574649Y-2497378D01*
X571652Y-2495499D01*
X571652Y-2488387D01*
X568655Y-2486558D01*
X568655Y-2479446D01*
X565708Y-2477566D01*
X565708Y-2473756D01*
X559714Y-2468270D01*
X559714Y-2465019D01*
X542747Y-2448052D01*
X539496Y-2448052D01*
X534009Y-2442057D01*
X530199Y-2442057D01*
X528320Y-2439060D01*
X518210Y-2439060D01*
X516331Y-2436063D01*
X467055Y-2436063D01*
X465175Y-2439060D01*
X455117Y-2439060D01*
X453237Y-2442057D01*
X449427Y-2442057D01*
X443941Y-2448052D01*
X440639Y-2448052D01*
X410870Y-2477922D01*
X407263Y-2477922D01*
X405384Y-2480919D01*
X386689Y-2480919D01*
X384810Y-2477922D01*
X378053Y-2477922D01*
X372567Y-2471928D01*
X368757Y-2471928D01*
X366877Y-2468981D01*
X362762Y-2468981D01*
X360934Y-2465984D01*
X357124Y-2465984D01*
X351637Y-2459990D01*
X347827Y-2459990D01*
X345948Y-2456992D01*
X342188Y-2456992D01*
X336702Y-2451049D01*
X333349Y-2451049D01*
X329539Y-2447239D01*
X329539Y-2443886D01*
X323545Y-2438349D01*
X323545Y-2309063D01*
X320548Y-2307183D01*
X320548Y-2294128D01*
X317601Y-2292248D01*
X317601Y-2282139D01*
X314604Y-2280259D01*
X314604Y-2273198D01*
X311607Y-2271318D01*
X311607Y-2264206D01*
X308610Y-2262327D01*
X308610Y-2258212D01*
X305612Y-2256383D01*
X305612Y-2252268D01*
X302615Y-2250389D01*
X302615Y-2246274D01*
X299669Y-2244394D01*
X299669Y-2240584D01*
X293674Y-2235098D01*
X293674Y-2231644D01*
X287680Y-2226157D01*
X287680Y-2222855D01*
X272745Y-2208072D01*
X272745Y-2204974D01*
X243789Y-2176018D01*
X240639Y-2176018D01*
X232003Y-2167077D01*
X228600Y-2167026D01*
X223113Y-2161082D01*
X219303Y-2161082D01*
X217424Y-2158085D01*
X213309Y-2158085D01*
X211429Y-2155088D01*
X207670Y-2155088D01*
X202184Y-2149094D01*
X195376Y-2149094D01*
X193497Y-2146147D01*
X189382Y-2146147D01*
X187553Y-2143150D01*
X183438Y-2143150D01*
X181559Y-2140153D01*
X174447Y-2140153D01*
X172567Y-2137156D01*
X165506Y-2137156D01*
X163626Y-2134158D01*
X156514Y-2134158D01*
X154635Y-2131161D01*
X141579Y-2131161D01*
X139700Y-2128164D01*
G37*
D10*
X-254000Y-584200D02*
G01*
X-254000Y-1752600D01*
X-533400Y-2032000D01*
X-533400Y-2616200D01*
X-698500Y-2781300D01*
X-698500Y-3447186D01*
X-1210411Y-3959097D01*
X660400Y887183D02*
G01*
X660400Y1016000D01*
X546100Y1130300D01*
X546100Y1930400D01*
X-508000Y2806700D02*
G01*
X-508000Y2501900D01*
X-673100Y2336800D01*
X-876300Y2336800D01*
X-1422400Y1790700D01*
X-1422400Y-1752600D01*
X1955800Y-685800D02*
G01*
X1738652Y-902947D01*
X712447Y-902947D01*
X508000Y-698500D01*
X812800Y-1308100D02*
G01*
X431800Y-1308100D01*
X348234Y-1224534D01*
X348234Y1967484D01*
X-863600Y-1981200D02*
G01*
X-863600Y-1854200D01*
X-1247520Y-1470279D01*
X-1247520Y1749983D01*
X-317500Y698500D02*
G01*
X-317500Y-101600D01*
X12700Y-431800D01*
X12700Y-1701800D01*
X571500Y-2260600D01*
X571500Y-2540000D01*
X-546100Y-2882900D02*
G01*
X-546100Y-3136900D01*
X-419100Y-3263900D01*
X533400Y-3263900D01*
X850900Y-2946400D01*
X850900Y-2527300D01*
X749300Y-2425700D01*
X571500Y-2425700D01*
X571500Y-2540000D01*
X-229438Y3383787D02*
G01*
X215900Y2938449D01*
X215900Y-1562100D01*
X660400Y-2006600D01*
X-698500Y2552700D02*
G01*
X-952500Y2552700D01*
X-1968500Y1536700D01*
X393700Y2679700D02*
G01*
X393700Y2984500D01*
X-127000Y3505200D01*
X-342900Y3505200D01*
X-2273300Y1574800D01*
X-2273300Y901700D01*
X-2146554Y1946402D02*
G01*
X-435355Y3657600D01*
X-88900Y3657600D01*
X609600Y2959100D01*
X609600Y2159000D01*
X-3620919Y2007107D02*
G01*
X-3620919Y688286D01*
X-1930400Y-1002233D01*
X-1930400Y-2311400D01*
X-2875889Y2978073D02*
G01*
X-2824302Y2926486D01*
X-2824302Y2918231D01*
X2199332Y1181681D02*
G01*
X699081Y1181681D01*
X698500Y1181100D01*
X2439111Y1079296D02*
G01*
X2336723Y1181684D01*
X2199335Y1181684D01*
X2601264Y1002715D02*
G01*
X2515692Y1002715D01*
X2439111Y1079296D01*
X2587650Y-669950D02*
G01*
X1971649Y-669950D01*
X1955800Y-685800D01*
X2898749Y-981049D02*
G01*
X2888818Y-981049D01*
X2880817Y-973048D01*
X2587650Y-669950D02*
G01*
X2880817Y-963117D01*
X2880817Y-973048D01*
X-1888210Y0D02*
G01*
X-2041245Y0D01*
X-2053462Y12217D01*
X-2908300Y1020089D02*
G01*
X-2901822Y1013612D01*
X-2901822Y858748D01*
X-2908300Y580110D02*
G01*
X-2901822Y586587D01*
X-2901822Y858748D01*
X-3928389Y12700D02*
G01*
X-3753230Y12700D01*
X-3751122Y10591D01*
X76200Y2603500D02*
G01*
X-609600Y1917700D01*
X-609600Y-1905000D01*
X1415976Y-3890317D02*
G01*
X1181100Y-3655440D01*
X1181100Y-2133600D01*
D11*
X-831875Y-1237183D02*
G01*
X-831850Y-1237183D01*
X-831850Y1975357D01*
X81051Y2888259D01*
D10*
X4140001Y0D02*
G01*
X4089201Y50800D01*
X2882900Y50800D01*
X-1612900Y-2514600D02*
G01*
X-1612900Y-381000D01*
G36*
X-1761845Y4225333D02*
G01*
X-1492526Y3584310D01*
X-1492526Y3584310D01*
X-1502201Y3548512D01*
X-1502201Y3548512D01*
X-1668343Y3471567D01*
X-1668343Y3471567D01*
X-1830740Y3387783D01*
X-1830740Y3387783D01*
X-1989366Y3297171D01*
X-1989366Y3297171D01*
X-2147346Y3194474D01*
X-2147346Y3194474D01*
X-2298842Y3086016D01*
X-2298842Y3086016D01*
X-2443861Y2971797D01*
X-2443861Y2971797D01*
X-2582384Y2851810D01*
X-2582384Y2851810D01*
X-2714431Y2726062D01*
X-2714431Y2726062D01*
X-2839981Y2594554D01*
X-2839981Y2594554D01*
X-2959056Y2457284D01*
X-2959056Y2457284D01*
X-3071644Y2314249D01*
X-3071644Y2314249D01*
X-3177745Y2165446D01*
X-3177745Y2165446D01*
X-3277362Y2010887D01*
X-3277362Y2010887D01*
X-3370491Y1850557D01*
X-3370491Y1850557D01*
X-3457145Y1684469D01*
X-3457145Y1684469D01*
X-3524293Y1611134D01*
X-3524293Y1611134D01*
X-4154355Y1897636D01*
X-4154355Y1897636D01*
X-4156067Y1901040D01*
X-4156067Y1901040D01*
X-4149704Y1915464D01*
X-4149704Y1915464D01*
X-4082684Y2056632D01*
X-4082684Y2056632D01*
X-3980723Y2249929D01*
X-3980723Y2249929D01*
X-3881145Y2416903D01*
X-3881145Y2416903D01*
X-3775923Y2578369D01*
X-3775923Y2578369D01*
X-3665047Y2734327D01*
X-3665047Y2734327D01*
X-3548501Y2884787D01*
X-3548501Y2884787D01*
X-3426312Y3029739D01*
X-3426312Y3029739D01*
X-3298459Y3169193D01*
X-3298459Y3169193D01*
X-3164959Y3303137D01*
X-3164959Y3303137D01*
X-3025805Y3431583D01*
X-3025805Y3431583D01*
X-2880982Y3554521D01*
X-2880982Y3554521D01*
X-2730517Y3671958D01*
X-2730517Y3671958D01*
X-2574383Y3783883D01*
X-2574383Y3783883D01*
X-2412608Y3890314D01*
X-2412608Y3890314D01*
X-2263693Y3979796D01*
X-2263693Y3979796D01*
X-2084986Y4076336D01*
X-2084986Y4076336D01*
X-1901954Y4164586D01*
X-1901954Y4164586D01*
X-1761845Y4225333D01*
G37*
G36*
X1448965Y1937354D02*
G01*
X1486855Y1923694D01*
X1486855Y1923694D01*
X3656507Y946177D01*
X3656507Y946177D01*
X3713210Y920412D01*
X3713210Y920412D01*
X3739690Y902769D01*
X3739690Y902769D01*
X3758331Y881395D01*
X3758331Y881395D01*
X3769133Y856292D01*
X3769133Y856292D01*
X3772098Y827463D01*
X3772098Y827463D01*
X3767223Y794905D01*
X3767223Y794905D01*
X3549276Y307362D01*
X3549276Y307362D01*
X3535994Y279062D01*
X3535994Y279062D01*
X3518568Y253964D01*
X3518568Y253964D01*
X3497894Y235963D01*
X3497894Y235963D01*
X3473970Y225056D01*
X3473970Y225056D01*
X3446797Y221241D01*
X3446797Y221241D01*
X3416386Y224515D01*
X3416386Y224515D01*
X1167170Y1235194D01*
X1167170Y1235194D01*
X1139687Y1253568D01*
X1139687Y1253568D01*
X1120228Y1275293D01*
X1120228Y1275293D01*
X1113518Y1287416D01*
X1113518Y1287416D01*
X1106114Y1314173D01*
X1106114Y1314173D01*
X1106759Y1344287D01*
X1106759Y1344287D01*
X1118727Y1384099D01*
X1118727Y1384099D01*
X1346570Y1887428D01*
X1346570Y1887428D01*
X1368524Y1912741D01*
X1368524Y1912741D01*
X1394952Y1929279D01*
X1394952Y1929279D01*
X1425872Y1937049D01*
X1425872Y1937049D01*
X1448965Y1937354D01*
G37*
G36*
X2332664Y-314218D02*
G01*
X3468359Y-840351D01*
X3468359Y-840351D01*
X3493190Y-852792D01*
X3493190Y-852792D01*
X3504798Y-864400D01*
X3504798Y-864400D01*
X3513109Y-888646D01*
X3513109Y-888646D01*
X3511285Y-913061D01*
X3511285Y-913061D01*
X3505977Y-923968D01*
X3505977Y-923968D01*
X3486579Y-943155D01*
X3486579Y-943155D01*
X3450130Y-954359D01*
X3450130Y-954359D01*
X3126836Y-1032946D01*
X3126836Y-1032946D01*
X3119048Y-1064958D01*
X3119048Y-1064958D01*
X3479993Y-1456072D01*
X3479993Y-1456072D01*
X3490051Y-1485392D01*
X3490051Y-1485392D01*
X3491194Y-1499809D01*
X3491194Y-1499809D01*
X3485710Y-1528155D01*
X3485710Y-1528155D01*
X3470033Y-1555104D01*
X3470033Y-1555104D01*
X3406472Y-1614500D01*
X3406472Y-1614500D01*
X3377338Y-1628886D01*
X3377338Y-1628886D01*
X3362754Y-1631889D01*
X3362754Y-1631889D01*
X3333584Y-1629488D01*
X3333584Y-1629488D01*
X3304377Y-1615894D01*
X3304377Y-1615894D01*
X2939859Y-1225699D01*
X2939859Y-1225699D01*
X2911779Y-1247960D01*
X2911779Y-1247960D01*
X2791713Y-1596224D01*
X2791713Y-1596224D01*
X2774746Y-1613197D01*
X2774746Y-1613197D01*
X2753141Y-1619554D01*
X2753141Y-1619554D01*
X2740604Y-1619882D01*
X2740604Y-1619882D01*
X2718589Y-1612602D01*
X2718589Y-1612602D01*
X2700629Y-1594736D01*
X2700629Y-1594736D01*
X2677388Y-1538399D01*
X2677388Y-1538399D01*
X2248527Y-397929D01*
X2248527Y-397929D01*
X2249657Y-375605D01*
X2249657Y-375605D01*
X2254407Y-356740D01*
X2254407Y-356740D01*
X2262792Y-341325D01*
X2262792Y-341325D01*
X2274808Y-329369D01*
X2274808Y-329369D01*
X2290460Y-320860D01*
X2290460Y-320860D01*
X2309746Y-315813D01*
X2309746Y-315813D01*
X2332664Y-314218D01*
G37*
G36*
X-2104613Y493105D02*
G01*
X-2089444Y490575D01*
X-2089444Y490575D01*
X-2073732Y484083D01*
X-2073732Y484083D01*
X-2036785Y456933D01*
X-2036785Y456933D01*
X-1538262Y63451D01*
X-1538262Y63451D01*
X-1523898Y49100D01*
X-1523898Y49100D01*
X-1513271Y20711D01*
X-1513271Y20711D01*
X-1514759Y-6040D01*
X-1514759Y-6040D01*
X-1520042Y-18795D01*
X-1520042Y-18795D01*
X-1528363Y-31142D01*
X-1528363Y-31142D01*
X-1562260Y-59977D01*
X-1562260Y-59977D01*
X-2069490Y-459270D01*
X-2069490Y-459270D01*
X-2090587Y-468670D01*
X-2090587Y-468670D01*
X-2125151Y-466841D01*
X-2125151Y-466841D01*
X-2138918Y-461081D01*
X-2138918Y-461081D01*
X-2150328Y-452089D01*
X-2150328Y-452089D01*
X-2159383Y-439867D01*
X-2159383Y-439867D01*
X-2166091Y-424413D01*
X-2166091Y-424413D01*
X-2169253Y-401904D01*
X-2169253Y-401904D01*
X-2169253Y-214360D01*
X-2169253Y-214360D01*
X-2205619Y-203936D01*
X-2205619Y-203936D01*
X-2532867Y-203936D01*
X-2532867Y-203936D01*
X-2558341Y-193520D01*
X-2558341Y-193520D01*
X-2568722Y-185917D01*
X-2568722Y-185917D01*
X-2577551Y-176720D01*
X-2577551Y-176720D01*
X-2590538Y-153548D01*
X-2590538Y-153548D01*
X-2593675Y-128772D01*
X-2593675Y-128772D01*
X-2593675Y152549D01*
X-2593675Y152549D01*
X-2590439Y177838D01*
X-2590439Y177838D01*
X-2584460Y190741D01*
X-2584460Y190741D01*
X-2567307Y210827D01*
X-2567307Y210827D01*
X-2543235Y223286D01*
X-2543235Y223286D01*
X-2528613Y226654D01*
X-2528613Y226654D01*
X-2205197Y227799D01*
X-2205197Y227799D01*
X-2169304Y238559D01*
X-2169304Y238559D01*
X-2167506Y446590D01*
X-2167506Y446590D01*
X-2159693Y463743D01*
X-2159693Y463743D01*
X-2146757Y477006D01*
X-2146757Y477006D01*
X-2133262Y486326D01*
X-2133262Y486326D01*
X-2119210Y491690D01*
X-2119210Y491690D01*
X-2104613Y493105D01*
G37*
G36*
X-2897614Y1399311D02*
G01*
X-2871294Y1391417D01*
X-2871294Y1391417D01*
X-2858620Y1383027D01*
X-2858620Y1383027D01*
X-2433703Y845113D01*
X-2433703Y845113D01*
X-2422530Y820734D01*
X-2422530Y820734D01*
X-2421041Y802794D01*
X-2421041Y802794D01*
X-2427056Y779373D01*
X-2427056Y779373D01*
X-2441318Y759157D01*
X-2441318Y759157D01*
X-2462639Y746259D01*
X-2462639Y746259D01*
X-2475946Y742558D01*
X-2475946Y742558D01*
X-2678031Y742558D01*
X-2678031Y742558D01*
X-2686451Y704283D01*
X-2686451Y704283D01*
X-2686314Y412871D01*
X-2686314Y412871D01*
X-2688422Y375262D01*
X-2688422Y375262D01*
X-2699697Y349564D01*
X-2699697Y349564D01*
X-2708043Y339239D01*
X-2708043Y339239D01*
X-2718175Y330588D01*
X-2718175Y330588D01*
X-2743873Y318348D01*
X-2743873Y318348D01*
X-3043936Y318180D01*
X-3043936Y318180D01*
X-3068032Y321751D01*
X-3068032Y321751D01*
X-3093333Y336318D01*
X-3093333Y336318D01*
X-3110537Y358896D01*
X-3110537Y358896D01*
X-3116092Y373184D01*
X-3116092Y373184D01*
X-3118114Y699180D01*
X-3118114Y699180D01*
X-3126610Y742558D01*
X-3126610Y742558D01*
X-3330740Y742558D01*
X-3330740Y742558D01*
X-3357331Y753645D01*
X-3357331Y753645D01*
X-3376195Y775926D01*
X-3376195Y775926D01*
X-3381702Y789160D01*
X-3381702Y789160D01*
X-3382581Y817493D01*
X-3382581Y817493D01*
X-3377930Y832591D01*
X-3377930Y832591D01*
X-2955742Y1372560D01*
X-2955742Y1372560D01*
X-2939496Y1388973D01*
X-2939496Y1388973D01*
X-2925208Y1395379D01*
X-2925208Y1395379D01*
X-2897614Y1399311D01*
G37*
G36*
X-3690094Y491525D02*
G01*
X-3675720Y487817D01*
X-3675720Y487817D01*
X-3662337Y480026D01*
X-3662337Y480026D01*
X-3649924Y468177D01*
X-3649924Y468177D01*
X-3638501Y452259D01*
X-3638501Y452259D01*
X-3635250Y231378D01*
X-3635250Y231378D01*
X-3591669Y226964D01*
X-3591669Y226964D01*
X-3286249Y225927D01*
X-3286249Y225927D01*
X-3262436Y223255D01*
X-3262436Y223255D01*
X-3240285Y212224D01*
X-3240285Y212224D01*
X-3231306Y204553D01*
X-3231306Y204553D01*
X-3217527Y184896D01*
X-3217527Y184896D01*
X-3212729Y172902D01*
X-3212729Y172902D01*
X-3210359Y99026D01*
X-3210359Y99026D01*
X-3210780Y-118285D01*
X-3210780Y-118285D01*
X-3212617Y-148907D01*
X-3212617Y-148907D01*
X-3223270Y-172366D01*
X-3223270Y-172366D01*
X-3239815Y-190040D01*
X-3239815Y-190040D01*
X-3250295Y-196712D01*
X-3250295Y-196712D01*
X-3262251Y-201940D01*
X-3262251Y-201940D01*
X-3286249Y-204784D01*
X-3286249Y-204784D01*
X-3591669Y-204784D01*
X-3591669Y-204784D01*
X-3635314Y-208996D01*
X-3635314Y-208996D01*
X-3635314Y-415297D01*
X-3635314Y-415297D01*
X-3646662Y-444505D01*
X-3646662Y-444505D01*
X-3668290Y-462450D01*
X-3668290Y-462450D01*
X-3692959Y-470331D01*
X-3692959Y-470331D01*
X-3705969Y-470060D01*
X-3705969Y-470060D01*
X-3733317Y-461086D01*
X-3733317Y-461086D01*
X-4272559Y-36212D01*
X-4272559Y-36212D01*
X-4285952Y-17454D01*
X-4285952Y-17454D01*
X-4291881Y3027D01*
X-4291881Y3027D01*
X-4290827Y26827D01*
X-4290827Y26827D01*
X-4286895Y37759D01*
X-4286895Y37759D01*
X-4272173Y57696D01*
X-4272173Y57696D01*
X-3739070Y478261D01*
X-3739070Y478261D01*
X-3705435Y491177D01*
X-3705435Y491177D01*
X-3690094Y491525D01*
G37*
G36*
X-2783392Y-297273D02*
G01*
X-2743098Y-298655D01*
X-2743098Y-298655D01*
X-2729072Y-303555D01*
X-2729072Y-303555D01*
X-2716867Y-310334D01*
X-2716867Y-310334D01*
X-2697929Y-329514D01*
X-2697929Y-329514D01*
X-2686296Y-356204D01*
X-2686296Y-356204D01*
X-2685191Y-707313D01*
X-2685191Y-707313D01*
X-2658663Y-721669D01*
X-2658663Y-721669D01*
X-2462110Y-725949D01*
X-2462110Y-725949D01*
X-2437554Y-741550D01*
X-2437554Y-741550D01*
X-2421442Y-771230D01*
X-2421442Y-771230D01*
X-2419421Y-786310D01*
X-2419421Y-786310D01*
X-2421432Y-801552D01*
X-2421432Y-801552D01*
X-2437505Y-832510D01*
X-2437505Y-832510D01*
X-2835620Y-1336669D01*
X-2835620Y-1336669D01*
X-2854893Y-1360154D01*
X-2854893Y-1360154D01*
X-2874525Y-1374536D01*
X-2874525Y-1374536D01*
X-2882277Y-1377226D01*
X-2882277Y-1377226D01*
X-2904253Y-1378968D01*
X-2904253Y-1378968D01*
X-2925152Y-1374386D01*
X-2925152Y-1374386D01*
X-2935185Y-1369710D01*
X-2935185Y-1369710D01*
X-2959780Y-1343375D01*
X-2959780Y-1343375D01*
X-3373112Y-819754D01*
X-3373112Y-819754D01*
X-3381174Y-798515D01*
X-3381174Y-798515D01*
X-3380988Y-773394D01*
X-3380988Y-773394D01*
X-3369553Y-746742D01*
X-3369553Y-746742D01*
X-3348034Y-729160D01*
X-3348034Y-729160D01*
X-3333488Y-723778D01*
X-3333488Y-723778D01*
X-3141896Y-721936D01*
X-3141896Y-721936D01*
X-3116892Y-709775D01*
X-3116892Y-709775D01*
X-3116892Y-417868D01*
X-3116892Y-417868D01*
X-3115950Y-358665D01*
X-3115950Y-358665D01*
X-3112081Y-344688D01*
X-3112081Y-344688D01*
X-3096714Y-319989D01*
X-3096714Y-319989D01*
X-3073509Y-304002D01*
X-3073509Y-304002D01*
X-3058972Y-299278D01*
X-3058972Y-299278D01*
X-2783392Y-297273D01*
G37*
D12*
G01*
X571500Y-2540000D03*
D13*
G01*
X-2908300Y590237D03*
D14*
G01*
X-2908300Y1009962D03*
D15*
G01*
X-3918262Y12700D03*
D16*
G01*
X-3498537Y12700D03*
D13*
G01*
X-2908300Y-1009962D03*
D14*
G01*
X-2908300Y-590237D03*
D17*
G01*
X2243735Y1142382D03*
D18*
G01*
X2556864Y1042017D03*
D19*
G01*
X2846052Y-928352D03*
D20*
G01*
X2640347Y-722647D03*
D21*
G01*
X4190038Y0D03*
D22*
G01*
X2149944Y3683543D03*
D23*
G01*
X3683728Y2149946D03*
D24*
G01*
X-1954004Y3785059D03*
D25*
G01*
X-3718586Y2085266D03*
D26*
G01*
X3317339Y-2697839D03*
D27*
G01*
X1475318Y-3979608D03*
D28*
G01*
X-1262336Y-4044268D03*
D29*
G01*
X-3317209Y-2697895D03*
D30*
G01*
X-2972742Y3076129D03*
D15*
G01*
X-2318062Y0D03*
D16*
G01*
X-1898337Y0D03*
D31*
G01*
X-1930400Y-2311400D03*
G01*
X698500Y1181100D03*
G01*
X508000Y-698500D03*
G01*
X1955800Y-685800D03*
G01*
X-1968500Y1536700D03*
G01*
X-698500Y2552700D03*
G01*
X-2146503Y1946503D03*
G01*
X609600Y2159000D03*
G01*
X-609600Y-1905000D03*
G01*
X76200Y2603500D03*
G01*
X1181100Y-2133600D03*
G01*
X660400Y-2006600D03*
G01*
X-229438Y3383787D03*
G01*
X-1422400Y-1752600D03*
G01*
X-508000Y2806700D03*
G01*
X-254000Y-584200D03*
G01*
X660400Y889000D03*
G01*
X546100Y1930400D03*
G01*
X812800Y-1308100D03*
G01*
X348106Y1967585D03*
G01*
X-831875Y-1237183D03*
G01*
X81051Y2888259D03*
G01*
X-863600Y-1981200D03*
G01*
X-1247520Y1749983D03*
G01*
X-2273300Y901700D03*
G01*
X393700Y2679700D03*
G01*
X2882900Y50800D03*
G01*
X-1612900Y-2514600D03*
G01*
X-1612900Y-381000D03*
G01*
X-317500Y698500D03*
G01*
X-546100Y-2882900D03*
D32*
G01*
X1346200Y-1193800D03*
M02*
